<?xml version="1.0" standalone="no"?>
 <!DOCTYPE svg PUBLIC "-//W3C//DTD SVG 1.1//EN" 
 "http://www.w3.org/Graphics/SVG/1.1/DTD/svg11.dtd"> 
<svg
  xmlns:svg="http://www.w3.org/2000/svg"
  xmlns="http://www.w3.org/2000/svg"
  xmlns:xlink="http://www.w3.org/1999/xlink"
  version="1.1"
  width="33.4518mm" height="76.1746mm" viewBox="0.0000 0.0000 33.4518 76.1746">
<title>SVG Image created as ind-assemble_R-Edge_Cuts.svg date 2023/12/06 13:40:29 </title>
  <desc>Image generated by PCBNEW </desc>
<g style="fill:#000000; fill-opacity:1.0000;stroke:#000000; stroke-opacity:1.0000;
stroke-linecap:round; stroke-linejoin:round;"
 transform="translate(0 0) scale(1 1)">
</g>
<g style="fill:#000000; fill-opacity:0.0; 
stroke:#000000; stroke-width:0.0000; stroke-opacity:1; 
stroke-linecap:round; stroke-linejoin:round;">
</g>
<g style="fill:#000000; fill-opacity:0.0; 
stroke:#000000; stroke-width:0.1000; stroke-opacity:1; 
stroke-linecap:round; stroke-linejoin:round;">
<path d="M23.7100 40.6912 A2.3763 2.3763 0.0 0 0 21.3313 38.3149" />
<path d="M2.4312 0.0774 A2.3813 2.3813 0.0 0 0 0.0500 2.4587" />
<path d="M18.9500 35.9337 A2.3813 2.3813 0.0 0 0 21.3313 38.3149" />
<path d="M26.0837 18.9649
L21.3412 18.9600
" />
<path d="M33.2449 59.7512 A2.3813 2.3813 0.0 0 0 30.8637 57.3700" />
<path d="M26.1037 0.0500
L2.4312 0.0775
" />
<path d="M0.0500 2.4587
L0.0600 73.7337
" />
<path d="M30.8737 76.1249 A2.3813 2.3813 0.0 0 0 33.2549 73.7437" />
<path d="M23.7100 55.0037 A2.3813 2.3813 0.0 0 0 26.0912 57.3849" />
<path d="M33.2449 59.7512
L33.2549 73.7437
" />
<path d="M28.4849 2.4312 A2.3813 2.3813 0.0 0 0 26.1037 0.0500" />
<path d="M26.0837 18.9649 A2.3813 2.3813 0.0 0 0 28.4649 16.5837" />
<path d="M23.7100 40.6912
L23.7100 55.0037
" />
<path d="M26.0912 57.3849
L30.8637 57.3700
" />
<path d="M28.4849 2.4312
L28.4649 16.5837
" />
<path d="M18.9600 21.3412
L18.9500 35.9337
" />
<path d="M21.3413 18.9600 A2.3813 2.3813 0.0 0 0 18.9600 21.3412" />
<path d="M0.0600 73.7337 A2.3813 2.3813 0.0 0 0 2.4413 76.1149" />
<path d="M30.8737 76.1249
L2.4412 76.1149
" />
</g>
<g style="fill:#000000; fill-opacity:0.0; 
stroke:#000000; stroke-width:0.0100; stroke-opacity:1; 
stroke-linecap:round; stroke-linejoin:round;">
<circle cx="2.2975" cy="1.8375" r="1.1000" /> 
<circle cx="2.3775" cy="73.9575" r="1.1000" /> 
<circle cx="31.0575" cy="73.9975" r="1.1000" /> 
<circle cx="26.3075" cy="1.7875" r="1.1000" /> 
<circle cx="21.4875" cy="40.4175" r="1.1000" /> 
<g >
</g>
<g >
</g>
<g >
</g>
<g >
</g>
<g >
</g>
<g >
</g>
<g >
</g>
<g >
</g>
</g> 
</svg>
