<?xml version="1.0" standalone="no"?>
 <!DOCTYPE svg PUBLIC "-//W3C//DTD SVG 1.1//EN" 
 "http://www.w3.org/Graphics/SVG/1.1/DTD/svg11.dtd"> 
<svg
  xmlns:svg="http://www.w3.org/2000/svg"
  xmlns="http://www.w3.org/2000/svg"
  xmlns:xlink="http://www.w3.org/1999/xlink"
  version="1.1"
  width="181.2036mm" height="95.3770mm" viewBox="0.0000 0.0000 181.2036 95.3770">
<title>SVG Image created as ind-assemble_R-Edge_Cuts.svg date 2023/12/06 13:54:11 </title>
  <desc>Image generated by PCBNEW </desc>
<g style="fill:#000000; fill-opacity:1.0000;stroke:#000000; stroke-opacity:1.0000;
stroke-linecap:round; stroke-linejoin:round;"
 transform="translate(0 0) scale(1 1)">
</g>
<g style="fill:#000000; fill-opacity:0.0; 
stroke:#000000; stroke-width:0.0000; stroke-opacity:1; 
stroke-linecap:round; stroke-linejoin:round;">
</g>
<g style="fill:#000000; fill-opacity:1.0000; 
stroke:#000000; stroke-width:0.0212; stroke-opacity:1; 
stroke-linecap:round; stroke-linejoin:round;">
<rect x="-5.000000" y="-5.000000" width="191.228691" height="105.400000" rx="0.000000" />
</g>
<g style="fill:#FFFFFF; fill-opacity:1.0000; 
stroke:#FFFFFF; stroke-width:0.0212; stroke-opacity:1; 
stroke-linecap:round; stroke-linejoin:round;">
</g>
<g style="fill:#FFFFFF; fill-opacity:1.0000; 
stroke:#FFFFFF; stroke-width:0.1000; stroke-opacity:1; 
stroke-linecap:round; stroke-linejoin:round;">
</g>
<g style="fill:#FFFFFF; fill-opacity:0.0; 
stroke:#FFFFFF; stroke-width:0.1000; stroke-opacity:1; 
stroke-linecap:round; stroke-linejoin:round;">
<path d="M26.2800 57.2237
L31.0375 57.2288
" />
<path d="M31.0550 0.0788 A2.3813 2.3813 0.0 0 0 28.6738 2.4600" />
<path d="M31.0375 76.2737
L2.4800 76.2788
" />
<path d="M21.5050 19.1288 A2.3813 2.3813 0.0 0 0 19.1238 21.5100" />
<path d="M23.8988 54.8425 A2.3813 2.3813 0.0 0 0 26.2800 57.2237" />
<path d="M178.6875 0.0588
L31.0550 0.0788
" />
<path d="M181.0687 2.4400
L181.0487 92.9525
" />
<path d="M0.0988 78.6600
L0.0900 93.1812
" />
<path d="M0.0900 93.1812 A2.3860 2.3860 0.0 0 0 2.4650 95.3384" />
<path d="M33.4187 59.6100
L33.4187 73.8925
" />
<path d="M33.4187 59.6100 A2.3813 2.3813 0.0 0 0 31.0375 57.2288" />
<path d="M23.8937 40.5600 A2.3813 2.3813 0.0 0 0 21.5125 38.1788" />
<path d="M178.6675 95.3337 A2.3813 2.3813 0.0 0 0 181.0487 92.9525" />
<path d="M19.1238 21.5100
L19.1238 35.7925
" />
<path d="M2.4800 76.2788 A2.3813 2.3813 0.0 0 0 0.0988 78.6600" />
<path d="M26.2875 19.1237 A2.3813 2.3813 0.0 0 0 28.6687 16.7425" />
<path d="M2.4650 95.3337
L178.6675 95.3337
" />
<path d="M28.6687 16.7425
L28.6738 2.4600
" />
<path d="M23.8937 40.5600
L23.8988 54.8425
" />
<path d="M181.0687 2.4400 A2.3813 2.3813 0.0 0 0 178.6875 0.0588" />
<path d="M26.2875 19.1237
L21.5050 19.1288
" />
<path d="M21.5050 38.1737
L21.5125 38.1788
" />
<path d="M19.1238 35.7925 A2.3813 2.3813 0.0 0 0 21.5050 38.1737" />
<path d="M31.0375 76.2737 A2.3813 2.3813 0.0 0 0 33.4187 73.8925" />
</g>
<g style="fill:#FFFFFF; fill-opacity:0.0; 
stroke:#FFFFFF; stroke-width:0.1500; stroke-opacity:1; 
stroke-linecap:round; stroke-linejoin:round;">
<path d="M69.2400 2.5500
L83.3400 2.5500
" />
<path d="M69.2400 16.6500
L69.2400 2.5500
" />
<path d="M83.3400 2.5500
L83.3400 16.6500
" />
<path d="M83.3400 16.6500
L69.2400 16.6500
" />
<path d="M66.8438 78.7500
L80.9437 78.7500
" />
<path d="M66.8438 92.8500
L66.8438 78.7500
" />
<path d="M80.9437 78.7500
L80.9437 92.8500
" />
<path d="M80.9437 92.8500
L66.8438 92.8500
" />
<path d="M31.1550 2.5500
L45.2550 2.5500
" />
<path d="M31.1550 16.6500
L31.1550 2.5500
" />
<path d="M45.2550 2.5500
L45.2550 16.6500
" />
<path d="M45.2550 16.6500
L31.1550 16.6500
" />
<path d="M107.3550 2.5500
L121.4550 2.5500
" />
<path d="M107.3550 16.6500
L107.3550 2.5500
" />
<path d="M121.4550 2.5500
L121.4550 16.6500
" />
<path d="M121.4550 16.6500
L107.3550 16.6500
" />
<path d="M59.7000 21.6000
L73.8000 21.6000
" />
<path d="M59.7000 35.7000
L59.7000 21.6000
" />
<path d="M73.8000 21.6000
L73.8000 35.7000
" />
<path d="M73.8000 35.7000
L59.7000 35.7000
" />
<path d="M121.6125 40.6500
L135.7125 40.6500
" />
<path d="M121.6125 54.7500
L121.6125 40.6500
" />
<path d="M135.7125 40.6500
L135.7125 54.7500
" />
<path d="M135.7125 54.7500
L121.6125 54.7500
" />
</g>
<g style="fill:#FFFFFF; fill-opacity:0.0; 
stroke:#FFFFFF; stroke-width:0.0100; stroke-opacity:1; 
stroke-linecap:round; stroke-linejoin:round;">
<circle cx="19.2837" cy="92.6262" r="1.1000" /> 
<circle cx="35.9525" cy="75.9575" r="1.1000" /> 
</g>
<g style="fill:#FFFFFF; fill-opacity:0.0; 
stroke:#FFFFFF; stroke-width:0.1500; stroke-opacity:1; 
stroke-linecap:round; stroke-linejoin:round;">
<path d="M93.0375 59.7000
L107.1375 59.7000
" />
<path d="M93.0375 73.8000
L93.0375 59.7000
" />
<path d="M107.1375 59.7000
L107.1375 73.8000
" />
<path d="M107.1375 73.8000
L93.0375 73.8000
" />
<path d="M102.5625 40.6500
L116.6625 40.6500
" />
<path d="M102.5625 54.7500
L102.5625 40.6500
" />
<path d="M116.6625 40.6500
L116.6625 54.7500
" />
<path d="M116.6625 54.7500
L102.5625 54.7500
" />
<path d="M54.9375 59.7000
L69.0375 59.7000
" />
<path d="M54.9375 73.8000
L54.9375 59.7000
" />
<path d="M69.0375 59.7000
L69.0375 73.8000
" />
<path d="M69.0375 73.8000
L54.9375 73.8000
" />
</g>
<g style="fill:#FFFFFF; fill-opacity:0.0; 
stroke:#FFFFFF; stroke-width:0.0100; stroke-opacity:1; 
stroke-linecap:round; stroke-linejoin:round;">
<circle cx="178.8275" cy="37.8575" r="1.1000" /> 
<circle cx="47.8588" cy="2.1387" r="1.1000" /> 
</g>
<g style="fill:#FFFFFF; fill-opacity:0.0; 
stroke:#FFFFFF; stroke-width:0.1500; stroke-opacity:1; 
stroke-linecap:round; stroke-linejoin:round;">
<path d="M50.1900 2.5500
L64.2900 2.5500
" />
<path d="M50.1900 16.6500
L50.1900 2.5500
" />
<path d="M64.2900 2.5500
L64.2900 16.6500
" />
<path d="M64.2900 16.6500
L50.1900 16.6500
" />
<path d="M2.5500 78.7500
L16.6500 78.7500
" />
<path d="M2.5500 92.8500
L2.5500 78.7500
" />
<path d="M16.6500 78.7500
L16.6500 92.8500
" />
<path d="M16.6500 92.8500
L2.5500 92.8500
" />
<path d="M26.3625 40.6500
L40.4625 40.6500
" />
<path d="M26.3625 54.7500
L26.3625 40.6500
" />
<path d="M40.4625 40.6500
L40.4625 54.7500
" />
<path d="M40.4625 54.7500
L26.3625 54.7500
" />
</g>
<g style="fill:#FFFFFF; fill-opacity:0.0; 
stroke:#FFFFFF; stroke-width:0.0100; stroke-opacity:1; 
stroke-linecap:round; stroke-linejoin:round;">
<circle cx="85.9587" cy="2.1387" r="1.1000" /> 
</g>
<g style="fill:#FFFFFF; fill-opacity:0.0; 
stroke:#FFFFFF; stroke-width:0.1500; stroke-opacity:1; 
stroke-linecap:round; stroke-linejoin:round;">
<path d="M159.7125 21.6000
L173.8125 21.6000
" />
<path d="M159.7125 35.7000
L159.7125 21.6000
" />
<path d="M173.8125 21.6000
L173.8125 35.7000
" />
<path d="M173.8125 35.7000
L159.7125 35.7000
" />
</g>
<g style="fill:#FFFFFF; fill-opacity:0.0; 
stroke:#FFFFFF; stroke-width:0.0100; stroke-opacity:1; 
stroke-linecap:round; stroke-linejoin:round;">
<circle cx="90.7212" cy="68.8137" r="1.1000" /> 
</g>
<g style="fill:#FFFFFF; fill-opacity:0.0; 
stroke:#FFFFFF; stroke-width:0.1500; stroke-opacity:1; 
stroke-linecap:round; stroke-linejoin:round;">
<path d="M162.0938 78.7500
L176.1937 78.7500
" />
<path d="M162.0938 92.8500
L162.0938 78.7500
" />
<path d="M176.1937 78.7500
L176.1937 92.8500
" />
<path d="M176.1937 92.8500
L162.0938 92.8500
" />
<path d="M73.9875 59.7000
L88.0875 59.7000
" />
<path d="M73.9875 73.8000
L73.9875 59.7000
" />
<path d="M88.0875 59.7000
L88.0875 73.8000
" />
<path d="M88.0875 73.8000
L73.9875 73.8000
" />
<path d="M64.4625 40.6500
L78.5625 40.6500
" />
<path d="M64.4625 54.7500
L64.4625 40.6500
" />
<path d="M78.5625 40.6500
L78.5625 54.7500
" />
<path d="M78.5625 54.7500
L64.4625 54.7500
" />
</g>
<g style="fill:#FFFFFF; fill-opacity:0.0; 
stroke:#FFFFFF; stroke-width:0.0100; stroke-opacity:1; 
stroke-linecap:round; stroke-linejoin:round;">
<circle cx="119.2963" cy="37.8575" r="1.1000" /> 
</g>
<g style="fill:#FFFFFF; fill-opacity:0.0; 
stroke:#FFFFFF; stroke-width:0.1500; stroke-opacity:1; 
stroke-linecap:round; stroke-linejoin:round;">
<path d="M21.6000 21.6000
L35.7000 21.6000
" />
<path d="M21.6000 35.7000
L21.6000 21.6000
" />
<path d="M35.7000 21.6000
L35.7000 35.7000
" />
<path d="M35.7000 35.7000
L21.6000 35.7000
" />
</g>
<g style="fill:#FFFFFF; fill-opacity:0.0; 
stroke:#FFFFFF; stroke-width:0.0100; stroke-opacity:1; 
stroke-linecap:round; stroke-linejoin:round;">
<circle cx="124.0587" cy="2.1387" r="1.1000" /> 
</g>
<g style="fill:#FFFFFF; fill-opacity:0.0; 
stroke:#FFFFFF; stroke-width:0.1500; stroke-opacity:1; 
stroke-linecap:round; stroke-linejoin:round;">
<path d="M78.7500 21.6000
L92.8500 21.6000
" />
<path d="M78.7500 35.7000
L78.7500 21.6000
" />
<path d="M92.8500 21.6000
L92.8500 35.7000
" />
<path d="M92.8500 35.7000
L78.7500 35.7000
" />
</g>
<g style="fill:#FFFFFF; fill-opacity:0.0; 
stroke:#FFFFFF; stroke-width:0.1200; stroke-opacity:1; 
stroke-linecap:round; stroke-linejoin:round;">
<path d="M144.2188 41.7000
L151.2188 41.7000
" />
<path d="M144.2188 56.5000
L144.2188 41.7000
" />
<path d="M151.2188 41.7000
L151.2188 56.5000
" />
<path d="M151.2188 56.5000
L144.2188 56.5000
" />
</g>
<g style="fill:#FFFFFF; fill-opacity:0.0; 
stroke:#FFFFFF; stroke-width:0.1500; stroke-opacity:1; 
stroke-linecap:round; stroke-linejoin:round;">
<path d="M152.5687 40.6500
L166.6687 40.6500
" />
<path d="M152.5687 54.7500
L152.5687 40.6500
" />
<path d="M166.6687 40.6500
L166.6687 54.7500
" />
<path d="M166.6687 54.7500
L152.5687 54.7500
" />
</g>
<g style="fill:#FFFFFF; fill-opacity:0.0; 
stroke:#FFFFFF; stroke-width:0.1200; stroke-opacity:1; 
stroke-linecap:round; stroke-linejoin:round;">
<path d="M168.0187 41.7000
L168.0187 56.5000
" />
<path d="M168.0187 56.5000
L175.0187 56.5000
" />
<path d="M175.0187 41.7000
L168.0187 41.7000
" />
<path d="M175.0187 56.5000
L175.0187 41.7000
" />
</g>
<g style="fill:#FFFFFF; fill-opacity:0.0; 
stroke:#FFFFFF; stroke-width:0.1500; stroke-opacity:1; 
stroke-linecap:round; stroke-linejoin:round;">
<path d="M135.9000 21.6000
L150.0000 21.6000
" />
<path d="M135.9000 35.7000
L135.9000 21.6000
" />
<path d="M150.0000 21.6000
L150.0000 35.7000
" />
<path d="M150.0000 35.7000
L135.9000 35.7000
" />
</g>
<g style="fill:#FFFFFF; fill-opacity:0.0; 
stroke:#FFFFFF; stroke-width:0.1200; stroke-opacity:1; 
stroke-linecap:round; stroke-linejoin:round;">
<path d="M146.6000 3.6000
L153.6000 3.6000
" />
<path d="M146.6000 18.4000
L146.6000 3.6000
" />
<path d="M153.6000 3.6000
L153.6000 18.4000
" />
<path d="M153.6000 18.4000
L146.6000 18.4000
" />
</g>
<g style="fill:#FFFFFF; fill-opacity:0.0; 
stroke:#FFFFFF; stroke-width:0.1500; stroke-opacity:1; 
stroke-linecap:round; stroke-linejoin:round;">
<path d="M154.9500 2.5500
L169.0500 2.5500
" />
<path d="M154.9500 16.6500
L154.9500 2.5500
" />
<path d="M169.0500 2.5500
L169.0500 16.6500
" />
<path d="M169.0500 16.6500
L154.9500 16.6500
" />
</g>
<g style="fill:#FFFFFF; fill-opacity:0.0; 
stroke:#FFFFFF; stroke-width:0.1200; stroke-opacity:1; 
stroke-linecap:round; stroke-linejoin:round;">
<path d="M170.4000 3.6000
L170.4000 18.4000
" />
<path d="M170.4000 18.4000
L177.4000 18.4000
" />
<path d="M177.4000 3.6000
L170.4000 3.6000
" />
<path d="M177.4000 18.4000
L177.4000 3.6000
" />
</g>
<g style="fill:#FFFFFF; fill-opacity:0.0; 
stroke:#FFFFFF; stroke-width:0.1500; stroke-opacity:1; 
stroke-linecap:round; stroke-linejoin:round;">
<path d="M126.3900 2.5500
L140.4900 2.5500
" />
<path d="M126.3900 16.6500
L126.3900 2.5500
" />
<path d="M140.4900 2.5500
L140.4900 16.6500
" />
<path d="M140.4900 16.6500
L126.3900 16.6500
" />
<path d="M90.6562 78.7500
L104.7562 78.7500
" />
<path d="M90.6562 92.8500
L90.6562 78.7500
" />
<path d="M104.7562 78.7500
L104.7562 92.8500
" />
<path d="M104.7562 92.8500
L90.6562 92.8500
" />
</g>
<g style="fill:#FFFFFF; fill-opacity:0.0; 
stroke:#FFFFFF; stroke-width:0.0100; stroke-opacity:1; 
stroke-linecap:round; stroke-linejoin:round;">
<circle cx="178.8275" cy="2.1387" r="1.1000" /> 
</g>
<g style="fill:#FFFFFF; fill-opacity:0.0; 
stroke:#FFFFFF; stroke-width:0.1500; stroke-opacity:1; 
stroke-linecap:round; stroke-linejoin:round;">
<path d="M88.2900 2.5500
L102.3900 2.5500
" />
<path d="M88.2900 16.6500
L88.2900 2.5500
" />
<path d="M102.3900 2.5500
L102.3900 16.6500
" />
<path d="M102.3900 16.6500
L88.2900 16.6500
" />
</g>
<g style="fill:#FFFFFF; fill-opacity:0.0; 
stroke:#FFFFFF; stroke-width:0.1200; stroke-opacity:1; 
stroke-linecap:round; stroke-linejoin:round;">
<path d="M139.4562 60.7500
L146.4562 60.7500
" />
<path d="M139.4562 75.5500
L139.4562 60.7500
" />
<path d="M146.4562 60.7500
L146.4562 75.5500
" />
<path d="M146.4562 75.5500
L139.4562 75.5500
" />
</g>
<g style="fill:#FFFFFF; fill-opacity:0.0; 
stroke:#FFFFFF; stroke-width:0.1500; stroke-opacity:1; 
stroke-linecap:round; stroke-linejoin:round;">
<path d="M147.8063 59.7000
L161.9062 59.7000
" />
<path d="M147.8063 73.8000
L147.8063 59.7000
" />
<path d="M161.9062 59.7000
L161.9062 73.8000
" />
<path d="M161.9062 73.8000
L147.8063 73.8000
" />
</g>
<g style="fill:#FFFFFF; fill-opacity:0.0; 
stroke:#FFFFFF; stroke-width:0.1200; stroke-opacity:1; 
stroke-linecap:round; stroke-linejoin:round;">
<path d="M163.2562 60.7500
L163.2562 75.5500
" />
<path d="M163.2562 75.5500
L170.2562 75.5500
" />
<path d="M170.2562 60.7500
L163.2562 60.7500
" />
<path d="M170.2562 75.5500
L170.2562 60.7500
" />
</g>
<g style="fill:#FFFFFF; fill-opacity:0.0; 
stroke:#FFFFFF; stroke-width:0.1500; stroke-opacity:1; 
stroke-linecap:round; stroke-linejoin:round;">
<path d="M43.0312 78.7500
L57.1312 78.7500
" />
<path d="M43.0312 92.8500
L43.0312 78.7500
" />
<path d="M57.1312 78.7500
L57.1312 92.8500
" />
<path d="M57.1312 92.8500
L43.0312 92.8500
" />
<path d="M40.6500 21.6000
L54.7500 21.6000
" />
<path d="M40.6500 35.7000
L40.6500 21.6000
" />
<path d="M54.7500 21.6000
L54.7500 35.7000
" />
<path d="M54.7500 35.7000
L40.6500 35.7000
" />
<path d="M21.6000 78.7500
L35.7000 78.7500
" />
<path d="M21.6000 92.8500
L21.6000 78.7500
" />
<path d="M35.7000 78.7500
L35.7000 92.8500
" />
<path d="M35.7000 92.8500
L21.6000 92.8500
" />
<path d="M112.0875 59.7000
L126.1875 59.7000
" />
<path d="M112.0875 73.8000
L112.0875 59.7000
" />
<path d="M126.1875 59.7000
L126.1875 73.8000
" />
<path d="M126.1875 73.8000
L112.0875 73.8000
" />
</g>
<g style="fill:#FFFFFF; fill-opacity:0.0; 
stroke:#FFFFFF; stroke-width:0.0100; stroke-opacity:1; 
stroke-linecap:round; stroke-linejoin:round;">
<circle cx="76.4338" cy="37.8575" r="1.1000" /> 
</g>
<g style="fill:#FFFFFF; fill-opacity:0.0; 
stroke:#FFFFFF; stroke-width:0.1500; stroke-opacity:1; 
stroke-linecap:round; stroke-linejoin:round;">
<path d="M83.5125 40.6500
L97.6125 40.6500
" />
<path d="M83.5125 54.7500
L83.5125 40.6500
" />
<path d="M97.6125 40.6500
L97.6125 54.7500
" />
<path d="M97.6125 54.7500
L83.5125 54.7500
" />
</g>
<g style="fill:#FFFFFF; fill-opacity:0.0; 
stroke:#FFFFFF; stroke-width:0.0100; stroke-opacity:1; 
stroke-linecap:round; stroke-linejoin:round;">
<circle cx="26.4275" cy="37.8575" r="1.1000" /> 
<circle cx="178.8275" cy="75.9575" r="1.1000" /> 
<circle cx="109.7712" cy="92.6262" r="1.1000" /> 
<circle cx="62.1462" cy="92.6262" r="1.1000" /> 
</g>
<g style="fill:#FFFFFF; fill-opacity:0.0; 
stroke:#FFFFFF; stroke-width:0.1500; stroke-opacity:1; 
stroke-linecap:round; stroke-linejoin:round;">
<path d="M138.2812 78.7500
L152.3812 78.7500
" />
<path d="M138.2812 92.8500
L138.2812 78.7500
" />
<path d="M152.3812 78.7500
L152.3812 92.8500
" />
<path d="M152.3812 92.8500
L138.2812 92.8500
" />
<path d="M35.8875 59.7000
L49.9875 59.7000
" />
<path d="M35.8875 73.8000
L35.8875 59.7000
" />
<path d="M49.9875 59.7000
L49.9875 73.8000
" />
<path d="M49.9875 73.8000
L35.8875 73.8000
" />
<path d="M97.8000 21.6000
L111.9000 21.6000
" />
<path d="M97.8000 35.7000
L97.8000 21.6000
" />
<path d="M111.9000 21.6000
L111.9000 35.7000
" />
<path d="M111.9000 35.7000
L97.8000 35.7000
" />
<path d="M116.8500 21.6000
L130.9500 21.6000
" />
<path d="M116.8500 35.7000
L116.8500 21.6000
" />
<path d="M130.9500 21.6000
L130.9500 35.7000
" />
<path d="M130.9500 35.7000
L116.8500 35.7000
" />
<path d="M114.4688 78.7500
L128.5687 78.7500
" />
<path d="M114.4688 92.8500
L114.4688 78.7500
" />
<path d="M128.5687 78.7500
L128.5687 92.8500
" />
<path d="M128.5687 92.8500
L114.4688 92.8500
" />
<path d="M45.4125 40.6500
L59.5125 40.6500
" />
<path d="M45.4125 54.7500
L45.4125 40.6500
" />
<path d="M59.5125 40.6500
L59.5125 54.7500
" />
<path d="M59.5125 54.7500
L45.4125 54.7500
" />
<g >
</g>
<g >
</g>
<g >
</g>
<g >
</g>
<g >
</g>
<g >
</g>
<g >
</g>
<g >
</g>
<g >
</g>
<g >
</g>
<g >
</g>
<g >
</g>
<g >
</g>
<g >
</g>
<g >
</g>
<g >
</g>
<g >
</g>
<g >
</g>
<g >
</g>
<g >
</g>
<g >
</g>
<g >
</g>
<g >
</g>
<g >
</g>
<g >
</g>
<g >
</g>
<g >
</g>
<g >
</g>
<g >
</g>
<g >
</g>
<g >
</g>
<g >
</g>
<g >
</g>
<g >
</g>
<g >
</g>
<g >
</g>
<g >
</g>
<g >
</g>
<g >
</g>
<g >
</g>
<g >
</g>
<g >
</g>
<g >
</g>
<g >
</g>
<g >
</g>
<g >
</g>
<g >
</g>
<g >
</g>
<g >
</g>
<g >
</g>
<g >
</g>
<g >
</g>
<g >
</g>
</g> 
</svg>
