G04 #@! TF.GenerationSoftware,KiCad,Pcbnew,7.0.7*
G04 #@! TF.CreationDate,2023-09-30T17:50:39+09:00*
G04 #@! TF.ProjectId,ind-assemble_R,696e642d-6173-4736-956d-626c655f522e,rev?*
G04 #@! TF.SameCoordinates,Original*
G04 #@! TF.FileFunction,Profile,NP*
%FSLAX46Y46*%
G04 Gerber Fmt 4.6, Leading zero omitted, Abs format (unit mm)*
G04 Created by KiCad (PCBNEW 7.0.7) date 2023-09-30 17:50:39*
%MOMM*%
%LPD*%
G01*
G04 APERTURE LIST*
G04 #@! TA.AperFunction,Profile*
%ADD10C,0.100000*%
G04 #@! TD*
G04 #@! TA.AperFunction,Profile*
%ADD11C,0.010000*%
G04 #@! TD*
G04 APERTURE END LIST*
D10*
X56847549Y-71898798D02*
G75*
G03*
X54468798Y-69522452I-2376349J-2D01*
G01*
X35568798Y-31284998D02*
G75*
G03*
X33187548Y-33666250I2J-2381252D01*
G01*
X52087548Y-67141202D02*
G75*
G03*
X54468798Y-69522452I2381252J2D01*
G01*
X59221202Y-50172452D02*
X54478798Y-50167548D01*
X66382452Y-90958798D02*
G75*
G03*
X64001202Y-88577548I-2381252J-2D01*
G01*
X59241201Y-31257549D02*
X35568798Y-31285000D01*
X33187548Y-33666250D02*
X33197548Y-104941202D01*
X64011202Y-107332452D02*
G75*
G03*
X66392452Y-104951202I-2J2381252D01*
G01*
X56847548Y-86211202D02*
G75*
G03*
X59228798Y-88592452I2381252J2D01*
G01*
X66382452Y-90958798D02*
X66392452Y-104951202D01*
X61622451Y-33638799D02*
G75*
G03*
X59241201Y-31257549I-2381251J-1D01*
G01*
X59221202Y-50172452D02*
G75*
G03*
X61602452Y-47791202I-2J2381252D01*
G01*
X56847549Y-71898798D02*
X56847548Y-86211202D01*
X59228798Y-88592452D02*
X64001202Y-88577548D01*
X61622451Y-33638799D02*
X61602452Y-47791202D01*
X52097548Y-52548798D02*
X52087548Y-67141202D01*
X54478798Y-50167548D02*
G75*
G03*
X52097548Y-52548798I2J-2381252D01*
G01*
X33197548Y-104941202D02*
G75*
G03*
X35578798Y-107322452I2381252J2D01*
G01*
X64011202Y-107332452D02*
X35578798Y-107322452D01*
D11*
X36535000Y-33045000D02*
G75*
G03*
X36535000Y-33045000I-1100000J0D01*
G01*
X36615000Y-105165000D02*
G75*
G03*
X36615000Y-105165000I-1100000J0D01*
G01*
X65295000Y-105205000D02*
G75*
G03*
X65295000Y-105205000I-1100000J0D01*
G01*
X60545000Y-32995000D02*
G75*
G03*
X60545000Y-32995000I-1100000J0D01*
G01*
X55725000Y-71625000D02*
G75*
G03*
X55725000Y-71625000I-1100000J0D01*
G01*
M02*
