<?xml version="1.0" standalone="no"?>
 <!DOCTYPE svg PUBLIC "-//W3C//DTD SVG 1.1//EN" 
 "http://www.w3.org/Graphics/SVG/1.1/DTD/svg11.dtd"> 
<svg
  xmlns:svg="http://www.w3.org/2000/svg"
  xmlns="http://www.w3.org/2000/svg"
  xmlns:xlink="http://www.w3.org/1999/xlink"
  version="1.1"
  width="158.2420mm" height="95.3262mm" viewBox="0.0000 0.0000 158.2420 95.3262">
<title>SVG Image created as ind-assemble_L-Edge_Cuts.svg date 2023/12/06 12:54:18 </title>
  <desc>Image generated by PCBNEW </desc>
<g style="fill:#000000; fill-opacity:1.0000;stroke:#000000; stroke-opacity:1.0000;
stroke-linecap:round; stroke-linejoin:round;"
 transform="translate(0 0) scale(1 1)">
</g>
<g style="fill:#000000; fill-opacity:0.0; 
stroke:#000000; stroke-width:0.0000; stroke-opacity:1; 
stroke-linecap:round; stroke-linejoin:round;">
</g>
<g style="fill:#000000; fill-opacity:1.0000; 
stroke:#000000; stroke-width:0.0212; stroke-opacity:1; 
stroke-linecap:round; stroke-linejoin:round;">
<rect x="-5.000000" y="-5.000000" width="168.263691" height="105.350000" rx="0.000000" />
</g>
<g style="fill:#FFFFFF; fill-opacity:1.0000; 
stroke:#FFFFFF; stroke-width:0.0212; stroke-opacity:1; 
stroke-linecap:round; stroke-linejoin:round;">
</g>
<g style="fill:#FFFFFF; fill-opacity:1.0000; 
stroke:#FFFFFF; stroke-width:0.1000; stroke-opacity:1; 
stroke-linecap:round; stroke-linejoin:round;">
</g>
<g style="fill:#FFFFFF; fill-opacity:0.0; 
stroke:#FFFFFF; stroke-width:0.1000; stroke-opacity:1; 
stroke-linecap:round; stroke-linejoin:round;">
<path d="M157.2125 2.4312
L157.2125 92.9188
" />
<path d="M157.2125 2.4313 A2.3813 2.3813 0.0 0 0 154.8312 0.0500" />
<path d="M154.8312 95.3000 A2.3813 2.3813 0.0 0 0 157.2125 92.9187" />
<path d="M0.0500 92.9188 A2.3813 2.3813 0.0 0 0 2.4312 95.3000" />
<path d="M0.0500 92.9188
L0.0500 2.4312
" />
<path d="M2.4312 0.0500
L154.8312 0.0500
" />
<path d="M154.8312 95.3000
L2.4312 95.3000
" />
<path d="M2.4312 0.0500 A2.3813 2.3813 0.0 0 0 0.0500 2.4312" />
</g>
<g style="fill:#FFFFFF; fill-opacity:0.0; 
stroke:#FFFFFF; stroke-width:0.0100; stroke-opacity:1; 
stroke-linecap:round; stroke-linejoin:round;">
<circle cx="130.8625" cy="54.8625" r="1.1000" /> 
<circle cx="19.1000" cy="2.4312" r="1.1000" /> 
<circle cx="125.8625" cy="35.8625" r="1.1000" /> 
<circle cx="95.3000" cy="92.9188" r="1.1000" /> 
<circle cx="135.0625" cy="2.0625" r="1.1000" /> 
<circle cx="66.7250" cy="21.4812" r="1.1000" /> 
<circle cx="90.5375" cy="52.4375" r="1.1000" /> 
<circle cx="140.8625" cy="73.8625" r="1.1000" /> 
<circle cx="155.8625" cy="2.6625" r="1.1000" /> 
<circle cx="2.4312" cy="92.9188" r="1.1000" /> 
<circle cx="47.6750" cy="92.9188" r="1.1000" /> 
<circle cx="2.4312" cy="59.5812" r="1.1000" /> 
<circle cx="125.8625" cy="20.8625" r="1.1000" /> 
<circle cx="135.7812" cy="76.2500" r="1.1000" /> 
<circle cx="2.4312" cy="23.8625" r="1.1000" /> 
<circle cx="114.3500" cy="2.4312" r="1.1000" /> 
<circle cx="57.2000" cy="2.4312" r="1.1000" /> 
<circle cx="121.4937" cy="38.1500" r="1.1000" /> 
<circle cx="154.8625" cy="73.8625" r="1.1000" /> 
<circle cx="52.4375" cy="52.4375" r="1.1000" /> 
<g >
</g>
<g >
</g>
<g >
</g>
<g >
</g>
<g >
</g>
<g >
</g>
<g >
</g>
<g >
</g>
<g >
</g>
<g >
</g>
<g >
</g>
<g >
</g>
<g >
</g>
<g >
</g>
<g >
</g>
<g >
</g>
<g >
</g>
<g >
</g>
<g >
</g>
<g >
</g>
<g >
</g>
<g >
</g>
<g >
</g>
</g> 
</svg>
