G04 #@! TF.GenerationSoftware,KiCad,Pcbnew,7.0.7*
G04 #@! TF.CreationDate,2023-09-30T17:52:00+09:00*
G04 #@! TF.ProjectId,ind-assemble_R,696e642d-6173-4736-956d-626c655f522e,rev?*
G04 #@! TF.SameCoordinates,Original*
G04 #@! TF.FileFunction,Profile,NP*
%FSLAX46Y46*%
G04 Gerber Fmt 4.6, Leading zero omitted, Abs format (unit mm)*
G04 Created by KiCad (PCBNEW 7.0.7) date 2023-09-30 17:52:00*
%MOMM*%
%LPD*%
G01*
G04 APERTURE LIST*
G04 #@! TA.AperFunction,Profile*
%ADD10C,0.100000*%
G04 #@! TD*
G04 #@! TA.AperFunction,Profile*
%ADD11C,0.150000*%
G04 #@! TD*
G04 #@! TA.AperFunction,Profile*
%ADD12C,0.010000*%
G04 #@! TD*
G04 #@! TA.AperFunction,Profile*
%ADD13C,0.120000*%
G04 #@! TD*
G04 APERTURE END LIST*
D10*
X59383799Y-88422452D02*
X64141201Y-88427548D01*
X64158798Y-31277548D02*
G75*
G03*
X61777548Y-33658799I2J-2381252D01*
G01*
X64141202Y-107472451D02*
X35583798Y-107477549D01*
X54608798Y-50327548D02*
G75*
G03*
X52227548Y-52708799I2J-2381252D01*
G01*
X57002548Y-86041202D02*
G75*
G03*
X59383799Y-88422452I2381252J2D01*
G01*
X211791202Y-31257548D02*
X64158798Y-31277549D01*
X214172452Y-33638798D02*
X214152452Y-124151202D01*
X33202548Y-109858799D02*
X33193798Y-124379952D01*
X33193799Y-124379952D02*
G75*
G03*
X35568798Y-126537192I2375001J228752D01*
G01*
X66522451Y-90808798D02*
X66522452Y-105091201D01*
X66522452Y-90808798D02*
G75*
G03*
X64141201Y-88427548I-2381252J-2D01*
G01*
X56997452Y-71758798D02*
G75*
G03*
X54616201Y-69377548I-2381252J-2D01*
G01*
X211771202Y-126532452D02*
G75*
G03*
X214152452Y-124151202I-2J2381252D01*
G01*
X52227548Y-52708799D02*
X52227549Y-66991202D01*
X35583798Y-107477548D02*
G75*
G03*
X33202548Y-109858799I2J-2381252D01*
G01*
X59391202Y-50322452D02*
G75*
G03*
X61772452Y-47941201I-2J2381252D01*
G01*
X35568798Y-126532452D02*
X211771202Y-126532452D01*
X61772452Y-47941201D02*
X61777548Y-33658799D01*
X56997451Y-71758798D02*
X57002549Y-86041202D01*
X214172452Y-33638798D02*
G75*
G03*
X211791202Y-31257548I-2381252J-2D01*
G01*
X59391202Y-50322451D02*
X54608798Y-50327549D01*
X54608799Y-69372452D02*
X54616201Y-69377548D01*
X52227548Y-66991202D02*
G75*
G03*
X54608799Y-69372452I2381252J2D01*
G01*
X64141202Y-107472452D02*
G75*
G03*
X66522452Y-105091201I-2J2381252D01*
G01*
D11*
X102343750Y-33748750D02*
X116443750Y-33748750D01*
X102343750Y-47848750D02*
X102343750Y-33748750D01*
X116443750Y-33748750D02*
X116443750Y-47848750D01*
X116443750Y-47848750D02*
X102343750Y-47848750D01*
X99947500Y-109948750D02*
X114047500Y-109948750D01*
X99947500Y-124048750D02*
X99947500Y-109948750D01*
X114047500Y-109948750D02*
X114047500Y-124048750D01*
X114047500Y-124048750D02*
X99947500Y-124048750D01*
X64258750Y-33748750D02*
X78358750Y-33748750D01*
X64258750Y-47848750D02*
X64258750Y-33748750D01*
X78358750Y-33748750D02*
X78358750Y-47848750D01*
X78358750Y-47848750D02*
X64258750Y-47848750D01*
X140458750Y-33748750D02*
X154558750Y-33748750D01*
X140458750Y-47848750D02*
X140458750Y-33748750D01*
X154558750Y-33748750D02*
X154558750Y-47848750D01*
X154558750Y-47848750D02*
X140458750Y-47848750D01*
X92803750Y-52798750D02*
X106903750Y-52798750D01*
X92803750Y-66898750D02*
X92803750Y-52798750D01*
X106903750Y-52798750D02*
X106903750Y-66898750D01*
X106903750Y-66898750D02*
X92803750Y-66898750D01*
X154716250Y-71848750D02*
X168816250Y-71848750D01*
X154716250Y-85948750D02*
X154716250Y-71848750D01*
X168816250Y-71848750D02*
X168816250Y-85948750D01*
X168816250Y-85948750D02*
X154716250Y-85948750D01*
D12*
X53487500Y-123825000D02*
G75*
G03*
X53487500Y-123825000I-1100000J0D01*
G01*
X70156250Y-107156250D02*
G75*
G03*
X70156250Y-107156250I-1100000J0D01*
G01*
D11*
X126141250Y-90898750D02*
X140241250Y-90898750D01*
X126141250Y-104998750D02*
X126141250Y-90898750D01*
X140241250Y-90898750D02*
X140241250Y-104998750D01*
X140241250Y-104998750D02*
X126141250Y-104998750D01*
X135666250Y-71848750D02*
X149766250Y-71848750D01*
X135666250Y-85948750D02*
X135666250Y-71848750D01*
X149766250Y-71848750D02*
X149766250Y-85948750D01*
X149766250Y-85948750D02*
X135666250Y-85948750D01*
X88041250Y-90898750D02*
X102141250Y-90898750D01*
X88041250Y-104998750D02*
X88041250Y-90898750D01*
X102141250Y-90898750D02*
X102141250Y-104998750D01*
X102141250Y-104998750D02*
X88041250Y-104998750D01*
D12*
X213031250Y-69056250D02*
G75*
G03*
X213031250Y-69056250I-1100000J0D01*
G01*
X82062500Y-33337500D02*
G75*
G03*
X82062500Y-33337500I-1100000J0D01*
G01*
D11*
X83293750Y-33748750D02*
X97393750Y-33748750D01*
X83293750Y-47848750D02*
X83293750Y-33748750D01*
X97393750Y-33748750D02*
X97393750Y-47848750D01*
X97393750Y-47848750D02*
X83293750Y-47848750D01*
X35653750Y-109948750D02*
X49753750Y-109948750D01*
X35653750Y-124048750D02*
X35653750Y-109948750D01*
X49753750Y-109948750D02*
X49753750Y-124048750D01*
X49753750Y-124048750D02*
X35653750Y-124048750D01*
X59466250Y-71848750D02*
X73566250Y-71848750D01*
X59466250Y-85948750D02*
X59466250Y-71848750D01*
X73566250Y-71848750D02*
X73566250Y-85948750D01*
X73566250Y-85948750D02*
X59466250Y-85948750D01*
D12*
X120162500Y-33337500D02*
G75*
G03*
X120162500Y-33337500I-1100000J0D01*
G01*
D11*
X192816250Y-52798750D02*
X206916250Y-52798750D01*
X192816250Y-66898750D02*
X192816250Y-52798750D01*
X206916250Y-52798750D02*
X206916250Y-66898750D01*
X206916250Y-66898750D02*
X192816250Y-66898750D01*
D12*
X124925000Y-100012500D02*
G75*
G03*
X124925000Y-100012500I-1100000J0D01*
G01*
D11*
X195197500Y-109948750D02*
X209297500Y-109948750D01*
X195197500Y-124048750D02*
X195197500Y-109948750D01*
X209297500Y-109948750D02*
X209297500Y-124048750D01*
X209297500Y-124048750D02*
X195197500Y-124048750D01*
X107091250Y-90898750D02*
X121191250Y-90898750D01*
X107091250Y-104998750D02*
X107091250Y-90898750D01*
X121191250Y-90898750D02*
X121191250Y-104998750D01*
X121191250Y-104998750D02*
X107091250Y-104998750D01*
X97566250Y-71848750D02*
X111666250Y-71848750D01*
X97566250Y-85948750D02*
X97566250Y-71848750D01*
X111666250Y-71848750D02*
X111666250Y-85948750D01*
X111666250Y-85948750D02*
X97566250Y-85948750D01*
D12*
X153500000Y-69056250D02*
G75*
G03*
X153500000Y-69056250I-1100000J0D01*
G01*
D11*
X54703750Y-52798750D02*
X68803750Y-52798750D01*
X54703750Y-66898750D02*
X54703750Y-52798750D01*
X68803750Y-52798750D02*
X68803750Y-66898750D01*
X68803750Y-66898750D02*
X54703750Y-66898750D01*
D12*
X158262500Y-33337500D02*
G75*
G03*
X158262500Y-33337500I-1100000J0D01*
G01*
D11*
X111853750Y-52798750D02*
X125953750Y-52798750D01*
X111853750Y-66898750D02*
X111853750Y-52798750D01*
X125953750Y-52798750D02*
X125953750Y-66898750D01*
X125953750Y-66898750D02*
X111853750Y-66898750D01*
D13*
X177322500Y-72898750D02*
X184322500Y-72898750D01*
X177322500Y-87698750D02*
X177322500Y-72898750D01*
X184322500Y-72898750D02*
X184322500Y-87698750D01*
X184322500Y-87698750D02*
X177322500Y-87698750D01*
D11*
X185672500Y-71848750D02*
X199772500Y-71848750D01*
X185672500Y-85948750D02*
X185672500Y-71848750D01*
X199772500Y-71848750D02*
X199772500Y-85948750D01*
X199772500Y-85948750D02*
X185672500Y-85948750D01*
D13*
X201122500Y-72898750D02*
X201122500Y-87698750D01*
X201122500Y-87698750D02*
X208122500Y-87698750D01*
X208122500Y-72898750D02*
X201122500Y-72898750D01*
X208122500Y-87698750D02*
X208122500Y-72898750D01*
D11*
X169003750Y-52798750D02*
X183103750Y-52798750D01*
X169003750Y-66898750D02*
X169003750Y-52798750D01*
X183103750Y-52798750D02*
X183103750Y-66898750D01*
X183103750Y-66898750D02*
X169003750Y-66898750D01*
D13*
X179703750Y-34798750D02*
X186703750Y-34798750D01*
X179703750Y-49598750D02*
X179703750Y-34798750D01*
X186703750Y-34798750D02*
X186703750Y-49598750D01*
X186703750Y-49598750D02*
X179703750Y-49598750D01*
D11*
X188053750Y-33748750D02*
X202153750Y-33748750D01*
X188053750Y-47848750D02*
X188053750Y-33748750D01*
X202153750Y-33748750D02*
X202153750Y-47848750D01*
X202153750Y-47848750D02*
X188053750Y-47848750D01*
D13*
X203503750Y-34798750D02*
X203503750Y-49598750D01*
X203503750Y-49598750D02*
X210503750Y-49598750D01*
X210503750Y-34798750D02*
X203503750Y-34798750D01*
X210503750Y-49598750D02*
X210503750Y-34798750D01*
D11*
X159493750Y-33748750D02*
X173593750Y-33748750D01*
X159493750Y-47848750D02*
X159493750Y-33748750D01*
X173593750Y-33748750D02*
X173593750Y-47848750D01*
X173593750Y-47848750D02*
X159493750Y-47848750D01*
X123760000Y-109948750D02*
X137860000Y-109948750D01*
X123760000Y-124048750D02*
X123760000Y-109948750D01*
X137860000Y-109948750D02*
X137860000Y-124048750D01*
X137860000Y-124048750D02*
X123760000Y-124048750D01*
D12*
X213031250Y-33337500D02*
G75*
G03*
X213031250Y-33337500I-1100000J0D01*
G01*
D11*
X121393750Y-33748750D02*
X135493750Y-33748750D01*
X121393750Y-47848750D02*
X121393750Y-33748750D01*
X135493750Y-33748750D02*
X135493750Y-47848750D01*
X135493750Y-47848750D02*
X121393750Y-47848750D01*
D13*
X172560000Y-91948750D02*
X179560000Y-91948750D01*
X172560000Y-106748750D02*
X172560000Y-91948750D01*
X179560000Y-91948750D02*
X179560000Y-106748750D01*
X179560000Y-106748750D02*
X172560000Y-106748750D01*
D11*
X180910000Y-90898750D02*
X195010000Y-90898750D01*
X180910000Y-104998750D02*
X180910000Y-90898750D01*
X195010000Y-90898750D02*
X195010000Y-104998750D01*
X195010000Y-104998750D02*
X180910000Y-104998750D01*
D13*
X196360000Y-91948750D02*
X196360000Y-106748750D01*
X196360000Y-106748750D02*
X203360000Y-106748750D01*
X203360000Y-91948750D02*
X196360000Y-91948750D01*
X203360000Y-106748750D02*
X203360000Y-91948750D01*
D11*
X76135000Y-109948750D02*
X90235000Y-109948750D01*
X76135000Y-124048750D02*
X76135000Y-109948750D01*
X90235000Y-109948750D02*
X90235000Y-124048750D01*
X90235000Y-124048750D02*
X76135000Y-124048750D01*
X73753750Y-52798750D02*
X87853750Y-52798750D01*
X73753750Y-66898750D02*
X73753750Y-52798750D01*
X87853750Y-52798750D02*
X87853750Y-66898750D01*
X87853750Y-66898750D02*
X73753750Y-66898750D01*
X54703750Y-109948750D02*
X68803750Y-109948750D01*
X54703750Y-124048750D02*
X54703750Y-109948750D01*
X68803750Y-109948750D02*
X68803750Y-124048750D01*
X68803750Y-124048750D02*
X54703750Y-124048750D01*
X145191250Y-90898750D02*
X159291250Y-90898750D01*
X145191250Y-104998750D02*
X145191250Y-90898750D01*
X159291250Y-90898750D02*
X159291250Y-104998750D01*
X159291250Y-104998750D02*
X145191250Y-104998750D01*
D12*
X110637500Y-69056250D02*
G75*
G03*
X110637500Y-69056250I-1100000J0D01*
G01*
D11*
X116616250Y-71848750D02*
X130716250Y-71848750D01*
X116616250Y-85948750D02*
X116616250Y-71848750D01*
X130716250Y-71848750D02*
X130716250Y-85948750D01*
X130716250Y-85948750D02*
X116616250Y-85948750D01*
D12*
X60631250Y-69056250D02*
G75*
G03*
X60631250Y-69056250I-1100000J0D01*
G01*
X213031250Y-107156250D02*
G75*
G03*
X213031250Y-107156250I-1100000J0D01*
G01*
X143975000Y-123825000D02*
G75*
G03*
X143975000Y-123825000I-1100000J0D01*
G01*
X96350000Y-123825000D02*
G75*
G03*
X96350000Y-123825000I-1100000J0D01*
G01*
D11*
X171385000Y-109948750D02*
X185485000Y-109948750D01*
X171385000Y-124048750D02*
X171385000Y-109948750D01*
X185485000Y-109948750D02*
X185485000Y-124048750D01*
X185485000Y-124048750D02*
X171385000Y-124048750D01*
X68991250Y-90898750D02*
X83091250Y-90898750D01*
X68991250Y-104998750D02*
X68991250Y-90898750D01*
X83091250Y-90898750D02*
X83091250Y-104998750D01*
X83091250Y-104998750D02*
X68991250Y-104998750D01*
X130903750Y-52798750D02*
X145003750Y-52798750D01*
X130903750Y-66898750D02*
X130903750Y-52798750D01*
X145003750Y-52798750D02*
X145003750Y-66898750D01*
X145003750Y-66898750D02*
X130903750Y-66898750D01*
X149953750Y-52798750D02*
X164053750Y-52798750D01*
X149953750Y-66898750D02*
X149953750Y-52798750D01*
X164053750Y-52798750D02*
X164053750Y-66898750D01*
X164053750Y-66898750D02*
X149953750Y-66898750D01*
X147572500Y-109948750D02*
X161672500Y-109948750D01*
X147572500Y-124048750D02*
X147572500Y-109948750D01*
X161672500Y-109948750D02*
X161672500Y-124048750D01*
X161672500Y-124048750D02*
X147572500Y-124048750D01*
X78516250Y-71848750D02*
X92616250Y-71848750D01*
X78516250Y-85948750D02*
X78516250Y-71848750D01*
X92616250Y-71848750D02*
X92616250Y-85948750D01*
X92616250Y-85948750D02*
X78516250Y-85948750D01*
M02*
