M48
; DRILL file {KiCad 7.0.7} date 2023 September 30, Saturday 17:43:05
; FORMAT={-:-/ absolute / metric / decimal}
; #@! TF.CreationDate,2023-09-30T17:43:05+09:00
; #@! TF.GenerationSoftware,Kicad,Pcbnew,7.0.7
; #@! TF.FileFunction,NonPlated,1,2,NPTH
FMAT,2
METRIC
; #@! TA.AperFunction,NonPlated,NPTH,ComponentDrill
T1C1.200
; #@! TA.AperFunction,NonPlated,NPTH,ComponentDrill
T2C1.800
; #@! TA.AperFunction,NonPlated,NPTH,ComponentDrill
T3C2.000
; #@! TA.AperFunction,NonPlated,NPTH,ComponentDrill
T4C2.200
; #@! TA.AperFunction,NonPlated,NPTH,ComponentDrill
T5C3.000
; #@! TA.AperFunction,NonPlated,NPTH,ComponentDrill
T6C3.050
; #@! TA.AperFunction,NonPlated,NPTH,ComponentDrill
T7C4.000
%
G90
G05
T1
X171.125Y-64.294
X178.125Y-64.294
T2
X40.164Y-90.487
X50.324Y-90.487
T3
X28.258Y-33.337
X30.639Y-109.537
X33.02Y-52.387
X35.401Y-71.438
X38.417Y-33.337
X40.799Y-109.537
X43.18Y-52.387
X45.561Y-71.438
X47.307Y-33.337
X54.451Y-109.537
X56.832Y-52.387
X57.467Y-33.337
X61.595Y-71.438
X64.611Y-109.537
X66.358Y-33.337
X66.992Y-52.387
X71.12Y-90.487
X71.755Y-71.438
X75.882Y-52.387
X76.517Y-33.337
X78.264Y-109.537
X80.645Y-71.438
X81.28Y-90.487
X85.407Y-33.337
X86.042Y-52.387
X88.424Y-109.537
X90.17Y-90.487
X90.805Y-71.438
X94.932Y-52.387
X95.567Y-33.337
X99.695Y-71.438
X100.33Y-90.487
X102.076Y-109.537
X104.457Y-33.337
X105.093Y-52.387
X109.22Y-90.487
X109.855Y-71.438
X112.236Y-109.537
X113.983Y-52.387
X114.617Y-33.337
X118.745Y-71.438
X119.38Y-90.487
X123.507Y-33.337
X124.142Y-52.387
X125.889Y-109.537
X128.27Y-90.487
X128.905Y-71.438
X133.032Y-52.387
X133.667Y-33.337
X136.049Y-109.537
X137.795Y-71.438
X138.43Y-90.487
X142.558Y-33.337
X143.192Y-52.387
X147.32Y-90.487
X147.32Y-109.537
X147.955Y-71.438
X152.718Y-33.337
X157.48Y-90.487
X157.48Y-109.537
X166.37Y-109.537
X176.53Y-109.537
T4
X26.194Y-47.625
X26.194Y-83.344
X26.194Y-116.681
X42.862Y-26.194
X71.438Y-116.681
X76.2Y-76.2
X80.962Y-26.194
X90.487Y-45.244
X114.3Y-76.2
X119.062Y-116.681
X138.112Y-26.194
X145.256Y-61.912
X149.625Y-44.625
X149.625Y-59.625
X154.625Y-78.625
X158.825Y-25.825
X159.544Y-100.012
X164.625Y-97.625
X178.625Y-97.625
X179.625Y-26.425
T5
X29.527Y-30.797
X31.909Y-106.997
X34.29Y-49.847
X35.877Y-28.258
X36.671Y-68.897
X38.259Y-104.457
X40.64Y-47.307
X41.434Y-87.947
X43.021Y-66.358
X47.784Y-85.407
X48.578Y-30.797
X54.927Y-28.258
X55.721Y-106.997
X58.102Y-49.847
X62.071Y-104.457
X62.865Y-68.897
X64.453Y-47.307
X67.627Y-30.797
X69.215Y-66.358
X72.39Y-87.947
X73.977Y-28.258
X77.153Y-49.847
X78.74Y-85.407
X79.534Y-106.997
X81.915Y-68.897
X83.502Y-47.307
X85.884Y-104.457
X86.677Y-30.797
X88.265Y-66.358
X91.44Y-87.947
X93.027Y-28.258
X96.203Y-49.847
X97.79Y-85.407
X100.965Y-68.897
X102.552Y-47.307
X103.346Y-106.997
X105.727Y-30.797
X107.315Y-66.358
X109.696Y-104.457
X110.49Y-87.947
X112.078Y-28.258
X115.252Y-49.847
X116.84Y-85.407
X120.015Y-68.897
X121.602Y-47.307
X124.777Y-30.797
X126.365Y-66.358
X127.159Y-106.997
X129.54Y-87.947
X131.127Y-28.258
X133.509Y-104.457
X134.302Y-49.847
X135.89Y-85.407
X139.065Y-68.897
X140.653Y-47.307
X143.827Y-30.797
X145.415Y-66.358
X148.59Y-87.947
X148.59Y-106.997
X150.177Y-28.258
X154.94Y-85.407
X154.94Y-104.457
X167.64Y-106.997
X173.99Y-104.457
T6
X33.344Y-83.487
X57.144Y-83.487
T7
X33.337Y-33.337
X33.344Y-98.727
X35.719Y-109.537
X38.1Y-52.387
X40.481Y-71.438
X45.244Y-90.487
X52.387Y-33.337
X57.144Y-98.727
X59.531Y-109.537
X61.912Y-52.387
X66.675Y-71.438
X71.438Y-33.337
X76.2Y-90.487
X80.962Y-52.387
X83.344Y-109.537
X85.725Y-71.438
X90.487Y-33.337
X95.25Y-90.487
X100.012Y-52.387
X104.775Y-71.438
X107.156Y-109.537
X109.537Y-33.337
X114.3Y-90.487
X119.062Y-52.387
X123.825Y-71.438
X128.588Y-33.337
X130.969Y-109.537
X133.35Y-90.487
X138.112Y-52.387
X142.875Y-71.438
X147.637Y-33.337
X152.4Y-90.487
X152.4Y-109.537
X171.45Y-109.537
T0
M30
