G04 #@! TF.GenerationSoftware,KiCad,Pcbnew,7.0.7*
G04 #@! TF.CreationDate,2023-09-30T17:43:00+09:00*
G04 #@! TF.ProjectId,ind-assemble_L,696e642d-6173-4736-956d-626c655f4c2e,rev?*
G04 #@! TF.SameCoordinates,Original*
G04 #@! TF.FileFunction,Legend,Top*
G04 #@! TF.FilePolarity,Positive*
%FSLAX46Y46*%
G04 Gerber Fmt 4.6, Leading zero omitted, Abs format (unit mm)*
G04 Created by KiCad (PCBNEW 7.0.7) date 2023-09-30 17:43:00*
%MOMM*%
%LPD*%
G01*
G04 APERTURE LIST*
%ADD10C,0.150000*%
%ADD11C,0.250000*%
%ADD12C,0.125000*%
%ADD13C,2.000000*%
%ADD14C,4.000000*%
%ADD15R,1.397000X1.397000*%
%ADD16C,1.397000*%
%ADD17C,1.524000*%
G04 APERTURE END LIST*
D10*
X175666541Y-94228152D02*
X175904636Y-94894819D01*
X175904636Y-94894819D02*
X176142731Y-94228152D01*
X177047493Y-94894819D02*
X176476065Y-94894819D01*
X176761779Y-94894819D02*
X176761779Y-93894819D01*
X176761779Y-93894819D02*
X176666541Y-94037676D01*
X176666541Y-94037676D02*
X176571303Y-94132914D01*
X176571303Y-94132914D02*
X176476065Y-94180533D01*
X177476065Y-94799580D02*
X177523684Y-94847200D01*
X177523684Y-94847200D02*
X177476065Y-94894819D01*
X177476065Y-94894819D02*
X177428446Y-94847200D01*
X177428446Y-94847200D02*
X177476065Y-94799580D01*
X177476065Y-94799580D02*
X177476065Y-94894819D01*
X178142731Y-93894819D02*
X178237969Y-93894819D01*
X178237969Y-93894819D02*
X178333207Y-93942438D01*
X178333207Y-93942438D02*
X178380826Y-93990057D01*
X178380826Y-93990057D02*
X178428445Y-94085295D01*
X178428445Y-94085295D02*
X178476064Y-94275771D01*
X178476064Y-94275771D02*
X178476064Y-94513866D01*
X178476064Y-94513866D02*
X178428445Y-94704342D01*
X178428445Y-94704342D02*
X178380826Y-94799580D01*
X178380826Y-94799580D02*
X178333207Y-94847200D01*
X178333207Y-94847200D02*
X178237969Y-94894819D01*
X178237969Y-94894819D02*
X178142731Y-94894819D01*
X178142731Y-94894819D02*
X178047493Y-94847200D01*
X178047493Y-94847200D02*
X177999874Y-94799580D01*
X177999874Y-94799580D02*
X177952255Y-94704342D01*
X177952255Y-94704342D02*
X177904636Y-94513866D01*
X177904636Y-94513866D02*
X177904636Y-94275771D01*
X177904636Y-94275771D02*
X177952255Y-94085295D01*
X177952255Y-94085295D02*
X177999874Y-93990057D01*
X177999874Y-93990057D02*
X178047493Y-93942438D01*
X178047493Y-93942438D02*
X178142731Y-93894819D01*
X167623684Y-96689700D02*
X167552255Y-96725414D01*
X167552255Y-96725414D02*
X167409398Y-96725414D01*
X167409398Y-96725414D02*
X167337969Y-96689700D01*
X167337969Y-96689700D02*
X167302255Y-96653985D01*
X167302255Y-96653985D02*
X167266541Y-96582557D01*
X167266541Y-96582557D02*
X167266541Y-96368271D01*
X167266541Y-96368271D02*
X167302255Y-96296842D01*
X167302255Y-96296842D02*
X167337969Y-96261128D01*
X167337969Y-96261128D02*
X167409398Y-96225414D01*
X167409398Y-96225414D02*
X167552255Y-96225414D01*
X167552255Y-96225414D02*
X167623684Y-96261128D01*
X167945112Y-96725414D02*
X167945112Y-96225414D01*
X167945112Y-96368271D02*
X167980826Y-96296842D01*
X167980826Y-96296842D02*
X168016541Y-96261128D01*
X168016541Y-96261128D02*
X168087969Y-96225414D01*
X168087969Y-96225414D02*
X168159398Y-96225414D01*
X168695112Y-96689700D02*
X168623684Y-96725414D01*
X168623684Y-96725414D02*
X168480827Y-96725414D01*
X168480827Y-96725414D02*
X168409398Y-96689700D01*
X168409398Y-96689700D02*
X168373684Y-96618271D01*
X168373684Y-96618271D02*
X168373684Y-96332557D01*
X168373684Y-96332557D02*
X168409398Y-96261128D01*
X168409398Y-96261128D02*
X168480827Y-96225414D01*
X168480827Y-96225414D02*
X168623684Y-96225414D01*
X168623684Y-96225414D02*
X168695112Y-96261128D01*
X168695112Y-96261128D02*
X168730827Y-96332557D01*
X168730827Y-96332557D02*
X168730827Y-96403985D01*
X168730827Y-96403985D02*
X168373684Y-96475414D01*
X169373684Y-96725414D02*
X169373684Y-96332557D01*
X169373684Y-96332557D02*
X169337969Y-96261128D01*
X169337969Y-96261128D02*
X169266541Y-96225414D01*
X169266541Y-96225414D02*
X169123684Y-96225414D01*
X169123684Y-96225414D02*
X169052255Y-96261128D01*
X169373684Y-96689700D02*
X169302255Y-96725414D01*
X169302255Y-96725414D02*
X169123684Y-96725414D01*
X169123684Y-96725414D02*
X169052255Y-96689700D01*
X169052255Y-96689700D02*
X169016541Y-96618271D01*
X169016541Y-96618271D02*
X169016541Y-96546842D01*
X169016541Y-96546842D02*
X169052255Y-96475414D01*
X169052255Y-96475414D02*
X169123684Y-96439700D01*
X169123684Y-96439700D02*
X169302255Y-96439700D01*
X169302255Y-96439700D02*
X169373684Y-96403985D01*
X169623683Y-96225414D02*
X169909397Y-96225414D01*
X169730826Y-95975414D02*
X169730826Y-96618271D01*
X169730826Y-96618271D02*
X169766540Y-96689700D01*
X169766540Y-96689700D02*
X169837969Y-96725414D01*
X169837969Y-96725414D02*
X169909397Y-96725414D01*
X170445111Y-96689700D02*
X170373683Y-96725414D01*
X170373683Y-96725414D02*
X170230826Y-96725414D01*
X170230826Y-96725414D02*
X170159397Y-96689700D01*
X170159397Y-96689700D02*
X170123683Y-96618271D01*
X170123683Y-96618271D02*
X170123683Y-96332557D01*
X170123683Y-96332557D02*
X170159397Y-96261128D01*
X170159397Y-96261128D02*
X170230826Y-96225414D01*
X170230826Y-96225414D02*
X170373683Y-96225414D01*
X170373683Y-96225414D02*
X170445111Y-96261128D01*
X170445111Y-96261128D02*
X170480826Y-96332557D01*
X170480826Y-96332557D02*
X170480826Y-96403985D01*
X170480826Y-96403985D02*
X170123683Y-96475414D01*
X171123683Y-96725414D02*
X171123683Y-95975414D01*
X171123683Y-96689700D02*
X171052254Y-96725414D01*
X171052254Y-96725414D02*
X170909397Y-96725414D01*
X170909397Y-96725414D02*
X170837968Y-96689700D01*
X170837968Y-96689700D02*
X170802254Y-96653985D01*
X170802254Y-96653985D02*
X170766540Y-96582557D01*
X170766540Y-96582557D02*
X170766540Y-96368271D01*
X170766540Y-96368271D02*
X170802254Y-96296842D01*
X170802254Y-96296842D02*
X170837968Y-96261128D01*
X170837968Y-96261128D02*
X170909397Y-96225414D01*
X170909397Y-96225414D02*
X171052254Y-96225414D01*
X171052254Y-96225414D02*
X171123683Y-96261128D01*
X172052254Y-96725414D02*
X172052254Y-95975414D01*
X172052254Y-96261128D02*
X172123683Y-96225414D01*
X172123683Y-96225414D02*
X172266540Y-96225414D01*
X172266540Y-96225414D02*
X172337968Y-96261128D01*
X172337968Y-96261128D02*
X172373683Y-96296842D01*
X172373683Y-96296842D02*
X172409397Y-96368271D01*
X172409397Y-96368271D02*
X172409397Y-96582557D01*
X172409397Y-96582557D02*
X172373683Y-96653985D01*
X172373683Y-96653985D02*
X172337968Y-96689700D01*
X172337968Y-96689700D02*
X172266540Y-96725414D01*
X172266540Y-96725414D02*
X172123683Y-96725414D01*
X172123683Y-96725414D02*
X172052254Y-96689700D01*
X172659396Y-96225414D02*
X172837968Y-96725414D01*
X173016539Y-96225414D02*
X172837968Y-96725414D01*
X172837968Y-96725414D02*
X172766539Y-96903985D01*
X172766539Y-96903985D02*
X172730825Y-96939700D01*
X172730825Y-96939700D02*
X172659396Y-96975414D01*
X173766540Y-96225414D02*
X174052254Y-96225414D01*
X173873683Y-95975414D02*
X173873683Y-96618271D01*
X173873683Y-96618271D02*
X173909397Y-96689700D01*
X173909397Y-96689700D02*
X173980826Y-96725414D01*
X173980826Y-96725414D02*
X174052254Y-96725414D01*
X174409397Y-96725414D02*
X174337968Y-96689700D01*
X174337968Y-96689700D02*
X174302254Y-96653985D01*
X174302254Y-96653985D02*
X174266540Y-96582557D01*
X174266540Y-96582557D02*
X174266540Y-96368271D01*
X174266540Y-96368271D02*
X174302254Y-96296842D01*
X174302254Y-96296842D02*
X174337968Y-96261128D01*
X174337968Y-96261128D02*
X174409397Y-96225414D01*
X174409397Y-96225414D02*
X174516540Y-96225414D01*
X174516540Y-96225414D02*
X174587968Y-96261128D01*
X174587968Y-96261128D02*
X174623683Y-96296842D01*
X174623683Y-96296842D02*
X174659397Y-96368271D01*
X174659397Y-96368271D02*
X174659397Y-96582557D01*
X174659397Y-96582557D02*
X174623683Y-96653985D01*
X174623683Y-96653985D02*
X174587968Y-96689700D01*
X174587968Y-96689700D02*
X174516540Y-96725414D01*
X174516540Y-96725414D02*
X174409397Y-96725414D01*
X174945111Y-96689700D02*
X175016539Y-96725414D01*
X175016539Y-96725414D02*
X175159396Y-96725414D01*
X175159396Y-96725414D02*
X175230825Y-96689700D01*
X175230825Y-96689700D02*
X175266539Y-96618271D01*
X175266539Y-96618271D02*
X175266539Y-96582557D01*
X175266539Y-96582557D02*
X175230825Y-96511128D01*
X175230825Y-96511128D02*
X175159396Y-96475414D01*
X175159396Y-96475414D02*
X175052254Y-96475414D01*
X175052254Y-96475414D02*
X174980825Y-96439700D01*
X174980825Y-96439700D02*
X174945111Y-96368271D01*
X174945111Y-96368271D02*
X174945111Y-96332557D01*
X174945111Y-96332557D02*
X174980825Y-96261128D01*
X174980825Y-96261128D02*
X175052254Y-96225414D01*
X175052254Y-96225414D02*
X175159396Y-96225414D01*
X175159396Y-96225414D02*
X175230825Y-96261128D01*
X175587968Y-96725414D02*
X175587968Y-95975414D01*
X175909397Y-96725414D02*
X175909397Y-96332557D01*
X175909397Y-96332557D02*
X175873682Y-96261128D01*
X175873682Y-96261128D02*
X175802254Y-96225414D01*
X175802254Y-96225414D02*
X175695111Y-96225414D01*
X175695111Y-96225414D02*
X175623682Y-96261128D01*
X175623682Y-96261128D02*
X175587968Y-96296842D01*
X176266539Y-96725414D02*
X176266539Y-96225414D01*
X176266539Y-95975414D02*
X176230825Y-96011128D01*
X176230825Y-96011128D02*
X176266539Y-96046842D01*
X176266539Y-96046842D02*
X176302253Y-96011128D01*
X176302253Y-96011128D02*
X176266539Y-95975414D01*
X176266539Y-95975414D02*
X176266539Y-96046842D01*
D11*
X166546615Y-94828428D02*
X166546615Y-93828428D01*
X166546615Y-93328428D02*
X166475187Y-93399857D01*
X166475187Y-93399857D02*
X166546615Y-93471285D01*
X166546615Y-93471285D02*
X166618044Y-93399857D01*
X166618044Y-93399857D02*
X166546615Y-93328428D01*
X166546615Y-93328428D02*
X166546615Y-93471285D01*
X167260901Y-93828428D02*
X167260901Y-94828428D01*
X167260901Y-93971285D02*
X167332330Y-93899857D01*
X167332330Y-93899857D02*
X167475187Y-93828428D01*
X167475187Y-93828428D02*
X167689473Y-93828428D01*
X167689473Y-93828428D02*
X167832330Y-93899857D01*
X167832330Y-93899857D02*
X167903759Y-94042714D01*
X167903759Y-94042714D02*
X167903759Y-94828428D01*
X169260902Y-94828428D02*
X169260902Y-93328428D01*
X169260902Y-94757000D02*
X169118044Y-94828428D01*
X169118044Y-94828428D02*
X168832330Y-94828428D01*
X168832330Y-94828428D02*
X168689473Y-94757000D01*
X168689473Y-94757000D02*
X168618044Y-94685571D01*
X168618044Y-94685571D02*
X168546616Y-94542714D01*
X168546616Y-94542714D02*
X168546616Y-94114142D01*
X168546616Y-94114142D02*
X168618044Y-93971285D01*
X168618044Y-93971285D02*
X168689473Y-93899857D01*
X168689473Y-93899857D02*
X168832330Y-93828428D01*
X168832330Y-93828428D02*
X169118044Y-93828428D01*
X169118044Y-93828428D02*
X169260902Y-93899857D01*
X169832330Y-93328428D02*
X170760902Y-93328428D01*
X170760902Y-93328428D02*
X170260902Y-93899857D01*
X170260902Y-93899857D02*
X170475187Y-93899857D01*
X170475187Y-93899857D02*
X170618045Y-93971285D01*
X170618045Y-93971285D02*
X170689473Y-94042714D01*
X170689473Y-94042714D02*
X170760902Y-94185571D01*
X170760902Y-94185571D02*
X170760902Y-94542714D01*
X170760902Y-94542714D02*
X170689473Y-94685571D01*
X170689473Y-94685571D02*
X170618045Y-94757000D01*
X170618045Y-94757000D02*
X170475187Y-94828428D01*
X170475187Y-94828428D02*
X170046616Y-94828428D01*
X170046616Y-94828428D02*
X169903759Y-94757000D01*
X169903759Y-94757000D02*
X169832330Y-94685571D01*
X171332330Y-93471285D02*
X171403758Y-93399857D01*
X171403758Y-93399857D02*
X171546616Y-93328428D01*
X171546616Y-93328428D02*
X171903758Y-93328428D01*
X171903758Y-93328428D02*
X172046616Y-93399857D01*
X172046616Y-93399857D02*
X172118044Y-93471285D01*
X172118044Y-93471285D02*
X172189473Y-93614142D01*
X172189473Y-93614142D02*
X172189473Y-93757000D01*
X172189473Y-93757000D02*
X172118044Y-93971285D01*
X172118044Y-93971285D02*
X171260901Y-94828428D01*
X171260901Y-94828428D02*
X172189473Y-94828428D01*
X172689472Y-93328428D02*
X173618044Y-93328428D01*
X173618044Y-93328428D02*
X173118044Y-93899857D01*
X173118044Y-93899857D02*
X173332329Y-93899857D01*
X173332329Y-93899857D02*
X173475187Y-93971285D01*
X173475187Y-93971285D02*
X173546615Y-94042714D01*
X173546615Y-94042714D02*
X173618044Y-94185571D01*
X173618044Y-94185571D02*
X173618044Y-94542714D01*
X173618044Y-94542714D02*
X173546615Y-94685571D01*
X173546615Y-94685571D02*
X173475187Y-94757000D01*
X173475187Y-94757000D02*
X173332329Y-94828428D01*
X173332329Y-94828428D02*
X172903758Y-94828428D01*
X172903758Y-94828428D02*
X172760901Y-94757000D01*
X172760901Y-94757000D02*
X172689472Y-94685571D01*
X174903758Y-93328428D02*
X174618043Y-93328428D01*
X174618043Y-93328428D02*
X174475186Y-93399857D01*
X174475186Y-93399857D02*
X174403758Y-93471285D01*
X174403758Y-93471285D02*
X174260900Y-93685571D01*
X174260900Y-93685571D02*
X174189472Y-93971285D01*
X174189472Y-93971285D02*
X174189472Y-94542714D01*
X174189472Y-94542714D02*
X174260900Y-94685571D01*
X174260900Y-94685571D02*
X174332329Y-94757000D01*
X174332329Y-94757000D02*
X174475186Y-94828428D01*
X174475186Y-94828428D02*
X174760900Y-94828428D01*
X174760900Y-94828428D02*
X174903758Y-94757000D01*
X174903758Y-94757000D02*
X174975186Y-94685571D01*
X174975186Y-94685571D02*
X175046615Y-94542714D01*
X175046615Y-94542714D02*
X175046615Y-94185571D01*
X175046615Y-94185571D02*
X174975186Y-94042714D01*
X174975186Y-94042714D02*
X174903758Y-93971285D01*
X174903758Y-93971285D02*
X174760900Y-93899857D01*
X174760900Y-93899857D02*
X174475186Y-93899857D01*
X174475186Y-93899857D02*
X174332329Y-93971285D01*
X174332329Y-93971285D02*
X174260900Y-94042714D01*
X174260900Y-94042714D02*
X174189472Y-94185571D01*
D10*
X68342261Y-40904819D02*
X67866071Y-40904819D01*
X67866071Y-40904819D02*
X67866071Y-39904819D01*
X68675595Y-40904819D02*
X68675595Y-40238152D01*
X68675595Y-39904819D02*
X68627976Y-39952438D01*
X68627976Y-39952438D02*
X68675595Y-40000057D01*
X68675595Y-40000057D02*
X68723214Y-39952438D01*
X68723214Y-39952438D02*
X68675595Y-39904819D01*
X68675595Y-39904819D02*
X68675595Y-40000057D01*
X69580356Y-40238152D02*
X69580356Y-41047676D01*
X69580356Y-41047676D02*
X69532737Y-41142914D01*
X69532737Y-41142914D02*
X69485118Y-41190533D01*
X69485118Y-41190533D02*
X69389880Y-41238152D01*
X69389880Y-41238152D02*
X69247023Y-41238152D01*
X69247023Y-41238152D02*
X69151785Y-41190533D01*
X69580356Y-40857200D02*
X69485118Y-40904819D01*
X69485118Y-40904819D02*
X69294642Y-40904819D01*
X69294642Y-40904819D02*
X69199404Y-40857200D01*
X69199404Y-40857200D02*
X69151785Y-40809580D01*
X69151785Y-40809580D02*
X69104166Y-40714342D01*
X69104166Y-40714342D02*
X69104166Y-40428628D01*
X69104166Y-40428628D02*
X69151785Y-40333390D01*
X69151785Y-40333390D02*
X69199404Y-40285771D01*
X69199404Y-40285771D02*
X69294642Y-40238152D01*
X69294642Y-40238152D02*
X69485118Y-40238152D01*
X69485118Y-40238152D02*
X69580356Y-40285771D01*
X70056547Y-40904819D02*
X70056547Y-39904819D01*
X70485118Y-40904819D02*
X70485118Y-40381009D01*
X70485118Y-40381009D02*
X70437499Y-40285771D01*
X70437499Y-40285771D02*
X70342261Y-40238152D01*
X70342261Y-40238152D02*
X70199404Y-40238152D01*
X70199404Y-40238152D02*
X70104166Y-40285771D01*
X70104166Y-40285771D02*
X70056547Y-40333390D01*
X70818452Y-40238152D02*
X71199404Y-40238152D01*
X70961309Y-39904819D02*
X70961309Y-40761961D01*
X70961309Y-40761961D02*
X71008928Y-40857200D01*
X71008928Y-40857200D02*
X71104166Y-40904819D01*
X71104166Y-40904819D02*
X71199404Y-40904819D01*
X72247024Y-40857200D02*
X72389881Y-40904819D01*
X72389881Y-40904819D02*
X72627976Y-40904819D01*
X72627976Y-40904819D02*
X72723214Y-40857200D01*
X72723214Y-40857200D02*
X72770833Y-40809580D01*
X72770833Y-40809580D02*
X72818452Y-40714342D01*
X72818452Y-40714342D02*
X72818452Y-40619104D01*
X72818452Y-40619104D02*
X72770833Y-40523866D01*
X72770833Y-40523866D02*
X72723214Y-40476247D01*
X72723214Y-40476247D02*
X72627976Y-40428628D01*
X72627976Y-40428628D02*
X72437500Y-40381009D01*
X72437500Y-40381009D02*
X72342262Y-40333390D01*
X72342262Y-40333390D02*
X72294643Y-40285771D01*
X72294643Y-40285771D02*
X72247024Y-40190533D01*
X72247024Y-40190533D02*
X72247024Y-40095295D01*
X72247024Y-40095295D02*
X72294643Y-40000057D01*
X72294643Y-40000057D02*
X72342262Y-39952438D01*
X72342262Y-39952438D02*
X72437500Y-39904819D01*
X72437500Y-39904819D02*
X72675595Y-39904819D01*
X72675595Y-39904819D02*
X72818452Y-39952438D01*
X73247024Y-40904819D02*
X73247024Y-40238152D01*
X73247024Y-39904819D02*
X73199405Y-39952438D01*
X73199405Y-39952438D02*
X73247024Y-40000057D01*
X73247024Y-40000057D02*
X73294643Y-39952438D01*
X73294643Y-39952438D02*
X73247024Y-39904819D01*
X73247024Y-39904819D02*
X73247024Y-40000057D01*
X74151785Y-40904819D02*
X74151785Y-39904819D01*
X74151785Y-40857200D02*
X74056547Y-40904819D01*
X74056547Y-40904819D02*
X73866071Y-40904819D01*
X73866071Y-40904819D02*
X73770833Y-40857200D01*
X73770833Y-40857200D02*
X73723214Y-40809580D01*
X73723214Y-40809580D02*
X73675595Y-40714342D01*
X73675595Y-40714342D02*
X73675595Y-40428628D01*
X73675595Y-40428628D02*
X73723214Y-40333390D01*
X73723214Y-40333390D02*
X73770833Y-40285771D01*
X73770833Y-40285771D02*
X73866071Y-40238152D01*
X73866071Y-40238152D02*
X74056547Y-40238152D01*
X74056547Y-40238152D02*
X74151785Y-40285771D01*
X75008928Y-40857200D02*
X74913690Y-40904819D01*
X74913690Y-40904819D02*
X74723214Y-40904819D01*
X74723214Y-40904819D02*
X74627976Y-40857200D01*
X74627976Y-40857200D02*
X74580357Y-40761961D01*
X74580357Y-40761961D02*
X74580357Y-40381009D01*
X74580357Y-40381009D02*
X74627976Y-40285771D01*
X74627976Y-40285771D02*
X74723214Y-40238152D01*
X74723214Y-40238152D02*
X74913690Y-40238152D01*
X74913690Y-40238152D02*
X75008928Y-40285771D01*
X75008928Y-40285771D02*
X75056547Y-40381009D01*
X75056547Y-40381009D02*
X75056547Y-40476247D01*
X75056547Y-40476247D02*
X74580357Y-40571485D01*
X120511011Y-79754819D02*
X120034821Y-79754819D01*
X120034821Y-79754819D02*
X120034821Y-78754819D01*
X120844345Y-79754819D02*
X120844345Y-79088152D01*
X120844345Y-78754819D02*
X120796726Y-78802438D01*
X120796726Y-78802438D02*
X120844345Y-78850057D01*
X120844345Y-78850057D02*
X120891964Y-78802438D01*
X120891964Y-78802438D02*
X120844345Y-78754819D01*
X120844345Y-78754819D02*
X120844345Y-78850057D01*
X121749106Y-79088152D02*
X121749106Y-79897676D01*
X121749106Y-79897676D02*
X121701487Y-79992914D01*
X121701487Y-79992914D02*
X121653868Y-80040533D01*
X121653868Y-80040533D02*
X121558630Y-80088152D01*
X121558630Y-80088152D02*
X121415773Y-80088152D01*
X121415773Y-80088152D02*
X121320535Y-80040533D01*
X121749106Y-79707200D02*
X121653868Y-79754819D01*
X121653868Y-79754819D02*
X121463392Y-79754819D01*
X121463392Y-79754819D02*
X121368154Y-79707200D01*
X121368154Y-79707200D02*
X121320535Y-79659580D01*
X121320535Y-79659580D02*
X121272916Y-79564342D01*
X121272916Y-79564342D02*
X121272916Y-79278628D01*
X121272916Y-79278628D02*
X121320535Y-79183390D01*
X121320535Y-79183390D02*
X121368154Y-79135771D01*
X121368154Y-79135771D02*
X121463392Y-79088152D01*
X121463392Y-79088152D02*
X121653868Y-79088152D01*
X121653868Y-79088152D02*
X121749106Y-79135771D01*
X122225297Y-79754819D02*
X122225297Y-78754819D01*
X122653868Y-79754819D02*
X122653868Y-79231009D01*
X122653868Y-79231009D02*
X122606249Y-79135771D01*
X122606249Y-79135771D02*
X122511011Y-79088152D01*
X122511011Y-79088152D02*
X122368154Y-79088152D01*
X122368154Y-79088152D02*
X122272916Y-79135771D01*
X122272916Y-79135771D02*
X122225297Y-79183390D01*
X122987202Y-79088152D02*
X123368154Y-79088152D01*
X123130059Y-78754819D02*
X123130059Y-79611961D01*
X123130059Y-79611961D02*
X123177678Y-79707200D01*
X123177678Y-79707200D02*
X123272916Y-79754819D01*
X123272916Y-79754819D02*
X123368154Y-79754819D01*
X124415774Y-79707200D02*
X124558631Y-79754819D01*
X124558631Y-79754819D02*
X124796726Y-79754819D01*
X124796726Y-79754819D02*
X124891964Y-79707200D01*
X124891964Y-79707200D02*
X124939583Y-79659580D01*
X124939583Y-79659580D02*
X124987202Y-79564342D01*
X124987202Y-79564342D02*
X124987202Y-79469104D01*
X124987202Y-79469104D02*
X124939583Y-79373866D01*
X124939583Y-79373866D02*
X124891964Y-79326247D01*
X124891964Y-79326247D02*
X124796726Y-79278628D01*
X124796726Y-79278628D02*
X124606250Y-79231009D01*
X124606250Y-79231009D02*
X124511012Y-79183390D01*
X124511012Y-79183390D02*
X124463393Y-79135771D01*
X124463393Y-79135771D02*
X124415774Y-79040533D01*
X124415774Y-79040533D02*
X124415774Y-78945295D01*
X124415774Y-78945295D02*
X124463393Y-78850057D01*
X124463393Y-78850057D02*
X124511012Y-78802438D01*
X124511012Y-78802438D02*
X124606250Y-78754819D01*
X124606250Y-78754819D02*
X124844345Y-78754819D01*
X124844345Y-78754819D02*
X124987202Y-78802438D01*
X125415774Y-79754819D02*
X125415774Y-79088152D01*
X125415774Y-78754819D02*
X125368155Y-78802438D01*
X125368155Y-78802438D02*
X125415774Y-78850057D01*
X125415774Y-78850057D02*
X125463393Y-78802438D01*
X125463393Y-78802438D02*
X125415774Y-78754819D01*
X125415774Y-78754819D02*
X125415774Y-78850057D01*
X126320535Y-79754819D02*
X126320535Y-78754819D01*
X126320535Y-79707200D02*
X126225297Y-79754819D01*
X126225297Y-79754819D02*
X126034821Y-79754819D01*
X126034821Y-79754819D02*
X125939583Y-79707200D01*
X125939583Y-79707200D02*
X125891964Y-79659580D01*
X125891964Y-79659580D02*
X125844345Y-79564342D01*
X125844345Y-79564342D02*
X125844345Y-79278628D01*
X125844345Y-79278628D02*
X125891964Y-79183390D01*
X125891964Y-79183390D02*
X125939583Y-79135771D01*
X125939583Y-79135771D02*
X126034821Y-79088152D01*
X126034821Y-79088152D02*
X126225297Y-79088152D01*
X126225297Y-79088152D02*
X126320535Y-79135771D01*
X127177678Y-79707200D02*
X127082440Y-79754819D01*
X127082440Y-79754819D02*
X126891964Y-79754819D01*
X126891964Y-79754819D02*
X126796726Y-79707200D01*
X126796726Y-79707200D02*
X126749107Y-79611961D01*
X126749107Y-79611961D02*
X126749107Y-79231009D01*
X126749107Y-79231009D02*
X126796726Y-79135771D01*
X126796726Y-79135771D02*
X126891964Y-79088152D01*
X126891964Y-79088152D02*
X127082440Y-79088152D01*
X127082440Y-79088152D02*
X127177678Y-79135771D01*
X127177678Y-79135771D02*
X127225297Y-79231009D01*
X127225297Y-79231009D02*
X127225297Y-79326247D01*
X127225297Y-79326247D02*
X126749107Y-79421485D01*
X56534761Y-92542319D02*
X56058571Y-92542319D01*
X56058571Y-92542319D02*
X56058571Y-91542319D01*
X56868095Y-92542319D02*
X56868095Y-91875652D01*
X56868095Y-91542319D02*
X56820476Y-91589938D01*
X56820476Y-91589938D02*
X56868095Y-91637557D01*
X56868095Y-91637557D02*
X56915714Y-91589938D01*
X56915714Y-91589938D02*
X56868095Y-91542319D01*
X56868095Y-91542319D02*
X56868095Y-91637557D01*
X57772856Y-91875652D02*
X57772856Y-92685176D01*
X57772856Y-92685176D02*
X57725237Y-92780414D01*
X57725237Y-92780414D02*
X57677618Y-92828033D01*
X57677618Y-92828033D02*
X57582380Y-92875652D01*
X57582380Y-92875652D02*
X57439523Y-92875652D01*
X57439523Y-92875652D02*
X57344285Y-92828033D01*
X57772856Y-92494700D02*
X57677618Y-92542319D01*
X57677618Y-92542319D02*
X57487142Y-92542319D01*
X57487142Y-92542319D02*
X57391904Y-92494700D01*
X57391904Y-92494700D02*
X57344285Y-92447080D01*
X57344285Y-92447080D02*
X57296666Y-92351842D01*
X57296666Y-92351842D02*
X57296666Y-92066128D01*
X57296666Y-92066128D02*
X57344285Y-91970890D01*
X57344285Y-91970890D02*
X57391904Y-91923271D01*
X57391904Y-91923271D02*
X57487142Y-91875652D01*
X57487142Y-91875652D02*
X57677618Y-91875652D01*
X57677618Y-91875652D02*
X57772856Y-91923271D01*
X58249047Y-92542319D02*
X58249047Y-91542319D01*
X58677618Y-92542319D02*
X58677618Y-92018509D01*
X58677618Y-92018509D02*
X58629999Y-91923271D01*
X58629999Y-91923271D02*
X58534761Y-91875652D01*
X58534761Y-91875652D02*
X58391904Y-91875652D01*
X58391904Y-91875652D02*
X58296666Y-91923271D01*
X58296666Y-91923271D02*
X58249047Y-91970890D01*
X59010952Y-91875652D02*
X59391904Y-91875652D01*
X59153809Y-91542319D02*
X59153809Y-92399461D01*
X59153809Y-92399461D02*
X59201428Y-92494700D01*
X59201428Y-92494700D02*
X59296666Y-92542319D01*
X59296666Y-92542319D02*
X59391904Y-92542319D01*
X60439524Y-92494700D02*
X60582381Y-92542319D01*
X60582381Y-92542319D02*
X60820476Y-92542319D01*
X60820476Y-92542319D02*
X60915714Y-92494700D01*
X60915714Y-92494700D02*
X60963333Y-92447080D01*
X60963333Y-92447080D02*
X61010952Y-92351842D01*
X61010952Y-92351842D02*
X61010952Y-92256604D01*
X61010952Y-92256604D02*
X60963333Y-92161366D01*
X60963333Y-92161366D02*
X60915714Y-92113747D01*
X60915714Y-92113747D02*
X60820476Y-92066128D01*
X60820476Y-92066128D02*
X60630000Y-92018509D01*
X60630000Y-92018509D02*
X60534762Y-91970890D01*
X60534762Y-91970890D02*
X60487143Y-91923271D01*
X60487143Y-91923271D02*
X60439524Y-91828033D01*
X60439524Y-91828033D02*
X60439524Y-91732795D01*
X60439524Y-91732795D02*
X60487143Y-91637557D01*
X60487143Y-91637557D02*
X60534762Y-91589938D01*
X60534762Y-91589938D02*
X60630000Y-91542319D01*
X60630000Y-91542319D02*
X60868095Y-91542319D01*
X60868095Y-91542319D02*
X61010952Y-91589938D01*
X61439524Y-92542319D02*
X61439524Y-91875652D01*
X61439524Y-91542319D02*
X61391905Y-91589938D01*
X61391905Y-91589938D02*
X61439524Y-91637557D01*
X61439524Y-91637557D02*
X61487143Y-91589938D01*
X61487143Y-91589938D02*
X61439524Y-91542319D01*
X61439524Y-91542319D02*
X61439524Y-91637557D01*
X62344285Y-92542319D02*
X62344285Y-91542319D01*
X62344285Y-92494700D02*
X62249047Y-92542319D01*
X62249047Y-92542319D02*
X62058571Y-92542319D01*
X62058571Y-92542319D02*
X61963333Y-92494700D01*
X61963333Y-92494700D02*
X61915714Y-92447080D01*
X61915714Y-92447080D02*
X61868095Y-92351842D01*
X61868095Y-92351842D02*
X61868095Y-92066128D01*
X61868095Y-92066128D02*
X61915714Y-91970890D01*
X61915714Y-91970890D02*
X61963333Y-91923271D01*
X61963333Y-91923271D02*
X62058571Y-91875652D01*
X62058571Y-91875652D02*
X62249047Y-91875652D01*
X62249047Y-91875652D02*
X62344285Y-91923271D01*
X63201428Y-92494700D02*
X63106190Y-92542319D01*
X63106190Y-92542319D02*
X62915714Y-92542319D01*
X62915714Y-92542319D02*
X62820476Y-92494700D01*
X62820476Y-92494700D02*
X62772857Y-92399461D01*
X62772857Y-92399461D02*
X62772857Y-92018509D01*
X62772857Y-92018509D02*
X62820476Y-91923271D01*
X62820476Y-91923271D02*
X62915714Y-91875652D01*
X62915714Y-91875652D02*
X63106190Y-91875652D01*
X63106190Y-91875652D02*
X63201428Y-91923271D01*
X63201428Y-91923271D02*
X63249047Y-92018509D01*
X63249047Y-92018509D02*
X63249047Y-92113747D01*
X63249047Y-92113747D02*
X62772857Y-92208985D01*
X125492261Y-42536069D02*
X125016071Y-42536069D01*
X125016071Y-42536069D02*
X125016071Y-41536069D01*
X125825595Y-42536069D02*
X125825595Y-41869402D01*
X125825595Y-41536069D02*
X125777976Y-41583688D01*
X125777976Y-41583688D02*
X125825595Y-41631307D01*
X125825595Y-41631307D02*
X125873214Y-41583688D01*
X125873214Y-41583688D02*
X125825595Y-41536069D01*
X125825595Y-41536069D02*
X125825595Y-41631307D01*
X126730356Y-41869402D02*
X126730356Y-42678926D01*
X126730356Y-42678926D02*
X126682737Y-42774164D01*
X126682737Y-42774164D02*
X126635118Y-42821783D01*
X126635118Y-42821783D02*
X126539880Y-42869402D01*
X126539880Y-42869402D02*
X126397023Y-42869402D01*
X126397023Y-42869402D02*
X126301785Y-42821783D01*
X126730356Y-42488450D02*
X126635118Y-42536069D01*
X126635118Y-42536069D02*
X126444642Y-42536069D01*
X126444642Y-42536069D02*
X126349404Y-42488450D01*
X126349404Y-42488450D02*
X126301785Y-42440830D01*
X126301785Y-42440830D02*
X126254166Y-42345592D01*
X126254166Y-42345592D02*
X126254166Y-42059878D01*
X126254166Y-42059878D02*
X126301785Y-41964640D01*
X126301785Y-41964640D02*
X126349404Y-41917021D01*
X126349404Y-41917021D02*
X126444642Y-41869402D01*
X126444642Y-41869402D02*
X126635118Y-41869402D01*
X126635118Y-41869402D02*
X126730356Y-41917021D01*
X127206547Y-42536069D02*
X127206547Y-41536069D01*
X127635118Y-42536069D02*
X127635118Y-42012259D01*
X127635118Y-42012259D02*
X127587499Y-41917021D01*
X127587499Y-41917021D02*
X127492261Y-41869402D01*
X127492261Y-41869402D02*
X127349404Y-41869402D01*
X127349404Y-41869402D02*
X127254166Y-41917021D01*
X127254166Y-41917021D02*
X127206547Y-41964640D01*
X127968452Y-41869402D02*
X128349404Y-41869402D01*
X128111309Y-41536069D02*
X128111309Y-42393211D01*
X128111309Y-42393211D02*
X128158928Y-42488450D01*
X128158928Y-42488450D02*
X128254166Y-42536069D01*
X128254166Y-42536069D02*
X128349404Y-42536069D01*
X129397024Y-42488450D02*
X129539881Y-42536069D01*
X129539881Y-42536069D02*
X129777976Y-42536069D01*
X129777976Y-42536069D02*
X129873214Y-42488450D01*
X129873214Y-42488450D02*
X129920833Y-42440830D01*
X129920833Y-42440830D02*
X129968452Y-42345592D01*
X129968452Y-42345592D02*
X129968452Y-42250354D01*
X129968452Y-42250354D02*
X129920833Y-42155116D01*
X129920833Y-42155116D02*
X129873214Y-42107497D01*
X129873214Y-42107497D02*
X129777976Y-42059878D01*
X129777976Y-42059878D02*
X129587500Y-42012259D01*
X129587500Y-42012259D02*
X129492262Y-41964640D01*
X129492262Y-41964640D02*
X129444643Y-41917021D01*
X129444643Y-41917021D02*
X129397024Y-41821783D01*
X129397024Y-41821783D02*
X129397024Y-41726545D01*
X129397024Y-41726545D02*
X129444643Y-41631307D01*
X129444643Y-41631307D02*
X129492262Y-41583688D01*
X129492262Y-41583688D02*
X129587500Y-41536069D01*
X129587500Y-41536069D02*
X129825595Y-41536069D01*
X129825595Y-41536069D02*
X129968452Y-41583688D01*
X130397024Y-42536069D02*
X130397024Y-41869402D01*
X130397024Y-41536069D02*
X130349405Y-41583688D01*
X130349405Y-41583688D02*
X130397024Y-41631307D01*
X130397024Y-41631307D02*
X130444643Y-41583688D01*
X130444643Y-41583688D02*
X130397024Y-41536069D01*
X130397024Y-41536069D02*
X130397024Y-41631307D01*
X131301785Y-42536069D02*
X131301785Y-41536069D01*
X131301785Y-42488450D02*
X131206547Y-42536069D01*
X131206547Y-42536069D02*
X131016071Y-42536069D01*
X131016071Y-42536069D02*
X130920833Y-42488450D01*
X130920833Y-42488450D02*
X130873214Y-42440830D01*
X130873214Y-42440830D02*
X130825595Y-42345592D01*
X130825595Y-42345592D02*
X130825595Y-42059878D01*
X130825595Y-42059878D02*
X130873214Y-41964640D01*
X130873214Y-41964640D02*
X130920833Y-41917021D01*
X130920833Y-41917021D02*
X131016071Y-41869402D01*
X131016071Y-41869402D02*
X131206547Y-41869402D01*
X131206547Y-41869402D02*
X131301785Y-41917021D01*
X132158928Y-42488450D02*
X132063690Y-42536069D01*
X132063690Y-42536069D02*
X131873214Y-42536069D01*
X131873214Y-42536069D02*
X131777976Y-42488450D01*
X131777976Y-42488450D02*
X131730357Y-42393211D01*
X131730357Y-42393211D02*
X131730357Y-42012259D01*
X131730357Y-42012259D02*
X131777976Y-41917021D01*
X131777976Y-41917021D02*
X131873214Y-41869402D01*
X131873214Y-41869402D02*
X132063690Y-41869402D01*
X132063690Y-41869402D02*
X132158928Y-41917021D01*
X132158928Y-41917021D02*
X132206547Y-42012259D01*
X132206547Y-42012259D02*
X132206547Y-42107497D01*
X132206547Y-42107497D02*
X131730357Y-42202735D01*
X34786011Y-62336069D02*
X34309821Y-62336069D01*
X34309821Y-62336069D02*
X34309821Y-61336069D01*
X35119345Y-62336069D02*
X35119345Y-61669402D01*
X35119345Y-61336069D02*
X35071726Y-61383688D01*
X35071726Y-61383688D02*
X35119345Y-61431307D01*
X35119345Y-61431307D02*
X35166964Y-61383688D01*
X35166964Y-61383688D02*
X35119345Y-61336069D01*
X35119345Y-61336069D02*
X35119345Y-61431307D01*
X36024106Y-61669402D02*
X36024106Y-62478926D01*
X36024106Y-62478926D02*
X35976487Y-62574164D01*
X35976487Y-62574164D02*
X35928868Y-62621783D01*
X35928868Y-62621783D02*
X35833630Y-62669402D01*
X35833630Y-62669402D02*
X35690773Y-62669402D01*
X35690773Y-62669402D02*
X35595535Y-62621783D01*
X36024106Y-62288450D02*
X35928868Y-62336069D01*
X35928868Y-62336069D02*
X35738392Y-62336069D01*
X35738392Y-62336069D02*
X35643154Y-62288450D01*
X35643154Y-62288450D02*
X35595535Y-62240830D01*
X35595535Y-62240830D02*
X35547916Y-62145592D01*
X35547916Y-62145592D02*
X35547916Y-61859878D01*
X35547916Y-61859878D02*
X35595535Y-61764640D01*
X35595535Y-61764640D02*
X35643154Y-61717021D01*
X35643154Y-61717021D02*
X35738392Y-61669402D01*
X35738392Y-61669402D02*
X35928868Y-61669402D01*
X35928868Y-61669402D02*
X36024106Y-61717021D01*
X36500297Y-62336069D02*
X36500297Y-61336069D01*
X36928868Y-62336069D02*
X36928868Y-61812259D01*
X36928868Y-61812259D02*
X36881249Y-61717021D01*
X36881249Y-61717021D02*
X36786011Y-61669402D01*
X36786011Y-61669402D02*
X36643154Y-61669402D01*
X36643154Y-61669402D02*
X36547916Y-61717021D01*
X36547916Y-61717021D02*
X36500297Y-61764640D01*
X37262202Y-61669402D02*
X37643154Y-61669402D01*
X37405059Y-61336069D02*
X37405059Y-62193211D01*
X37405059Y-62193211D02*
X37452678Y-62288450D01*
X37452678Y-62288450D02*
X37547916Y-62336069D01*
X37547916Y-62336069D02*
X37643154Y-62336069D01*
X38690774Y-62288450D02*
X38833631Y-62336069D01*
X38833631Y-62336069D02*
X39071726Y-62336069D01*
X39071726Y-62336069D02*
X39166964Y-62288450D01*
X39166964Y-62288450D02*
X39214583Y-62240830D01*
X39214583Y-62240830D02*
X39262202Y-62145592D01*
X39262202Y-62145592D02*
X39262202Y-62050354D01*
X39262202Y-62050354D02*
X39214583Y-61955116D01*
X39214583Y-61955116D02*
X39166964Y-61907497D01*
X39166964Y-61907497D02*
X39071726Y-61859878D01*
X39071726Y-61859878D02*
X38881250Y-61812259D01*
X38881250Y-61812259D02*
X38786012Y-61764640D01*
X38786012Y-61764640D02*
X38738393Y-61717021D01*
X38738393Y-61717021D02*
X38690774Y-61621783D01*
X38690774Y-61621783D02*
X38690774Y-61526545D01*
X38690774Y-61526545D02*
X38738393Y-61431307D01*
X38738393Y-61431307D02*
X38786012Y-61383688D01*
X38786012Y-61383688D02*
X38881250Y-61336069D01*
X38881250Y-61336069D02*
X39119345Y-61336069D01*
X39119345Y-61336069D02*
X39262202Y-61383688D01*
X39690774Y-62336069D02*
X39690774Y-61669402D01*
X39690774Y-61336069D02*
X39643155Y-61383688D01*
X39643155Y-61383688D02*
X39690774Y-61431307D01*
X39690774Y-61431307D02*
X39738393Y-61383688D01*
X39738393Y-61383688D02*
X39690774Y-61336069D01*
X39690774Y-61336069D02*
X39690774Y-61431307D01*
X40595535Y-62336069D02*
X40595535Y-61336069D01*
X40595535Y-62288450D02*
X40500297Y-62336069D01*
X40500297Y-62336069D02*
X40309821Y-62336069D01*
X40309821Y-62336069D02*
X40214583Y-62288450D01*
X40214583Y-62288450D02*
X40166964Y-62240830D01*
X40166964Y-62240830D02*
X40119345Y-62145592D01*
X40119345Y-62145592D02*
X40119345Y-61859878D01*
X40119345Y-61859878D02*
X40166964Y-61764640D01*
X40166964Y-61764640D02*
X40214583Y-61717021D01*
X40214583Y-61717021D02*
X40309821Y-61669402D01*
X40309821Y-61669402D02*
X40500297Y-61669402D01*
X40500297Y-61669402D02*
X40595535Y-61717021D01*
X41452678Y-62288450D02*
X41357440Y-62336069D01*
X41357440Y-62336069D02*
X41166964Y-62336069D01*
X41166964Y-62336069D02*
X41071726Y-62288450D01*
X41071726Y-62288450D02*
X41024107Y-62193211D01*
X41024107Y-62193211D02*
X41024107Y-61812259D01*
X41024107Y-61812259D02*
X41071726Y-61717021D01*
X41071726Y-61717021D02*
X41166964Y-61669402D01*
X41166964Y-61669402D02*
X41357440Y-61669402D01*
X41357440Y-61669402D02*
X41452678Y-61717021D01*
X41452678Y-61717021D02*
X41500297Y-61812259D01*
X41500297Y-61812259D02*
X41500297Y-61907497D01*
X41500297Y-61907497D02*
X41024107Y-62002735D01*
X80029761Y-117104819D02*
X79553571Y-117104819D01*
X79553571Y-117104819D02*
X79553571Y-116104819D01*
X80363095Y-117104819D02*
X80363095Y-116438152D01*
X80363095Y-116104819D02*
X80315476Y-116152438D01*
X80315476Y-116152438D02*
X80363095Y-116200057D01*
X80363095Y-116200057D02*
X80410714Y-116152438D01*
X80410714Y-116152438D02*
X80363095Y-116104819D01*
X80363095Y-116104819D02*
X80363095Y-116200057D01*
X81267856Y-116438152D02*
X81267856Y-117247676D01*
X81267856Y-117247676D02*
X81220237Y-117342914D01*
X81220237Y-117342914D02*
X81172618Y-117390533D01*
X81172618Y-117390533D02*
X81077380Y-117438152D01*
X81077380Y-117438152D02*
X80934523Y-117438152D01*
X80934523Y-117438152D02*
X80839285Y-117390533D01*
X81267856Y-117057200D02*
X81172618Y-117104819D01*
X81172618Y-117104819D02*
X80982142Y-117104819D01*
X80982142Y-117104819D02*
X80886904Y-117057200D01*
X80886904Y-117057200D02*
X80839285Y-117009580D01*
X80839285Y-117009580D02*
X80791666Y-116914342D01*
X80791666Y-116914342D02*
X80791666Y-116628628D01*
X80791666Y-116628628D02*
X80839285Y-116533390D01*
X80839285Y-116533390D02*
X80886904Y-116485771D01*
X80886904Y-116485771D02*
X80982142Y-116438152D01*
X80982142Y-116438152D02*
X81172618Y-116438152D01*
X81172618Y-116438152D02*
X81267856Y-116485771D01*
X81744047Y-117104819D02*
X81744047Y-116104819D01*
X82172618Y-117104819D02*
X82172618Y-116581009D01*
X82172618Y-116581009D02*
X82124999Y-116485771D01*
X82124999Y-116485771D02*
X82029761Y-116438152D01*
X82029761Y-116438152D02*
X81886904Y-116438152D01*
X81886904Y-116438152D02*
X81791666Y-116485771D01*
X81791666Y-116485771D02*
X81744047Y-116533390D01*
X82505952Y-116438152D02*
X82886904Y-116438152D01*
X82648809Y-116104819D02*
X82648809Y-116961961D01*
X82648809Y-116961961D02*
X82696428Y-117057200D01*
X82696428Y-117057200D02*
X82791666Y-117104819D01*
X82791666Y-117104819D02*
X82886904Y-117104819D01*
X83934524Y-117057200D02*
X84077381Y-117104819D01*
X84077381Y-117104819D02*
X84315476Y-117104819D01*
X84315476Y-117104819D02*
X84410714Y-117057200D01*
X84410714Y-117057200D02*
X84458333Y-117009580D01*
X84458333Y-117009580D02*
X84505952Y-116914342D01*
X84505952Y-116914342D02*
X84505952Y-116819104D01*
X84505952Y-116819104D02*
X84458333Y-116723866D01*
X84458333Y-116723866D02*
X84410714Y-116676247D01*
X84410714Y-116676247D02*
X84315476Y-116628628D01*
X84315476Y-116628628D02*
X84125000Y-116581009D01*
X84125000Y-116581009D02*
X84029762Y-116533390D01*
X84029762Y-116533390D02*
X83982143Y-116485771D01*
X83982143Y-116485771D02*
X83934524Y-116390533D01*
X83934524Y-116390533D02*
X83934524Y-116295295D01*
X83934524Y-116295295D02*
X83982143Y-116200057D01*
X83982143Y-116200057D02*
X84029762Y-116152438D01*
X84029762Y-116152438D02*
X84125000Y-116104819D01*
X84125000Y-116104819D02*
X84363095Y-116104819D01*
X84363095Y-116104819D02*
X84505952Y-116152438D01*
X84934524Y-117104819D02*
X84934524Y-116438152D01*
X84934524Y-116104819D02*
X84886905Y-116152438D01*
X84886905Y-116152438D02*
X84934524Y-116200057D01*
X84934524Y-116200057D02*
X84982143Y-116152438D01*
X84982143Y-116152438D02*
X84934524Y-116104819D01*
X84934524Y-116104819D02*
X84934524Y-116200057D01*
X85839285Y-117104819D02*
X85839285Y-116104819D01*
X85839285Y-117057200D02*
X85744047Y-117104819D01*
X85744047Y-117104819D02*
X85553571Y-117104819D01*
X85553571Y-117104819D02*
X85458333Y-117057200D01*
X85458333Y-117057200D02*
X85410714Y-117009580D01*
X85410714Y-117009580D02*
X85363095Y-116914342D01*
X85363095Y-116914342D02*
X85363095Y-116628628D01*
X85363095Y-116628628D02*
X85410714Y-116533390D01*
X85410714Y-116533390D02*
X85458333Y-116485771D01*
X85458333Y-116485771D02*
X85553571Y-116438152D01*
X85553571Y-116438152D02*
X85744047Y-116438152D01*
X85744047Y-116438152D02*
X85839285Y-116485771D01*
X86696428Y-117057200D02*
X86601190Y-117104819D01*
X86601190Y-117104819D02*
X86410714Y-117104819D01*
X86410714Y-117104819D02*
X86315476Y-117057200D01*
X86315476Y-117057200D02*
X86267857Y-116961961D01*
X86267857Y-116961961D02*
X86267857Y-116581009D01*
X86267857Y-116581009D02*
X86315476Y-116485771D01*
X86315476Y-116485771D02*
X86410714Y-116438152D01*
X86410714Y-116438152D02*
X86601190Y-116438152D01*
X86601190Y-116438152D02*
X86696428Y-116485771D01*
X86696428Y-116485771D02*
X86744047Y-116581009D01*
X86744047Y-116581009D02*
X86744047Y-116676247D01*
X86744047Y-116676247D02*
X86267857Y-116771485D01*
D12*
X159085047Y-33290190D02*
X159037428Y-33252095D01*
X159037428Y-33252095D02*
X158965999Y-33252095D01*
X158965999Y-33252095D02*
X158894571Y-33290190D01*
X158894571Y-33290190D02*
X158846952Y-33366380D01*
X158846952Y-33366380D02*
X158823142Y-33442571D01*
X158823142Y-33442571D02*
X158799333Y-33594952D01*
X158799333Y-33594952D02*
X158799333Y-33709238D01*
X158799333Y-33709238D02*
X158823142Y-33861619D01*
X158823142Y-33861619D02*
X158846952Y-33937809D01*
X158846952Y-33937809D02*
X158894571Y-34014000D01*
X158894571Y-34014000D02*
X158965999Y-34052095D01*
X158965999Y-34052095D02*
X159013618Y-34052095D01*
X159013618Y-34052095D02*
X159085047Y-34014000D01*
X159085047Y-34014000D02*
X159108856Y-33975904D01*
X159108856Y-33975904D02*
X159108856Y-33709238D01*
X159108856Y-33709238D02*
X159013618Y-33709238D01*
X159323142Y-34052095D02*
X159323142Y-33252095D01*
X159323142Y-33252095D02*
X159608856Y-34052095D01*
X159608856Y-34052095D02*
X159608856Y-33252095D01*
X159846952Y-34052095D02*
X159846952Y-33252095D01*
X159846952Y-33252095D02*
X159966000Y-33252095D01*
X159966000Y-33252095D02*
X160037428Y-33290190D01*
X160037428Y-33290190D02*
X160085047Y-33366380D01*
X160085047Y-33366380D02*
X160108857Y-33442571D01*
X160108857Y-33442571D02*
X160132666Y-33594952D01*
X160132666Y-33594952D02*
X160132666Y-33709238D01*
X160132666Y-33709238D02*
X160108857Y-33861619D01*
X160108857Y-33861619D02*
X160085047Y-33937809D01*
X160085047Y-33937809D02*
X160037428Y-34014000D01*
X160037428Y-34014000D02*
X159966000Y-34052095D01*
X159966000Y-34052095D02*
X159846952Y-34052095D01*
X159085047Y-35830190D02*
X159037428Y-35792095D01*
X159037428Y-35792095D02*
X158965999Y-35792095D01*
X158965999Y-35792095D02*
X158894571Y-35830190D01*
X158894571Y-35830190D02*
X158846952Y-35906380D01*
X158846952Y-35906380D02*
X158823142Y-35982571D01*
X158823142Y-35982571D02*
X158799333Y-36134952D01*
X158799333Y-36134952D02*
X158799333Y-36249238D01*
X158799333Y-36249238D02*
X158823142Y-36401619D01*
X158823142Y-36401619D02*
X158846952Y-36477809D01*
X158846952Y-36477809D02*
X158894571Y-36554000D01*
X158894571Y-36554000D02*
X158965999Y-36592095D01*
X158965999Y-36592095D02*
X159013618Y-36592095D01*
X159013618Y-36592095D02*
X159085047Y-36554000D01*
X159085047Y-36554000D02*
X159108856Y-36515904D01*
X159108856Y-36515904D02*
X159108856Y-36249238D01*
X159108856Y-36249238D02*
X159013618Y-36249238D01*
X159323142Y-36592095D02*
X159323142Y-35792095D01*
X159323142Y-35792095D02*
X159608856Y-36592095D01*
X159608856Y-36592095D02*
X159608856Y-35792095D01*
X159846952Y-36592095D02*
X159846952Y-35792095D01*
X159846952Y-35792095D02*
X159966000Y-35792095D01*
X159966000Y-35792095D02*
X160037428Y-35830190D01*
X160037428Y-35830190D02*
X160085047Y-35906380D01*
X160085047Y-35906380D02*
X160108857Y-35982571D01*
X160108857Y-35982571D02*
X160132666Y-36134952D01*
X160132666Y-36134952D02*
X160132666Y-36249238D01*
X160132666Y-36249238D02*
X160108857Y-36401619D01*
X160108857Y-36401619D02*
X160085047Y-36477809D01*
X160085047Y-36477809D02*
X160037428Y-36554000D01*
X160037428Y-36554000D02*
X159966000Y-36592095D01*
X159966000Y-36592095D02*
X159846952Y-36592095D01*
D10*
X172779819Y-65149904D02*
X172779819Y-64578476D01*
X173779819Y-64864190D02*
X172779819Y-64864190D01*
X173779819Y-63673714D02*
X173303628Y-64007047D01*
X173779819Y-64245142D02*
X172779819Y-64245142D01*
X172779819Y-64245142D02*
X172779819Y-63864190D01*
X172779819Y-63864190D02*
X172827438Y-63768952D01*
X172827438Y-63768952D02*
X172875057Y-63721333D01*
X172875057Y-63721333D02*
X172970295Y-63673714D01*
X172970295Y-63673714D02*
X173113152Y-63673714D01*
X173113152Y-63673714D02*
X173208390Y-63721333D01*
X173208390Y-63721333D02*
X173256009Y-63768952D01*
X173256009Y-63768952D02*
X173303628Y-63864190D01*
X173303628Y-63864190D02*
X173303628Y-64245142D01*
X173779819Y-62673714D02*
X173303628Y-63007047D01*
X173779819Y-63245142D02*
X172779819Y-63245142D01*
X172779819Y-63245142D02*
X172779819Y-62864190D01*
X172779819Y-62864190D02*
X172827438Y-62768952D01*
X172827438Y-62768952D02*
X172875057Y-62721333D01*
X172875057Y-62721333D02*
X172970295Y-62673714D01*
X172970295Y-62673714D02*
X173113152Y-62673714D01*
X173113152Y-62673714D02*
X173208390Y-62721333D01*
X173208390Y-62721333D02*
X173256009Y-62768952D01*
X173256009Y-62768952D02*
X173303628Y-62864190D01*
X173303628Y-62864190D02*
X173303628Y-63245142D01*
X173732200Y-62292761D02*
X173779819Y-62149904D01*
X173779819Y-62149904D02*
X173779819Y-61911809D01*
X173779819Y-61911809D02*
X173732200Y-61816571D01*
X173732200Y-61816571D02*
X173684580Y-61768952D01*
X173684580Y-61768952D02*
X173589342Y-61721333D01*
X173589342Y-61721333D02*
X173494104Y-61721333D01*
X173494104Y-61721333D02*
X173398866Y-61768952D01*
X173398866Y-61768952D02*
X173351247Y-61816571D01*
X173351247Y-61816571D02*
X173303628Y-61911809D01*
X173303628Y-61911809D02*
X173256009Y-62102285D01*
X173256009Y-62102285D02*
X173208390Y-62197523D01*
X173208390Y-62197523D02*
X173160771Y-62245142D01*
X173160771Y-62245142D02*
X173065533Y-62292761D01*
X173065533Y-62292761D02*
X172970295Y-62292761D01*
X172970295Y-62292761D02*
X172875057Y-62245142D01*
X172875057Y-62245142D02*
X172827438Y-62197523D01*
X172827438Y-62197523D02*
X172779819Y-62102285D01*
X172779819Y-62102285D02*
X172779819Y-61864190D01*
X172779819Y-61864190D02*
X172827438Y-61721333D01*
X167738500Y-67312500D02*
X179738500Y-67312500D01*
X179738500Y-67312500D02*
X179738500Y-61312500D01*
X167738500Y-61312500D02*
X167738500Y-67312500D01*
X179738500Y-61312500D02*
X167738500Y-61312500D01*
D13*
X75882500Y-52387500D03*
D14*
X80962500Y-52387500D03*
D13*
X86042500Y-52387500D03*
X66357500Y-33337500D03*
D14*
X71437500Y-33337500D03*
D13*
X76517500Y-33337500D03*
X56832500Y-52387500D03*
D14*
X61912500Y-52387500D03*
D13*
X66992500Y-52387500D03*
D15*
X103346250Y-116681250D03*
D16*
X110966250Y-116681250D03*
D15*
X128905000Y-60960000D03*
D16*
X128905000Y-53340000D03*
D15*
X62865000Y-78581250D03*
D16*
X70485000Y-78581250D03*
D13*
X125888750Y-109537500D03*
D14*
X130968750Y-109537500D03*
D13*
X136048750Y-109537500D03*
X80645000Y-71437500D03*
D14*
X85725000Y-71437500D03*
D13*
X90805000Y-71437500D03*
X137795000Y-71437500D03*
D14*
X142875000Y-71437500D03*
D13*
X147955000Y-71437500D03*
D15*
X95567500Y-116335000D03*
D16*
X95567500Y-108715000D03*
D13*
X28257500Y-33337500D03*
D14*
X33337500Y-33337500D03*
D13*
X38417500Y-33337500D03*
X78263750Y-109537500D03*
D14*
X83343750Y-109537500D03*
D13*
X88423750Y-109537500D03*
X133032500Y-52387500D03*
D14*
X138112500Y-52387500D03*
D13*
X143192500Y-52387500D03*
D15*
X167957500Y-116681250D03*
D16*
X175577500Y-116681250D03*
D15*
X139988750Y-78581250D03*
D16*
X147608750Y-78581250D03*
D15*
X86042500Y-99060000D03*
D16*
X86042500Y-91440000D03*
D15*
X149542500Y-97631250D03*
D16*
X157162500Y-97631250D03*
D13*
X118745000Y-71437500D03*
D14*
X123825000Y-71437500D03*
D13*
X128905000Y-71437500D03*
X71120000Y-90487500D03*
D14*
X76200000Y-90487500D03*
D13*
X81280000Y-90487500D03*
X85407500Y-33337500D03*
D14*
X90487500Y-33337500D03*
D13*
X95567500Y-33337500D03*
D15*
X43180000Y-41910000D03*
D16*
X43180000Y-34290000D03*
D15*
X57467500Y-80010000D03*
D16*
X57467500Y-72390000D03*
D13*
X47307500Y-33337500D03*
D14*
X52387500Y-33337500D03*
D13*
X57467500Y-33337500D03*
X113982500Y-52387500D03*
D14*
X119062500Y-52387500D03*
D13*
X124142500Y-52387500D03*
X109220000Y-90487500D03*
D14*
X114300000Y-90487500D03*
D13*
X119380000Y-90487500D03*
D15*
X55721250Y-116681250D03*
D16*
X63341250Y-116681250D03*
D13*
X61595000Y-71437500D03*
D14*
X66675000Y-71437500D03*
D13*
X71755000Y-71437500D03*
X147320000Y-109537500D03*
D14*
X152400000Y-109537500D03*
D13*
X157480000Y-109537500D03*
D15*
X144145000Y-40481250D03*
D16*
X151765000Y-40481250D03*
D15*
X162242500Y-117503750D03*
D16*
X162242500Y-109883750D03*
D13*
X123507500Y-33337500D03*
D14*
X128587500Y-33337500D03*
D13*
X133667500Y-33337500D03*
D15*
X133667500Y-80010000D03*
D16*
X133667500Y-72390000D03*
D13*
X166370000Y-109537500D03*
D14*
X171450000Y-109537500D03*
D13*
X176530000Y-109537500D03*
X30638750Y-109537500D03*
D14*
X35718750Y-109537500D03*
D13*
X40798750Y-109537500D03*
D15*
X100330000Y-41910000D03*
D16*
X100330000Y-34290000D03*
D15*
X95250000Y-80010000D03*
D16*
X95250000Y-72390000D03*
D13*
X104457500Y-33337500D03*
D14*
X109537500Y-33337500D03*
D13*
X114617500Y-33337500D03*
X94932500Y-52387500D03*
D14*
X100012500Y-52387500D03*
D13*
X105092500Y-52387500D03*
D15*
X52705000Y-60960000D03*
D16*
X52705000Y-53340000D03*
D13*
X33020000Y-52387500D03*
D14*
X38100000Y-52387500D03*
D13*
X43180000Y-52387500D03*
D15*
X134620000Y-59531250D03*
D16*
X142240000Y-59531250D03*
D15*
X47942500Y-116335000D03*
D16*
X47942500Y-108715000D03*
D15*
X71755000Y-60960000D03*
D16*
X71755000Y-53340000D03*
D15*
X138430000Y-41910000D03*
D16*
X138430000Y-34290000D03*
D15*
X124142500Y-99060000D03*
D16*
X124142500Y-91440000D03*
D13*
X154625000Y-48375000D03*
X154625000Y-54875000D03*
D15*
X81280000Y-41910000D03*
D16*
X81280000Y-34290000D03*
D13*
X35401250Y-71437500D03*
D14*
X40481250Y-71437500D03*
D13*
X45561250Y-71437500D03*
D15*
X143192500Y-99060000D03*
D16*
X143192500Y-91440000D03*
D15*
X140811250Y-115728750D03*
D16*
X140811250Y-108108750D03*
D15*
X62230000Y-41910000D03*
D16*
X62230000Y-34290000D03*
D15*
X100358750Y-78581250D03*
D16*
X107978750Y-78581250D03*
D13*
X147320000Y-90487500D03*
D14*
X152400000Y-90487500D03*
D13*
X157480000Y-90487500D03*
X142557500Y-33337500D03*
D14*
X147637500Y-33337500D03*
D13*
X152717500Y-33337500D03*
D15*
X90805000Y-60960000D03*
D16*
X90805000Y-53340000D03*
D15*
X105092500Y-99060000D03*
D16*
X105092500Y-91440000D03*
D13*
X54451250Y-109537500D03*
D14*
X59531250Y-109537500D03*
D13*
X64611250Y-109537500D03*
X90170000Y-90487500D03*
D14*
X95250000Y-90487500D03*
D13*
X100330000Y-90487500D03*
X99695000Y-71437500D03*
D14*
X104775000Y-71437500D03*
D13*
X109855000Y-71437500D03*
D15*
X66992500Y-99060000D03*
D16*
X66992500Y-91440000D03*
D17*
X161625000Y-28545000D03*
X161625000Y-31085000D03*
X161625000Y-33625000D03*
X161625000Y-36165000D03*
X161625000Y-38705000D03*
X161625000Y-41245000D03*
X161625000Y-43785000D03*
X161625000Y-46325000D03*
X161625000Y-48865000D03*
X161625000Y-51405000D03*
X161625000Y-53945000D03*
X161625000Y-56485000D03*
X176865000Y-56485000D03*
X176865000Y-53945000D03*
X176865000Y-51405000D03*
X176865000Y-48865000D03*
X176865000Y-46325000D03*
X176865000Y-43785000D03*
X176865000Y-41245000D03*
X176865000Y-38705000D03*
X176865000Y-36165000D03*
X176865000Y-33625000D03*
X176865000Y-31085000D03*
X176865000Y-28545000D03*
D13*
X128270000Y-90487500D03*
D14*
X133350000Y-90487500D03*
D13*
X138430000Y-90487500D03*
X102076250Y-109537500D03*
D14*
X107156250Y-109537500D03*
D13*
X112236250Y-109537500D03*
D15*
X119380000Y-41910000D03*
D16*
X119380000Y-34290000D03*
D15*
X109855000Y-60960000D03*
D16*
X109855000Y-53340000D03*
M02*
