M48
; DRILL file {KiCad 7.0.7} date 2023 September 30, Saturday 17:43:05
; FORMAT={-:-/ absolute / metric / decimal}
; #@! TF.CreationDate,2023-09-30T17:43:05+09:00
; #@! TF.GenerationSoftware,Kicad,Pcbnew,7.0.7
; #@! TF.FileFunction,Plated,1,2,PTH
FMAT,2
METRIC
; #@! TA.AperFunction,Plated,PTH,ViaDrill
T1C0.400
; #@! TA.AperFunction,Plated,PTH,ComponentDrill
T2C0.600
; #@! TA.AperFunction,Plated,PTH,ComponentDrill
T3C0.813
; #@! TA.AperFunction,Plated,PTH,ComponentDrill
T4C1.300
%
G90
G05
T1
X24.625Y-43.625
X30.625Y-55.625
X31.394Y-52.664
X32.625Y-57.625
X32.625Y-63.625
X34.625Y-56.625
X43.411Y-57.411
X45.625Y-57.625
X46.613Y-51.637
X47.625Y-69.625
X47.637Y-50.613
X48.411Y-52.411
X48.625Y-44.625
X49.625Y-53.625
X49.625Y-69.625
X50.625Y-68.625
X50.625Y-70.625
X52.524Y-46.524
X52.625Y-88.625
X54.625Y-82.625
X54.625Y-85.625
X54.625Y-88.349
X54.726Y-46.726
X55.524Y-92.726
X55.625Y-87.625
X57.001Y-91.799
X57.625Y-95.625
X58.625Y-92.625
X59.625Y-65.625
X62.625Y-24.625
X64.524Y-101.726
X64.625Y-43.625
X66.625Y-88.625
X67.625Y-101.618
X68.625Y-40.625
X70.726Y-44.726
X71.467Y-107.783
X72.669Y-106.581
X73.625Y-46.625
X75.625Y-117.625
X77.307Y-114.307
X77.625Y-101.625
X78.405Y-115.611
X78.897Y-100.353
X84.414Y-90.836
X84.625Y-88.625
X86.625Y-111.625
X88.625Y-111.625
X89.625Y-106.625
X90.625Y-107.625
X90.625Y-114.625
X91.625Y-117.625
X92.625Y-107.625
X92.625Y-114.625
X96.524Y-104.524
X96.726Y-106.726
X103.524Y-89.524
X105.625Y-84.625
X106.575Y-90.007
X108.625Y-85.625
X108.625Y-92.625
X113.625Y-80.734
X114.625Y-64.625
X116.625Y-66.625
X117.625Y-25.625
X118.625Y-24.625
X118.625Y-74.625
X118.625Y-77.625
X121.625Y-25.625
X123.333Y-85.333
X123.625Y-42.625
X124.625Y-83.625
X125.491Y-54.491
X126.034Y-85.034
X126.692Y-55.692
X130.338Y-43.908
X130.625Y-37.625
X131.225Y-70.625
X132.924Y-70.625
X133.625Y-40.625
X134.625Y-62.625
X136.625Y-41.625
X140.625Y-27.625
X141.625Y-40.625
X142.875Y-43.908
X147.637Y-47.625
X149.625Y-62.625
X152.625Y-42.625
X155.625Y-63.625
X155.625Y-65.625
X156.625Y-38.625
X156.625Y-81.625
X157.625Y-41.625
X158.625Y-48.625
X162.613Y-66.613
X162.625Y-63.625
X162.625Y-69.625
X163.613Y-65.613
X163.625Y-104.625
X164.625Y-63.625
X165.097Y-41.153
X166.625Y-63.625
X167.625Y-59.625
X169.11Y-44.14
X170.625Y-44.514
X170.625Y-60.625
X171.625Y-46.625
X172.6Y-61.625
X172.625Y-47.625
X172.693Y-42.557
X173.625Y-44.514
X174.625Y-61.625
X174.749Y-50.625
X179.625Y-44.625
T3
X43.18Y-34.29
X43.18Y-41.91
X47.942Y-108.715
X47.942Y-116.335
X52.705Y-53.34
X52.705Y-60.96
X55.721Y-116.681
X57.467Y-72.39
X57.467Y-80.01
X62.23Y-34.29
X62.23Y-41.91
X62.865Y-78.581
X63.341Y-116.681
X66.992Y-91.44
X66.992Y-99.06
X70.485Y-78.581
X71.755Y-53.34
X71.755Y-60.96
X81.28Y-34.29
X81.28Y-41.91
X86.042Y-91.44
X86.042Y-99.06
X90.805Y-53.34
X90.805Y-60.96
X95.25Y-72.39
X95.25Y-80.01
X95.567Y-108.715
X95.567Y-116.335
X100.33Y-34.29
X100.33Y-41.91
X100.359Y-78.581
X103.346Y-116.681
X105.093Y-91.44
X105.093Y-99.06
X107.979Y-78.581
X109.855Y-53.34
X109.855Y-60.96
X110.966Y-116.681
X119.38Y-34.29
X119.38Y-41.91
X124.142Y-91.44
X124.142Y-99.06
X128.905Y-53.34
X128.905Y-60.96
X133.667Y-72.39
X133.667Y-80.01
X134.62Y-59.531
X138.43Y-34.29
X138.43Y-41.91
X139.989Y-78.581
X140.811Y-108.109
X140.811Y-115.729
X142.24Y-59.531
X143.192Y-91.44
X143.192Y-99.06
X144.145Y-40.481
X147.609Y-78.581
X149.542Y-97.631
X151.765Y-40.481
X157.162Y-97.631
X161.625Y-28.545
X161.625Y-31.085
X161.625Y-33.625
X161.625Y-36.165
X161.625Y-38.705
X161.625Y-41.245
X161.625Y-43.785
X161.625Y-46.325
X161.625Y-48.865
X161.625Y-51.405
X161.625Y-53.945
X161.625Y-56.485
X162.243Y-109.884
X162.243Y-117.504
X167.957Y-116.681
X175.577Y-116.681
X176.865Y-28.545
X176.865Y-31.085
X176.865Y-33.625
X176.865Y-36.165
X176.865Y-38.705
X176.865Y-41.245
X176.865Y-43.785
X176.865Y-46.325
X176.865Y-48.865
X176.865Y-51.405
X176.865Y-53.945
X176.865Y-56.485
T4
X154.625Y-48.375
X154.625Y-54.875
T2
G00X167.375Y-62.294
M15
G01X168.275Y-62.294
M16
G05
G00X168.875Y-66.294
M15
G01X169.775Y-66.294
M16
G05
G00X172.875Y-66.294
M15
G01X173.775Y-66.294
M16
G05
G00X175.875Y-66.294
M15
G01X176.775Y-66.294
M16
G05
T0
M30
