G04 #@! TF.GenerationSoftware,KiCad,Pcbnew,7.0.7*
G04 #@! TF.CreationDate,2023-09-30T17:43:00+09:00*
G04 #@! TF.ProjectId,ind-assemble_L,696e642d-6173-4736-956d-626c655f4c2e,rev?*
G04 #@! TF.SameCoordinates,Original*
G04 #@! TF.FileFunction,Soldermask,Bot*
G04 #@! TF.FilePolarity,Negative*
%FSLAX46Y46*%
G04 Gerber Fmt 4.6, Leading zero omitted, Abs format (unit mm)*
G04 Created by KiCad (PCBNEW 7.0.7) date 2023-09-30 17:43:00*
%MOMM*%
%LPD*%
G01*
G04 APERTURE LIST*
%ADD10C,2.200000*%
%ADD11C,2.000000*%
%ADD12C,3.000000*%
%ADD13C,4.000000*%
%ADD14R,3.300000X3.000000*%
%ADD15R,2.200000X0.820000*%
%ADD16R,1.397000X1.397000*%
%ADD17R,1.300000X0.950000*%
%ADD18C,1.397000*%
%ADD19R,0.950000X1.300000*%
%ADD20C,3.050000*%
%ADD21C,1.800000*%
%ADD22C,1.524000*%
%ADD23C,1.210000*%
%ADD24O,2.200000X1.300000*%
G04 APERTURE END LIST*
D10*
X154625000Y-78625000D03*
D11*
X75882500Y-52387500D03*
D12*
X77152500Y-49847500D03*
D13*
X80962500Y-52387500D03*
D12*
X83502500Y-47307500D03*
D11*
X86042500Y-52387500D03*
D14*
X73512500Y-49807500D03*
X87112500Y-47267500D03*
D15*
X74387500Y-37350000D03*
X68487500Y-37350000D03*
X68487500Y-38850000D03*
X74387500Y-38850000D03*
D11*
X66357500Y-33337500D03*
D12*
X67627500Y-30797500D03*
D13*
X71437500Y-33337500D03*
D12*
X73977500Y-28257500D03*
D11*
X76517500Y-33337500D03*
D14*
X63987500Y-30757500D03*
X77587500Y-28217500D03*
D11*
X56832500Y-52387500D03*
D12*
X58102500Y-49847500D03*
D13*
X61912500Y-52387500D03*
D12*
X64452500Y-47307500D03*
D11*
X66992500Y-52387500D03*
D14*
X54462500Y-49807500D03*
X68062500Y-47267500D03*
D16*
X103346250Y-116681250D03*
D17*
X105381250Y-116681250D03*
X108931250Y-116681250D03*
D18*
X110966250Y-116681250D03*
D16*
X128905000Y-60960000D03*
D19*
X128905000Y-58925000D03*
X128905000Y-55375000D03*
D18*
X128905000Y-53340000D03*
D16*
X62865000Y-78581250D03*
D17*
X64900000Y-78581250D03*
X68450000Y-78581250D03*
D18*
X70485000Y-78581250D03*
D11*
X125888750Y-109537500D03*
D12*
X127158750Y-106997500D03*
D13*
X130968750Y-109537500D03*
D12*
X133508750Y-104457500D03*
D11*
X136048750Y-109537500D03*
D14*
X123518750Y-106957500D03*
X137118750Y-104417500D03*
D11*
X80645000Y-71437500D03*
D12*
X81915000Y-68897500D03*
D13*
X85725000Y-71437500D03*
D12*
X88265000Y-66357500D03*
D11*
X90805000Y-71437500D03*
D14*
X78275000Y-68857500D03*
X91875000Y-66317500D03*
D11*
X137795000Y-71437500D03*
D12*
X139065000Y-68897500D03*
D13*
X142875000Y-71437500D03*
D12*
X145415000Y-66357500D03*
D11*
X147955000Y-71437500D03*
D14*
X135425000Y-68857500D03*
X149025000Y-66317500D03*
D16*
X95567500Y-116335000D03*
D19*
X95567500Y-114300000D03*
X95567500Y-110750000D03*
D18*
X95567500Y-108715000D03*
D10*
X42862500Y-26193750D03*
D11*
X28257500Y-33337500D03*
D12*
X29527500Y-30797500D03*
D13*
X33337500Y-33337500D03*
D12*
X35877500Y-28257500D03*
D11*
X38417500Y-33337500D03*
D14*
X25887500Y-30757500D03*
X39487500Y-28217500D03*
D10*
X149625000Y-59625000D03*
D11*
X78263750Y-109537500D03*
D12*
X79533750Y-106997500D03*
D13*
X83343750Y-109537500D03*
D12*
X85883750Y-104457500D03*
D11*
X88423750Y-109537500D03*
D14*
X75893750Y-106957500D03*
X89493750Y-104417500D03*
D11*
X133032500Y-52387500D03*
D12*
X134302500Y-49847500D03*
D13*
X138112500Y-52387500D03*
D12*
X140652500Y-47307500D03*
D11*
X143192500Y-52387500D03*
D14*
X130662500Y-49807500D03*
X144262500Y-47267500D03*
D16*
X167957500Y-116681250D03*
D17*
X169992500Y-116681250D03*
X173542500Y-116681250D03*
D18*
X175577500Y-116681250D03*
D16*
X139988750Y-78581250D03*
D17*
X142023750Y-78581250D03*
X145573750Y-78581250D03*
D18*
X147608750Y-78581250D03*
D16*
X86042500Y-99060000D03*
D19*
X86042500Y-97025000D03*
X86042500Y-93475000D03*
D18*
X86042500Y-91440000D03*
D16*
X149542500Y-97631250D03*
D17*
X151577500Y-97631250D03*
X155127500Y-97631250D03*
D18*
X157162500Y-97631250D03*
D11*
X118745000Y-71437500D03*
D12*
X120015000Y-68897500D03*
D13*
X123825000Y-71437500D03*
D12*
X126365000Y-66357500D03*
D11*
X128905000Y-71437500D03*
D14*
X116375000Y-68857500D03*
X129975000Y-66317500D03*
D11*
X71120000Y-90487500D03*
D12*
X72390000Y-87947500D03*
D13*
X76200000Y-90487500D03*
D12*
X78740000Y-85407500D03*
D11*
X81280000Y-90487500D03*
D14*
X68750000Y-87907500D03*
X82350000Y-85367500D03*
D11*
X85407500Y-33337500D03*
D12*
X86677500Y-30797500D03*
D13*
X90487500Y-33337500D03*
D12*
X93027500Y-28257500D03*
D11*
X95567500Y-33337500D03*
D14*
X83037500Y-30757500D03*
X96637500Y-28217500D03*
D16*
X43180000Y-41910000D03*
D19*
X43180000Y-39875000D03*
X43180000Y-36325000D03*
D18*
X43180000Y-34290000D03*
D10*
X119062500Y-116681250D03*
X158825000Y-25825000D03*
X90487500Y-45243750D03*
D16*
X57467500Y-80010000D03*
D19*
X57467500Y-77975000D03*
X57467500Y-74425000D03*
D18*
X57467500Y-72390000D03*
D10*
X114300000Y-76200000D03*
D11*
X47307500Y-33337500D03*
D12*
X48577500Y-30797500D03*
D13*
X52387500Y-33337500D03*
D12*
X54927500Y-28257500D03*
D11*
X57467500Y-33337500D03*
D14*
X44937500Y-30757500D03*
X58537500Y-28217500D03*
D11*
X113982500Y-52387500D03*
D12*
X115252500Y-49847500D03*
D13*
X119062500Y-52387500D03*
D12*
X121602500Y-47307500D03*
D11*
X124142500Y-52387500D03*
D14*
X111612500Y-49807500D03*
X125212500Y-47267500D03*
D15*
X126556250Y-76200000D03*
X120656250Y-76200000D03*
X120656250Y-77700000D03*
X126556250Y-77700000D03*
D11*
X109220000Y-90487500D03*
D12*
X110490000Y-87947500D03*
D13*
X114300000Y-90487500D03*
D12*
X116840000Y-85407500D03*
D11*
X119380000Y-90487500D03*
D14*
X106850000Y-87907500D03*
X120450000Y-85367500D03*
D16*
X55721250Y-116681250D03*
D17*
X57756250Y-116681250D03*
X61306250Y-116681250D03*
D18*
X63341250Y-116681250D03*
D11*
X61595000Y-71437500D03*
D12*
X62865000Y-68897500D03*
D13*
X66675000Y-71437500D03*
D12*
X69215000Y-66357500D03*
D11*
X71755000Y-71437500D03*
D14*
X59225000Y-68857500D03*
X72825000Y-66317500D03*
D11*
X147320000Y-109537500D03*
D12*
X148590000Y-106997500D03*
D13*
X152400000Y-109537500D03*
D12*
X154940000Y-104457500D03*
D11*
X157480000Y-109537500D03*
D14*
X144950000Y-106957500D03*
X158550000Y-104417500D03*
D10*
X164625000Y-97625000D03*
D16*
X144145000Y-40481250D03*
D17*
X146180000Y-40481250D03*
X149730000Y-40481250D03*
D18*
X151765000Y-40481250D03*
D15*
X62580000Y-88987500D03*
X56680000Y-88987500D03*
X56680000Y-90487500D03*
X62580000Y-90487500D03*
D16*
X162242500Y-117503750D03*
D19*
X162242500Y-115468750D03*
X162242500Y-111918750D03*
D18*
X162242500Y-109883750D03*
D11*
X123507500Y-33337500D03*
D12*
X124777500Y-30797500D03*
D13*
X128587500Y-33337500D03*
D12*
X131127500Y-28257500D03*
D11*
X133667500Y-33337500D03*
D14*
X121137500Y-30757500D03*
X134737500Y-28217500D03*
D16*
X133667500Y-80010000D03*
D19*
X133667500Y-77975000D03*
X133667500Y-74425000D03*
D18*
X133667500Y-72390000D03*
D10*
X179625000Y-26425000D03*
D11*
X166370000Y-109537500D03*
D12*
X167640000Y-106997500D03*
D13*
X171450000Y-109537500D03*
D12*
X173990000Y-104457500D03*
D11*
X176530000Y-109537500D03*
D14*
X164000000Y-106957500D03*
X177600000Y-104417500D03*
D11*
X30638750Y-109537500D03*
D12*
X31908750Y-106997500D03*
D13*
X35718750Y-109537500D03*
D12*
X38258750Y-104457500D03*
D11*
X40798750Y-109537500D03*
D14*
X28268750Y-106957500D03*
X41868750Y-104417500D03*
D16*
X100330000Y-41910000D03*
D19*
X100330000Y-39875000D03*
X100330000Y-36325000D03*
D18*
X100330000Y-34290000D03*
D16*
X95250000Y-80010000D03*
D19*
X95250000Y-77975000D03*
X95250000Y-74425000D03*
D18*
X95250000Y-72390000D03*
D11*
X104457500Y-33337500D03*
D12*
X105727500Y-30797500D03*
D13*
X109537500Y-33337500D03*
D12*
X112077500Y-28257500D03*
D11*
X114617500Y-33337500D03*
D14*
X102087500Y-30757500D03*
X115687500Y-28217500D03*
D11*
X94932500Y-52387500D03*
D12*
X96202500Y-49847500D03*
D13*
X100012500Y-52387500D03*
D12*
X102552500Y-47307500D03*
D11*
X105092500Y-52387500D03*
D14*
X92562500Y-49807500D03*
X106162500Y-47267500D03*
D16*
X52705000Y-60960000D03*
D19*
X52705000Y-58925000D03*
X52705000Y-55375000D03*
D18*
X52705000Y-53340000D03*
D11*
X33020000Y-52387500D03*
D12*
X34290000Y-49847500D03*
D13*
X38100000Y-52387500D03*
D12*
X40640000Y-47307500D03*
D11*
X43180000Y-52387500D03*
D14*
X30650000Y-49807500D03*
X44250000Y-47267500D03*
D15*
X131537500Y-38981250D03*
X125637500Y-38981250D03*
X125637500Y-40481250D03*
X131537500Y-40481250D03*
D16*
X134620000Y-59531250D03*
D17*
X136655000Y-59531250D03*
X140205000Y-59531250D03*
D18*
X142240000Y-59531250D03*
D10*
X26193750Y-116681250D03*
D16*
X47942500Y-116335000D03*
D19*
X47942500Y-114300000D03*
X47942500Y-110750000D03*
D18*
X47942500Y-108715000D03*
D16*
X71755000Y-60960000D03*
D19*
X71755000Y-58925000D03*
X71755000Y-55375000D03*
D18*
X71755000Y-53340000D03*
D10*
X71437500Y-116681250D03*
D16*
X138430000Y-41910000D03*
D19*
X138430000Y-39875000D03*
X138430000Y-36325000D03*
D18*
X138430000Y-34290000D03*
D16*
X124142500Y-99060000D03*
D19*
X124142500Y-97025000D03*
X124142500Y-93475000D03*
D18*
X124142500Y-91440000D03*
D10*
X26193750Y-83343750D03*
X149625000Y-44625000D03*
D11*
X154625000Y-48375000D03*
X154625000Y-54875000D03*
D10*
X159543750Y-100012500D03*
X26193750Y-47625000D03*
D16*
X81280000Y-41910000D03*
D19*
X81280000Y-39875000D03*
X81280000Y-36325000D03*
D18*
X81280000Y-34290000D03*
D11*
X35401250Y-71437500D03*
D12*
X36671250Y-68897500D03*
D13*
X40481250Y-71437500D03*
D12*
X43021250Y-66357500D03*
D11*
X45561250Y-71437500D03*
D14*
X33031250Y-68857500D03*
X46631250Y-66317500D03*
D16*
X143192500Y-99060000D03*
D19*
X143192500Y-97025000D03*
X143192500Y-93475000D03*
D18*
X143192500Y-91440000D03*
D16*
X140811250Y-115728750D03*
D19*
X140811250Y-113693750D03*
X140811250Y-110143750D03*
D18*
X140811250Y-108108750D03*
D16*
X62230000Y-41910000D03*
D19*
X62230000Y-39875000D03*
X62230000Y-36325000D03*
D18*
X62230000Y-34290000D03*
D20*
X33343750Y-83487500D03*
D13*
X33343750Y-98727500D03*
D21*
X40163750Y-90487500D03*
D12*
X41433750Y-87947500D03*
D13*
X45243750Y-90487500D03*
D12*
X47783750Y-85407500D03*
D21*
X50323750Y-90487500D03*
D20*
X57143750Y-83487500D03*
D13*
X57143750Y-98727500D03*
D14*
X37843750Y-87947500D03*
X51343750Y-85407500D03*
D15*
X40831250Y-58781250D03*
X34931250Y-58781250D03*
X34931250Y-60281250D03*
X40831250Y-60281250D03*
D16*
X100358750Y-78581250D03*
D17*
X102393750Y-78581250D03*
X105943750Y-78581250D03*
D18*
X107978750Y-78581250D03*
D11*
X147320000Y-90487500D03*
D12*
X148590000Y-87947500D03*
D13*
X152400000Y-90487500D03*
D12*
X154940000Y-85407500D03*
D11*
X157480000Y-90487500D03*
D14*
X144950000Y-87907500D03*
X158550000Y-85367500D03*
D11*
X142557500Y-33337500D03*
D12*
X143827500Y-30797500D03*
D13*
X147637500Y-33337500D03*
D12*
X150177500Y-28257500D03*
D11*
X152717500Y-33337500D03*
D14*
X140187500Y-30757500D03*
X153787500Y-28217500D03*
D10*
X138112500Y-26193750D03*
X80962500Y-26193750D03*
X145256250Y-61912500D03*
D16*
X90805000Y-60960000D03*
D19*
X90805000Y-58925000D03*
X90805000Y-55375000D03*
D18*
X90805000Y-53340000D03*
D15*
X86075000Y-113550000D03*
X80175000Y-113550000D03*
X80175000Y-115050000D03*
X86075000Y-115050000D03*
D16*
X105092500Y-99060000D03*
D19*
X105092500Y-97025000D03*
X105092500Y-93475000D03*
D18*
X105092500Y-91440000D03*
D11*
X54451250Y-109537500D03*
D12*
X55721250Y-106997500D03*
D13*
X59531250Y-109537500D03*
D12*
X62071250Y-104457500D03*
D11*
X64611250Y-109537500D03*
D14*
X52081250Y-106957500D03*
X65681250Y-104417500D03*
D11*
X90170000Y-90487500D03*
D12*
X91440000Y-87947500D03*
D13*
X95250000Y-90487500D03*
D12*
X97790000Y-85407500D03*
D11*
X100330000Y-90487500D03*
D14*
X87800000Y-87907500D03*
X101400000Y-85367500D03*
D11*
X99695000Y-71437500D03*
D12*
X100965000Y-68897500D03*
D13*
X104775000Y-71437500D03*
D12*
X107315000Y-66357500D03*
D11*
X109855000Y-71437500D03*
D14*
X97325000Y-68857500D03*
X110925000Y-66317500D03*
D16*
X66992500Y-99060000D03*
D19*
X66992500Y-97025000D03*
X66992500Y-93475000D03*
D18*
X66992500Y-91440000D03*
D22*
X161625000Y-28545000D03*
X161625000Y-31085000D03*
X161625000Y-33625000D03*
X161625000Y-36165000D03*
X161625000Y-38705000D03*
X161625000Y-41245000D03*
X161625000Y-43785000D03*
X161625000Y-46325000D03*
X161625000Y-48865000D03*
X161625000Y-51405000D03*
X161625000Y-53945000D03*
X161625000Y-56485000D03*
X176865000Y-56485000D03*
X176865000Y-53945000D03*
X176865000Y-51405000D03*
X176865000Y-48865000D03*
X176865000Y-46325000D03*
X176865000Y-43785000D03*
X176865000Y-41245000D03*
X176865000Y-38705000D03*
X176865000Y-36165000D03*
X176865000Y-33625000D03*
X176865000Y-31085000D03*
X176865000Y-28545000D03*
D11*
X128270000Y-90487500D03*
D12*
X129540000Y-87947500D03*
D13*
X133350000Y-90487500D03*
D12*
X135890000Y-85407500D03*
D11*
X138430000Y-90487500D03*
D14*
X125900000Y-87907500D03*
X139500000Y-85367500D03*
D10*
X178625000Y-97625000D03*
D11*
X102076250Y-109537500D03*
D12*
X103346250Y-106997500D03*
D13*
X107156250Y-109537500D03*
D12*
X109696250Y-104457500D03*
D11*
X112236250Y-109537500D03*
D14*
X99706250Y-106957500D03*
X113306250Y-104417500D03*
D10*
X76200000Y-76200000D03*
D16*
X119380000Y-41910000D03*
D19*
X119380000Y-39875000D03*
X119380000Y-36325000D03*
D18*
X119380000Y-34290000D03*
D16*
X109855000Y-60960000D03*
D19*
X109855000Y-58925000D03*
X109855000Y-55375000D03*
D18*
X109855000Y-53340000D03*
D23*
X171125000Y-64293750D03*
X178125000Y-64293750D03*
D24*
X167825000Y-62293750D03*
X176325000Y-66293750D03*
X173325000Y-66293750D03*
X169325000Y-66293750D03*
M02*
