G04 #@! TF.GenerationSoftware,KiCad,Pcbnew,7.0.7*
G04 #@! TF.CreationDate,2023-09-30T17:43:00+09:00*
G04 #@! TF.ProjectId,ind-assemble_L,696e642d-6173-4736-956d-626c655f4c2e,rev?*
G04 #@! TF.SameCoordinates,Original*
G04 #@! TF.FileFunction,Copper,L2,Bot*
G04 #@! TF.FilePolarity,Positive*
%FSLAX46Y46*%
G04 Gerber Fmt 4.6, Leading zero omitted, Abs format (unit mm)*
G04 Created by KiCad (PCBNEW 7.0.7) date 2023-09-30 17:43:00*
%MOMM*%
%LPD*%
G01*
G04 APERTURE LIST*
G04 #@! TA.AperFunction,SMDPad,CuDef*
%ADD10R,3.300000X3.000000*%
G04 #@! TD*
G04 #@! TA.AperFunction,SMDPad,CuDef*
%ADD11R,2.200000X0.820000*%
G04 #@! TD*
G04 #@! TA.AperFunction,ComponentPad*
%ADD12R,1.397000X1.397000*%
G04 #@! TD*
G04 #@! TA.AperFunction,SMDPad,CuDef*
%ADD13R,1.300000X0.950000*%
G04 #@! TD*
G04 #@! TA.AperFunction,ComponentPad*
%ADD14C,1.397000*%
G04 #@! TD*
G04 #@! TA.AperFunction,SMDPad,CuDef*
%ADD15R,0.950000X1.300000*%
G04 #@! TD*
G04 #@! TA.AperFunction,ComponentPad*
%ADD16C,2.000000*%
G04 #@! TD*
G04 #@! TA.AperFunction,ComponentPad*
%ADD17C,1.524000*%
G04 #@! TD*
G04 #@! TA.AperFunction,WasherPad*
%ADD18C,1.210000*%
G04 #@! TD*
G04 #@! TA.AperFunction,ComponentPad*
%ADD19O,2.200000X1.300000*%
G04 #@! TD*
G04 #@! TA.AperFunction,ViaPad*
%ADD20C,0.800000*%
G04 #@! TD*
G04 #@! TA.AperFunction,Conductor*
%ADD21C,0.250000*%
G04 #@! TD*
G04 #@! TA.AperFunction,Conductor*
%ADD22C,0.500000*%
G04 #@! TD*
G04 APERTURE END LIST*
D10*
X73512500Y-49807500D03*
X87112500Y-47267500D03*
D11*
X74387500Y-37350000D03*
X68487500Y-37350000D03*
X68487500Y-38850000D03*
X74387500Y-38850000D03*
D10*
X63987500Y-30757500D03*
X77587500Y-28217500D03*
X54462500Y-49807500D03*
X68062500Y-47267500D03*
D12*
X103346250Y-116681250D03*
D13*
X105381250Y-116681250D03*
X108931250Y-116681250D03*
D14*
X110966250Y-116681250D03*
D12*
X128905000Y-60960000D03*
D15*
X128905000Y-58925000D03*
X128905000Y-55375000D03*
D14*
X128905000Y-53340000D03*
D12*
X62865000Y-78581250D03*
D13*
X64900000Y-78581250D03*
X68450000Y-78581250D03*
D14*
X70485000Y-78581250D03*
D10*
X123518750Y-106957500D03*
X137118750Y-104417500D03*
X78275000Y-68857500D03*
X91875000Y-66317500D03*
X135425000Y-68857500D03*
X149025000Y-66317500D03*
D12*
X95567500Y-116335000D03*
D15*
X95567500Y-114300000D03*
X95567500Y-110750000D03*
D14*
X95567500Y-108715000D03*
D10*
X25887500Y-30757500D03*
X39487500Y-28217500D03*
X75893750Y-106957500D03*
X89493750Y-104417500D03*
X130662500Y-49807500D03*
X144262500Y-47267500D03*
D12*
X167957500Y-116681250D03*
D13*
X169992500Y-116681250D03*
X173542500Y-116681250D03*
D14*
X175577500Y-116681250D03*
D12*
X139988750Y-78581250D03*
D13*
X142023750Y-78581250D03*
X145573750Y-78581250D03*
D14*
X147608750Y-78581250D03*
D12*
X86042500Y-99060000D03*
D15*
X86042500Y-97025000D03*
X86042500Y-93475000D03*
D14*
X86042500Y-91440000D03*
D12*
X149542500Y-97631250D03*
D13*
X151577500Y-97631250D03*
X155127500Y-97631250D03*
D14*
X157162500Y-97631250D03*
D10*
X116375000Y-68857500D03*
X129975000Y-66317500D03*
X68750000Y-87907500D03*
X82350000Y-85367500D03*
X83037500Y-30757500D03*
X96637500Y-28217500D03*
D12*
X43180000Y-41910000D03*
D15*
X43180000Y-39875000D03*
X43180000Y-36325000D03*
D14*
X43180000Y-34290000D03*
D12*
X57467500Y-80010000D03*
D15*
X57467500Y-77975000D03*
X57467500Y-74425000D03*
D14*
X57467500Y-72390000D03*
D10*
X44937500Y-30757500D03*
X58537500Y-28217500D03*
X111612500Y-49807500D03*
X125212500Y-47267500D03*
D11*
X126556250Y-76200000D03*
X120656250Y-76200000D03*
X120656250Y-77700000D03*
X126556250Y-77700000D03*
D10*
X106850000Y-87907500D03*
X120450000Y-85367500D03*
D12*
X55721250Y-116681250D03*
D13*
X57756250Y-116681250D03*
X61306250Y-116681250D03*
D14*
X63341250Y-116681250D03*
D10*
X59225000Y-68857500D03*
X72825000Y-66317500D03*
X144950000Y-106957500D03*
X158550000Y-104417500D03*
D12*
X144145000Y-40481250D03*
D13*
X146180000Y-40481250D03*
X149730000Y-40481250D03*
D14*
X151765000Y-40481250D03*
D11*
X62580000Y-88987500D03*
X56680000Y-88987500D03*
X56680000Y-90487500D03*
X62580000Y-90487500D03*
D12*
X162242500Y-117503750D03*
D15*
X162242500Y-115468750D03*
X162242500Y-111918750D03*
D14*
X162242500Y-109883750D03*
D10*
X121137500Y-30757500D03*
X134737500Y-28217500D03*
D12*
X133667500Y-80010000D03*
D15*
X133667500Y-77975000D03*
X133667500Y-74425000D03*
D14*
X133667500Y-72390000D03*
D10*
X164000000Y-106957500D03*
X177600000Y-104417500D03*
X28268750Y-106957500D03*
X41868750Y-104417500D03*
D12*
X100330000Y-41910000D03*
D15*
X100330000Y-39875000D03*
X100330000Y-36325000D03*
D14*
X100330000Y-34290000D03*
D12*
X95250000Y-80010000D03*
D15*
X95250000Y-77975000D03*
X95250000Y-74425000D03*
D14*
X95250000Y-72390000D03*
D10*
X102087500Y-30757500D03*
X115687500Y-28217500D03*
X92562500Y-49807500D03*
X106162500Y-47267500D03*
D12*
X52705000Y-60960000D03*
D15*
X52705000Y-58925000D03*
X52705000Y-55375000D03*
D14*
X52705000Y-53340000D03*
D10*
X30650000Y-49807500D03*
X44250000Y-47267500D03*
D11*
X131537500Y-38981250D03*
X125637500Y-38981250D03*
X125637500Y-40481250D03*
X131537500Y-40481250D03*
D12*
X134620000Y-59531250D03*
D13*
X136655000Y-59531250D03*
X140205000Y-59531250D03*
D14*
X142240000Y-59531250D03*
D12*
X47942500Y-116335000D03*
D15*
X47942500Y-114300000D03*
X47942500Y-110750000D03*
D14*
X47942500Y-108715000D03*
D12*
X71755000Y-60960000D03*
D15*
X71755000Y-58925000D03*
X71755000Y-55375000D03*
D14*
X71755000Y-53340000D03*
D12*
X138430000Y-41910000D03*
D15*
X138430000Y-39875000D03*
X138430000Y-36325000D03*
D14*
X138430000Y-34290000D03*
D12*
X124142500Y-99060000D03*
D15*
X124142500Y-97025000D03*
X124142500Y-93475000D03*
D14*
X124142500Y-91440000D03*
D16*
X154625000Y-48375000D03*
X154625000Y-54875000D03*
D12*
X81280000Y-41910000D03*
D15*
X81280000Y-39875000D03*
X81280000Y-36325000D03*
D14*
X81280000Y-34290000D03*
D10*
X33031250Y-68857500D03*
X46631250Y-66317500D03*
D12*
X143192500Y-99060000D03*
D15*
X143192500Y-97025000D03*
X143192500Y-93475000D03*
D14*
X143192500Y-91440000D03*
D12*
X140811250Y-115728750D03*
D15*
X140811250Y-113693750D03*
X140811250Y-110143750D03*
D14*
X140811250Y-108108750D03*
D12*
X62230000Y-41910000D03*
D15*
X62230000Y-39875000D03*
X62230000Y-36325000D03*
D14*
X62230000Y-34290000D03*
D10*
X37843750Y-87947500D03*
X51343750Y-85407500D03*
D11*
X40831250Y-58781250D03*
X34931250Y-58781250D03*
X34931250Y-60281250D03*
X40831250Y-60281250D03*
D12*
X100358750Y-78581250D03*
D13*
X102393750Y-78581250D03*
X105943750Y-78581250D03*
D14*
X107978750Y-78581250D03*
D10*
X144950000Y-87907500D03*
X158550000Y-85367500D03*
X140187500Y-30757500D03*
X153787500Y-28217500D03*
D12*
X90805000Y-60960000D03*
D15*
X90805000Y-58925000D03*
X90805000Y-55375000D03*
D14*
X90805000Y-53340000D03*
D11*
X86075000Y-113550000D03*
X80175000Y-113550000D03*
X80175000Y-115050000D03*
X86075000Y-115050000D03*
D12*
X105092500Y-99060000D03*
D15*
X105092500Y-97025000D03*
X105092500Y-93475000D03*
D14*
X105092500Y-91440000D03*
D10*
X52081250Y-106957500D03*
X65681250Y-104417500D03*
X87800000Y-87907500D03*
X101400000Y-85367500D03*
X97325000Y-68857500D03*
X110925000Y-66317500D03*
D12*
X66992500Y-99060000D03*
D15*
X66992500Y-97025000D03*
X66992500Y-93475000D03*
D14*
X66992500Y-91440000D03*
D17*
X161625000Y-28545000D03*
X161625000Y-31085000D03*
X161625000Y-33625000D03*
X161625000Y-36165000D03*
X161625000Y-38705000D03*
X161625000Y-41245000D03*
X161625000Y-43785000D03*
X161625000Y-46325000D03*
X161625000Y-48865000D03*
X161625000Y-51405000D03*
X161625000Y-53945000D03*
X161625000Y-56485000D03*
X176865000Y-56485000D03*
X176865000Y-53945000D03*
X176865000Y-51405000D03*
X176865000Y-48865000D03*
X176865000Y-46325000D03*
X176865000Y-43785000D03*
X176865000Y-41245000D03*
X176865000Y-38705000D03*
X176865000Y-36165000D03*
X176865000Y-33625000D03*
X176865000Y-31085000D03*
X176865000Y-28545000D03*
D10*
X125900000Y-87907500D03*
X139500000Y-85367500D03*
X99706250Y-106957500D03*
X113306250Y-104417500D03*
D12*
X119380000Y-41910000D03*
D15*
X119380000Y-39875000D03*
X119380000Y-36325000D03*
D14*
X119380000Y-34290000D03*
D12*
X109855000Y-60960000D03*
D15*
X109855000Y-58925000D03*
X109855000Y-55375000D03*
D14*
X109855000Y-53340000D03*
D18*
X171125000Y-64293750D03*
X178125000Y-64293750D03*
D19*
X167825000Y-62293750D03*
X176325000Y-66293750D03*
X173325000Y-66293750D03*
X169325000Y-66293750D03*
D20*
X147637500Y-47625000D03*
X136625000Y-41625000D03*
X49625000Y-53625000D03*
X48410562Y-52410562D03*
X126691938Y-55691938D03*
X125490562Y-54490562D03*
X47625000Y-69625000D03*
X49625000Y-69625000D03*
X164625000Y-63625000D03*
X163612701Y-65612701D03*
X131225500Y-70625000D03*
X132924500Y-70625000D03*
X58625000Y-92625000D03*
X55524312Y-92725688D03*
X155625000Y-63625000D03*
X155625000Y-65625000D03*
X103524312Y-89524312D03*
X123333062Y-85333062D03*
X163625000Y-104625000D03*
X162612701Y-66612701D03*
X162625000Y-63625000D03*
X162625000Y-69625000D03*
X89625000Y-106625000D03*
X133625000Y-40625000D03*
X170625000Y-60625000D03*
X172600500Y-61625000D03*
X92625000Y-114625000D03*
X174625000Y-61625000D03*
X157625000Y-41625000D03*
X90625000Y-114625000D03*
X167625000Y-59625000D03*
X91625000Y-117625000D03*
X62625000Y-24625000D03*
X24625000Y-43625000D03*
X118625000Y-24625000D03*
X123625000Y-42625000D03*
X152625000Y-42625000D03*
X75625000Y-117625000D03*
X64625000Y-43625000D03*
X165097299Y-41152701D03*
X130625000Y-37625000D03*
X68625000Y-40625000D03*
X156625000Y-38625000D03*
X142875000Y-43908000D03*
X130338000Y-43908000D03*
X141625000Y-40625000D03*
X46612701Y-51637299D03*
X47637299Y-50612701D03*
X34625000Y-56625000D03*
X70725688Y-44725688D03*
X48625000Y-44625000D03*
X32625000Y-57625000D03*
X50625000Y-68625000D03*
X45625000Y-57625000D03*
X54625000Y-88349500D03*
X50625000Y-70625000D03*
X43410562Y-57410562D03*
X54625000Y-85625000D03*
X57000688Y-91799312D03*
X54625000Y-82625000D03*
X77306812Y-114306812D03*
X52625000Y-88625000D03*
X55625000Y-87625000D03*
X72668813Y-106581187D03*
X71467437Y-107782563D03*
X78405487Y-115610888D03*
X64524312Y-101725688D03*
X67625000Y-101618000D03*
X113625000Y-80734500D03*
X90625000Y-107625000D03*
X86625000Y-111625000D03*
X92625000Y-107625000D03*
X88625000Y-111625000D03*
X106575500Y-90007002D03*
X30625000Y-55625000D03*
X31393897Y-52664345D03*
X32625000Y-63625000D03*
X134625000Y-62625000D03*
X158625000Y-48625000D03*
X149625000Y-62625000D03*
X52524312Y-46524312D03*
X59625000Y-65625000D03*
X57625000Y-95625000D03*
X66625000Y-88625000D03*
X54725688Y-46725688D03*
X169109598Y-44140402D03*
X78896580Y-100353420D03*
X84413951Y-90836049D03*
X84625000Y-88625000D03*
X77625000Y-101625000D03*
X73625000Y-46625000D03*
X156625000Y-81625000D03*
X96725688Y-106725688D03*
X166625000Y-63625000D03*
X108625000Y-92625000D03*
X174748812Y-50625000D03*
X108625000Y-85625000D03*
X96524312Y-104524312D03*
X105625000Y-84625000D03*
X171625000Y-46625000D03*
X116625000Y-66625000D03*
X117625000Y-25625000D03*
X118625000Y-77625000D03*
X118625000Y-74625000D03*
X124625000Y-83625000D03*
X114625000Y-64625000D03*
X126034438Y-85034438D03*
X170625000Y-44513500D03*
X172693049Y-42556951D03*
X172625000Y-47625000D03*
X121625000Y-25625000D03*
X173625000Y-44513500D03*
X140625000Y-27625000D03*
X179625000Y-44625000D03*
D21*
X43180000Y-34290000D02*
X39037500Y-30147500D01*
X43180000Y-36325000D02*
X43180000Y-34290000D01*
X39037500Y-30147500D02*
X39037500Y-28217500D01*
X100330000Y-41910000D02*
X100330000Y-39875000D01*
X144145000Y-40481250D02*
X146180000Y-40481250D01*
X138430000Y-41910000D02*
X138430000Y-39875000D01*
X119380000Y-41910000D02*
X119380000Y-39875000D01*
X138430000Y-39875000D02*
X143538750Y-39875000D01*
X62230000Y-41910000D02*
X62230000Y-39875000D01*
X136910000Y-41910000D02*
X136625000Y-41625000D01*
X147637500Y-43973750D02*
X144145000Y-40481250D01*
X138430000Y-41910000D02*
X136910000Y-41910000D01*
X143538750Y-39875000D02*
X144145000Y-40481250D01*
X147637500Y-47625000D02*
X147637500Y-43973750D01*
X81280000Y-41910000D02*
X81280000Y-39875000D01*
X43180000Y-41910000D02*
X43180000Y-39875000D01*
X62230000Y-36325000D02*
X62230000Y-34290000D01*
X58087500Y-30147500D02*
X58087500Y-28217500D01*
X62230000Y-34290000D02*
X58087500Y-30147500D01*
X81280000Y-34290000D02*
X77137500Y-30147500D01*
X77137500Y-30147500D02*
X77137500Y-28217500D01*
X81280000Y-34290000D02*
X81280000Y-36325000D01*
X100330000Y-36325000D02*
X100330000Y-34290000D01*
X96187500Y-30147500D02*
X96187500Y-28217500D01*
X100330000Y-34290000D02*
X96187500Y-30147500D01*
X119380000Y-34290000D02*
X119380000Y-36325000D01*
X119380000Y-34290000D02*
X115237500Y-30147500D01*
X115237500Y-30147500D02*
X115237500Y-28217500D01*
X138430000Y-34290000D02*
X138430000Y-36325000D01*
X134287500Y-30147500D02*
X134287500Y-28217500D01*
X138430000Y-34290000D02*
X134287500Y-30147500D01*
X151066500Y-39782750D02*
X151066500Y-30488500D01*
X151066500Y-30488500D02*
X153337500Y-28217500D01*
X151765000Y-40481250D02*
X149730000Y-40481250D01*
X151765000Y-40481250D02*
X151066500Y-39782750D01*
X49625000Y-53625000D02*
X49910000Y-53340000D01*
X43800000Y-47800000D02*
X48410562Y-52410562D01*
X49910000Y-53340000D02*
X52705000Y-53340000D01*
X43800000Y-47267500D02*
X43800000Y-47800000D01*
X52705000Y-53340000D02*
X52705000Y-55375000D01*
X128905000Y-60960000D02*
X128905000Y-58925000D01*
X109855000Y-60960000D02*
X109855000Y-58925000D01*
X134620000Y-59531250D02*
X136655000Y-59531250D01*
X52705000Y-60960000D02*
X52705000Y-58925000D01*
X71755000Y-60960000D02*
X71755000Y-58925000D01*
X90805000Y-60960000D02*
X90805000Y-58925000D01*
X67612500Y-49197500D02*
X71755000Y-53340000D01*
X71755000Y-53340000D02*
X71755000Y-55375000D01*
X67612500Y-47267500D02*
X67612500Y-49197500D01*
X90805000Y-53340000D02*
X90805000Y-55375000D01*
X90805000Y-53340000D02*
X86662500Y-49197500D01*
X86662500Y-49197500D02*
X86662500Y-47267500D01*
X105712500Y-49197500D02*
X105712500Y-47267500D01*
X109855000Y-53340000D02*
X105712500Y-49197500D01*
X109855000Y-53340000D02*
X109855000Y-55375000D01*
X126737500Y-53243624D02*
X125490562Y-54490562D01*
X126691938Y-55553062D02*
X128905000Y-53340000D01*
X124762500Y-47267500D02*
X126737500Y-49242500D01*
X126691938Y-55691938D02*
X126691938Y-55553062D01*
X126737500Y-49242500D02*
X126737500Y-53243624D01*
X128905000Y-53340000D02*
X128905000Y-55375000D01*
X144567500Y-57203750D02*
X142240000Y-59531250D01*
X143812500Y-47267500D02*
X144567500Y-48022500D01*
X140205000Y-59531250D02*
X142240000Y-59531250D01*
X144567500Y-48022500D02*
X144567500Y-57203750D01*
X46181250Y-68181250D02*
X47625000Y-69625000D01*
X54702500Y-69625000D02*
X57467500Y-72390000D01*
X46181250Y-66317500D02*
X46181250Y-68181250D01*
X57467500Y-72390000D02*
X57467500Y-74425000D01*
X49625000Y-69625000D02*
X54702500Y-69625000D01*
X142023750Y-78581250D02*
X139988750Y-78581250D01*
X57467500Y-77975000D02*
X57467500Y-80010000D01*
X102393750Y-78581250D02*
X100358750Y-78581250D01*
X95250000Y-77975000D02*
X95250000Y-80010000D01*
X64900000Y-78581250D02*
X62865000Y-78581250D01*
X164625000Y-63625000D02*
X164625000Y-64600402D01*
X164625000Y-64600402D02*
X163612701Y-65612701D01*
X133667500Y-77975000D02*
X133667500Y-80010000D01*
X73130000Y-75936250D02*
X70485000Y-78581250D01*
X73130000Y-67072500D02*
X73130000Y-75936250D01*
X72375000Y-66317500D02*
X73130000Y-67072500D01*
X70485000Y-78581250D02*
X68450000Y-78581250D01*
X91425000Y-66317500D02*
X95250000Y-70142500D01*
X95250000Y-72390000D02*
X95250000Y-74425000D01*
X95250000Y-70142500D02*
X95250000Y-72390000D01*
X111230000Y-75330000D02*
X107978750Y-78581250D01*
X107978750Y-78581250D02*
X105943750Y-78581250D01*
X110475000Y-66317500D02*
X111230000Y-67072500D01*
X111230000Y-67072500D02*
X111230000Y-75330000D01*
X131225500Y-67225500D02*
X131225500Y-70625000D01*
X129525000Y-66317500D02*
X130317500Y-66317500D01*
X132924500Y-71647000D02*
X133667500Y-72390000D01*
X130317500Y-66317500D02*
X131225500Y-67225500D01*
X133667500Y-72390000D02*
X133667500Y-74425000D01*
X132924500Y-70625000D02*
X132924500Y-71647000D01*
X149330000Y-76860000D02*
X147608750Y-78581250D01*
X147608750Y-78581250D02*
X145573750Y-78581250D01*
X148575000Y-66317500D02*
X149330000Y-67072500D01*
X149330000Y-67072500D02*
X149330000Y-76860000D01*
X53448750Y-88012500D02*
X53448750Y-90650126D01*
X66992500Y-91440000D02*
X66992500Y-93475000D01*
X53448750Y-90650126D02*
X55524312Y-92725688D01*
X50843750Y-85407500D02*
X53448750Y-88012500D01*
X65807500Y-92625000D02*
X66992500Y-91440000D01*
X58625000Y-92625000D02*
X65807500Y-92625000D01*
X151577500Y-97631250D02*
X149542500Y-97631250D01*
X105092500Y-97025000D02*
X105092500Y-99060000D01*
X86042500Y-97025000D02*
X86042500Y-99060000D01*
X124142500Y-97025000D02*
X124142500Y-99060000D01*
X155625000Y-63625000D02*
X155625000Y-65625000D01*
X66992500Y-97025000D02*
X66992500Y-99060000D01*
X143192500Y-97025000D02*
X143192500Y-99060000D01*
X81900000Y-85367500D02*
X81900000Y-87297500D01*
X86042500Y-91440000D02*
X86042500Y-93475000D01*
X81900000Y-87297500D02*
X86042500Y-91440000D01*
X105092500Y-91440000D02*
X105092500Y-93475000D01*
X100950000Y-85367500D02*
X100950000Y-86950000D01*
X100950000Y-86950000D02*
X103524312Y-89524312D01*
X124142500Y-91440000D02*
X124142500Y-93475000D01*
X120000000Y-85367500D02*
X120034438Y-85333062D01*
X120034438Y-85333062D02*
X123333062Y-85333062D01*
X139050000Y-87297500D02*
X143192500Y-91440000D01*
X143192500Y-91440000D02*
X143192500Y-93475000D01*
X139050000Y-85367500D02*
X139050000Y-87297500D01*
X158855000Y-95938750D02*
X157162500Y-97631250D01*
X158100000Y-85367500D02*
X158855000Y-86122500D01*
X158855000Y-86122500D02*
X158855000Y-95938750D01*
X157162500Y-97631250D02*
X155127500Y-97631250D01*
X47942500Y-108715000D02*
X47942500Y-110750000D01*
X47942500Y-108715000D02*
X43645000Y-104417500D01*
X43645000Y-104417500D02*
X41418750Y-104417500D01*
X162625000Y-69625000D02*
X163075000Y-70075000D01*
X169992500Y-116681250D02*
X167957500Y-116681250D01*
X163075000Y-70075000D02*
X163075000Y-104075000D01*
X105381250Y-116681250D02*
X103346250Y-116681250D01*
X57756250Y-116681250D02*
X55721250Y-116681250D01*
X95567500Y-114300000D02*
X95567500Y-116335000D01*
X162625000Y-66600402D02*
X162612701Y-66612701D01*
X47942500Y-114300000D02*
X47942500Y-116335000D01*
X162242500Y-117503750D02*
X162242500Y-115468750D01*
X162625000Y-63625000D02*
X162625000Y-66600402D01*
X163075000Y-104075000D02*
X163625000Y-104625000D01*
X140811250Y-115728750D02*
X140811250Y-113693750D01*
X62642750Y-115982750D02*
X62642750Y-107006000D01*
X63341250Y-116681250D02*
X62642750Y-115982750D01*
X62642750Y-107006000D02*
X65231250Y-104417500D01*
X63341250Y-116681250D02*
X61306250Y-116681250D01*
X89625000Y-104998750D02*
X89043750Y-104417500D01*
X95567500Y-108715000D02*
X95567500Y-110750000D01*
X89625000Y-106625000D02*
X89625000Y-104998750D01*
X113611250Y-114036250D02*
X110966250Y-116681250D01*
X110966250Y-116681250D02*
X108931250Y-116681250D01*
X112856250Y-104417500D02*
X113611250Y-105172500D01*
X113611250Y-105172500D02*
X113611250Y-114036250D01*
X140811250Y-108108750D02*
X140811250Y-110143750D01*
X137120000Y-104417500D02*
X140811250Y-108108750D01*
X136668750Y-104417500D02*
X137120000Y-104417500D01*
X158100000Y-105741250D02*
X162242500Y-109883750D01*
X158100000Y-104417500D02*
X158100000Y-105741250D01*
X162242500Y-109883750D02*
X162242500Y-111918750D01*
X177905000Y-105172500D02*
X177905000Y-114353750D01*
X177150000Y-104417500D02*
X177905000Y-105172500D01*
X175577500Y-116681250D02*
X173542500Y-116681250D01*
X177905000Y-114353750D02*
X175577500Y-116681250D01*
D22*
X126206250Y-77700000D02*
X126206250Y-83661250D01*
X41741250Y-60281250D02*
X52362500Y-49660000D01*
X52362500Y-47887500D02*
X55775000Y-44475000D01*
X132075000Y-54885775D02*
X132075000Y-73175000D01*
X85725000Y-115050000D02*
X86985000Y-115050000D01*
X86985000Y-115050000D02*
X87625000Y-114410000D01*
X127550000Y-77700000D02*
X126206250Y-77700000D01*
X176865000Y-59385000D02*
X174625000Y-61625000D01*
X55775000Y-44475000D02*
X69775000Y-44475000D01*
X67633284Y-90291500D02*
X62426000Y-90291500D01*
X133625000Y-40625000D02*
X131331250Y-40625000D01*
X157625000Y-54199027D02*
X157625000Y-41625000D01*
X170680635Y-66293750D02*
X169325000Y-66293750D01*
X61515000Y-85512500D02*
X56304968Y-85512500D01*
X176865000Y-36165000D02*
X178077000Y-37377000D01*
X74037500Y-40212500D02*
X74037500Y-38850000D01*
X56304968Y-85512500D02*
X48731250Y-77938782D01*
X64625000Y-89352500D02*
X64625000Y-88622500D01*
X48731250Y-63731250D02*
X45281250Y-60281250D01*
X92625000Y-109625000D02*
X92625000Y-114625000D01*
X131187500Y-45232500D02*
X128562500Y-47857500D01*
X69775000Y-44475000D02*
X74037500Y-40212500D01*
X178077000Y-55273000D02*
X176865000Y-56485000D01*
X62426000Y-90291500D02*
X62230000Y-90487500D01*
X131187500Y-40481250D02*
X131187500Y-45232500D01*
X62230000Y-90487500D02*
X63490000Y-90487500D01*
X87625000Y-114410000D02*
X87625000Y-111406250D01*
X97625000Y-104625000D02*
X92625000Y-109625000D01*
X120880000Y-88987500D02*
X118437500Y-88987500D01*
X128562500Y-52191500D02*
X129380725Y-52191500D01*
X52362500Y-49660000D02*
X52362500Y-47887500D01*
X116800000Y-91523034D02*
X103698034Y-104625000D01*
X103698034Y-104625000D02*
X97625000Y-104625000D01*
X64625000Y-88622500D02*
X61515000Y-85512500D01*
X129380725Y-52191500D02*
X132075000Y-54885775D01*
X45281250Y-60281250D02*
X40481250Y-60281250D01*
X116800000Y-90625000D02*
X116800000Y-91523034D01*
X126206250Y-83661250D02*
X120880000Y-88987500D01*
X40481250Y-60281250D02*
X41741250Y-60281250D01*
X118437500Y-88987500D02*
X116800000Y-90625000D01*
X164050973Y-60625000D02*
X170625000Y-60625000D01*
X63490000Y-90487500D02*
X64625000Y-89352500D01*
X87625000Y-111406250D02*
X85843750Y-109625000D01*
X85843750Y-109625000D02*
X85843750Y-108501966D01*
X164050973Y-60625000D02*
X157625000Y-54199027D01*
X86150000Y-114625000D02*
X85725000Y-115050000D01*
X172600500Y-64373885D02*
X170680635Y-66293750D01*
X132075000Y-73175000D02*
X127550000Y-77700000D01*
X85843750Y-108501966D02*
X67633284Y-90291500D01*
X176865000Y-56485000D02*
X176865000Y-59385000D01*
X90625000Y-114625000D02*
X86150000Y-114625000D01*
X48731250Y-77938782D02*
X48731250Y-63731250D01*
X172600500Y-61625000D02*
X172600500Y-64373885D01*
X131331250Y-40625000D02*
X131187500Y-40481250D01*
X178077000Y-37377000D02*
X178077000Y-55273000D01*
X128562500Y-47857500D02*
X128562500Y-52191500D01*
D21*
X167625000Y-44705000D02*
X161625000Y-38705000D01*
X167625000Y-59625000D02*
X167625000Y-44705000D01*
D22*
X68837500Y-37350000D02*
X67577500Y-37350000D01*
X104750000Y-89500000D02*
X91625000Y-102625000D01*
X164165000Y-31085000D02*
X161625000Y-33625000D01*
X63342500Y-32707500D02*
X67985000Y-37350000D01*
X104750000Y-85957500D02*
X104750000Y-89500000D01*
X107090418Y-85957500D02*
X104750000Y-85957500D01*
X125987500Y-38981250D02*
X124727500Y-38981250D01*
X67985000Y-37350000D02*
X68837500Y-37350000D01*
X67577500Y-37350000D02*
X64625000Y-40302500D01*
X64625000Y-40302500D02*
X64625000Y-43625000D01*
X180475000Y-34695000D02*
X176865000Y-31085000D01*
X61887500Y-32707500D02*
X63342500Y-32707500D01*
X118625000Y-32295000D02*
X118625000Y-24625000D01*
X28887500Y-52387500D02*
X35281250Y-58781250D01*
X55262500Y-88987500D02*
X57030000Y-88987500D01*
X161625000Y-33625000D02*
X161625000Y-36165000D01*
X121006250Y-76200000D02*
X116847918Y-76200000D01*
X55130000Y-91130000D02*
X55130000Y-89120000D01*
X78436250Y-113550000D02*
X67781250Y-102895000D01*
X119713750Y-32707500D02*
X119037500Y-32707500D01*
X176865000Y-31085000D02*
X164165000Y-31085000D01*
X123625000Y-40083750D02*
X123625000Y-41630000D01*
X156075000Y-41715000D02*
X156075000Y-53425000D01*
X161625000Y-36165000D02*
X156075000Y-41715000D01*
X156075000Y-53425000D02*
X154625000Y-54875000D01*
X62625000Y-24625000D02*
X61887500Y-25362500D01*
X24062500Y-50006250D02*
X26443750Y-52387500D01*
X176325000Y-66293750D02*
X177680635Y-66293750D01*
X152625000Y-52875000D02*
X152625000Y-42625000D01*
X177680635Y-66293750D02*
X180475000Y-63499385D01*
X79265000Y-113550000D02*
X80525000Y-113550000D01*
X80525000Y-113550000D02*
X78436250Y-113550000D01*
X127312500Y-53870000D02*
X112941338Y-68241162D01*
X112941338Y-68241162D02*
X112941338Y-71460088D01*
X125987500Y-38981250D02*
X119713750Y-32707500D01*
X154625000Y-54875000D02*
X152625000Y-52875000D01*
X75625000Y-117625000D02*
X75625000Y-117190000D01*
X112941338Y-71460088D02*
X117681250Y-76200000D01*
X117681250Y-76200000D02*
X121006250Y-76200000D01*
X26443750Y-52387500D02*
X28887500Y-52387500D01*
X180475000Y-63499385D02*
X180475000Y-34695000D01*
X123625000Y-42625000D02*
X123625000Y-40083750D01*
X123625000Y-41630000D02*
X127312500Y-45317500D01*
X55130000Y-89120000D02*
X55262500Y-88987500D01*
X61887500Y-25362500D02*
X61887500Y-32707500D01*
X75625000Y-117190000D02*
X79265000Y-113550000D01*
X119037500Y-32707500D02*
X118625000Y-32295000D01*
X91625000Y-102625000D02*
X91625000Y-117625000D01*
X124727500Y-38981250D02*
X123625000Y-40083750D01*
X127312500Y-45317500D02*
X127312500Y-53870000D01*
X24062500Y-44187500D02*
X24062500Y-50006250D01*
X67781250Y-102467500D02*
X66467500Y-102467500D01*
X116847918Y-76200000D02*
X107090418Y-85957500D01*
X24625000Y-43625000D02*
X24062500Y-44187500D01*
X67781250Y-102895000D02*
X67781250Y-102467500D01*
X66467500Y-102467500D02*
X55130000Y-91130000D01*
D21*
X170625000Y-56123624D02*
X170625000Y-46680402D01*
X173325000Y-58823624D02*
X170625000Y-56123624D01*
X170625000Y-46680402D02*
X165097299Y-41152701D01*
X173325000Y-66293750D02*
X173325000Y-58823624D01*
X131187500Y-38981250D02*
X131187500Y-38187500D01*
X68625000Y-40625000D02*
X68625000Y-39062500D01*
X68625000Y-39062500D02*
X68837500Y-38850000D01*
X131187500Y-38187500D02*
X130625000Y-37625000D01*
X142875000Y-43908000D02*
X142875000Y-41875000D01*
X125987500Y-40658027D02*
X129237473Y-43908000D01*
X142875000Y-41875000D02*
X141625000Y-40625000D01*
X125987500Y-40481250D02*
X125987500Y-40658027D01*
X129237473Y-43908000D02*
X130338000Y-43908000D01*
X156625000Y-33545000D02*
X161625000Y-28545000D01*
X156625000Y-38625000D02*
X156625000Y-33545000D01*
X47637299Y-45612701D02*
X47637299Y-50612701D01*
X76175000Y-39276376D02*
X70725688Y-44725688D01*
X48625000Y-44625000D02*
X47637299Y-45612701D01*
X46612701Y-51637299D02*
X41625000Y-56625000D01*
X32625000Y-57625000D02*
X32625000Y-58635000D01*
X75350000Y-37350000D02*
X76175000Y-38175000D01*
X34271250Y-60281250D02*
X35281250Y-60281250D01*
X74037500Y-37350000D02*
X75350000Y-37350000D01*
X41625000Y-56625000D02*
X34625000Y-56625000D01*
X76175000Y-38175000D02*
X76175000Y-39276376D01*
X32625000Y-58635000D02*
X34271250Y-60281250D01*
X50625000Y-62625000D02*
X50625000Y-68625000D01*
X41274874Y-59546250D02*
X43410562Y-57410562D01*
X57000688Y-91799312D02*
X57000688Y-90516812D01*
X40481250Y-58781250D02*
X41246250Y-59546250D01*
X54625000Y-88349500D02*
X54625000Y-85625000D01*
X57000688Y-90516812D02*
X57030000Y-90487500D01*
X50625000Y-70625000D02*
X50625000Y-78625000D01*
X41246250Y-59546250D02*
X41274874Y-59546250D01*
X50625000Y-78625000D02*
X54625000Y-82625000D01*
X45625000Y-57625000D02*
X50625000Y-62625000D01*
X57932500Y-94900000D02*
X64524312Y-101491812D01*
X61044277Y-87625000D02*
X55625000Y-87625000D01*
X62230000Y-88810723D02*
X61044277Y-87625000D01*
X52625000Y-90851681D02*
X56673319Y-94900000D01*
X72668813Y-106541890D02*
X72668813Y-106581187D01*
X62230000Y-88987500D02*
X62230000Y-88810723D01*
X79964112Y-115610888D02*
X80525000Y-115050000D01*
X78405487Y-115610888D02*
X79964112Y-115610888D01*
X71467437Y-107782563D02*
X77306812Y-113621938D01*
X67744923Y-101618000D02*
X72668813Y-106541890D01*
X67625000Y-101618000D02*
X67744923Y-101618000D01*
X77306812Y-113621938D02*
X77306812Y-114306812D01*
X56673319Y-94900000D02*
X57932500Y-94900000D01*
X52625000Y-88625000D02*
X52625000Y-90851681D01*
X64524312Y-101491812D02*
X64524312Y-101725688D01*
X119725305Y-77700000D02*
X121006250Y-77700000D01*
X117459500Y-76900000D02*
X118925305Y-76900000D01*
X85725000Y-112525000D02*
X86625000Y-111625000D01*
X105056170Y-90007002D02*
X106575500Y-90007002D01*
X85725000Y-113550000D02*
X85725000Y-112525000D01*
X92625000Y-107625000D02*
X92625000Y-102438172D01*
X88625000Y-111625000D02*
X90625000Y-109625000D01*
X92625000Y-102438172D02*
X105056170Y-90007002D01*
X118925305Y-76900000D02*
X119725305Y-77700000D01*
X113625000Y-80734500D02*
X117459500Y-76900000D01*
X90625000Y-109625000D02*
X90625000Y-107625000D01*
X32625000Y-63625000D02*
X32625000Y-68001250D01*
X29625000Y-96666250D02*
X29625000Y-106051250D01*
X31100000Y-49807500D02*
X31393897Y-50101397D01*
X33481250Y-68857500D02*
X33481250Y-78835450D01*
X30625000Y-66001250D02*
X33481250Y-68857500D01*
X29625000Y-106051250D02*
X28718750Y-106957500D01*
X38343750Y-83697950D02*
X38343750Y-87947500D01*
X30625000Y-55625000D02*
X30625000Y-66001250D01*
X26337500Y-30757500D02*
X26337500Y-45045000D01*
X32625000Y-68001250D02*
X33481250Y-68857500D01*
X31393897Y-50101397D02*
X31393897Y-52664345D01*
X38343750Y-87947500D02*
X29625000Y-96666250D01*
X33481250Y-78835450D02*
X38343750Y-83697950D01*
X26337500Y-45045000D02*
X31100000Y-49807500D01*
X149105803Y-63144197D02*
X146110518Y-63144197D01*
X176865000Y-41245000D02*
X173238000Y-37618000D01*
X54725688Y-49620688D02*
X54912500Y-49807500D01*
X56887493Y-95625000D02*
X52531250Y-99981243D01*
X59675000Y-68857500D02*
X59675000Y-78382500D01*
X57625000Y-95625000D02*
X56887493Y-95625000D01*
X146110518Y-63144197D02*
X144960965Y-64293750D01*
X69200000Y-87907500D02*
X69200000Y-88387957D01*
X69200000Y-88387957D02*
X68962957Y-88625000D01*
X149625000Y-62625000D02*
X149105803Y-63144197D01*
X173238000Y-37618000D02*
X161174749Y-37618000D01*
X52531250Y-99981243D02*
X52531250Y-106957500D01*
X54912500Y-64095000D02*
X59675000Y-68857500D01*
X54912500Y-49807500D02*
X54912500Y-64095000D01*
X45387500Y-39387500D02*
X52524312Y-46524312D01*
X161174749Y-37618000D02*
X158625000Y-40167749D01*
X59675000Y-78382500D02*
X69200000Y-87907500D01*
X59625000Y-65625000D02*
X59625000Y-68807500D01*
X45387500Y-30757500D02*
X45387500Y-39387500D01*
X54725688Y-46725688D02*
X54725688Y-49620688D01*
X68962957Y-88625000D02*
X66625000Y-88625000D01*
X59625000Y-68807500D02*
X59675000Y-68857500D01*
X144960965Y-64293750D02*
X136293750Y-64293750D01*
X158625000Y-40167749D02*
X158625000Y-48625000D01*
X136293750Y-64293750D02*
X134625000Y-62625000D01*
X88250000Y-87467500D02*
X88250000Y-87907500D01*
X64437500Y-30757500D02*
X66272500Y-28922500D01*
X78725000Y-68857500D02*
X78725000Y-77942500D01*
X176865000Y-43785000D02*
X174911951Y-41831951D01*
X84413951Y-90836049D02*
X78896580Y-96353420D01*
X73625000Y-49470000D02*
X73962500Y-49807500D01*
X85342500Y-87907500D02*
X84625000Y-88625000D01*
X174911951Y-41831951D02*
X171418049Y-41831951D01*
X76343750Y-102906250D02*
X76343750Y-106957500D01*
X76625000Y-37427500D02*
X76625000Y-47145000D01*
X77625000Y-101625000D02*
X76343750Y-102906250D01*
X66272500Y-28922500D02*
X71922500Y-28922500D01*
X73625000Y-46625000D02*
X73625000Y-49470000D01*
X75142500Y-32142500D02*
X75142500Y-35945000D01*
X73962500Y-63655000D02*
X78725000Y-68417500D01*
X78725000Y-77942500D02*
X88250000Y-87467500D01*
X73962500Y-49807500D02*
X73962500Y-63655000D01*
X76625000Y-47145000D02*
X73962500Y-49807500D01*
X88250000Y-87907500D02*
X85342500Y-87907500D01*
X75142500Y-35945000D02*
X76625000Y-37427500D01*
X171418049Y-41831951D02*
X169109598Y-44140402D01*
X71922500Y-28922500D02*
X75142500Y-32142500D01*
X78896580Y-96353420D02*
X78896580Y-100353420D01*
X78725000Y-68417500D02*
X78725000Y-68857500D01*
X97775000Y-78044500D02*
X104355500Y-84625000D01*
X104355500Y-84625000D02*
X105625000Y-84625000D01*
X176865000Y-46325000D02*
X174748812Y-48441188D01*
X108625000Y-86582500D02*
X107300000Y-87907500D01*
X83487500Y-30757500D02*
X83487500Y-35862500D01*
X96524312Y-103725688D02*
X96524312Y-104524312D01*
X156625000Y-73625000D02*
X156625000Y-81625000D01*
X107845000Y-91845000D02*
X107845000Y-88452500D01*
X97775000Y-68417500D02*
X97775000Y-68857500D01*
X108625000Y-85625000D02*
X108625000Y-86582500D01*
X107845000Y-88452500D02*
X107300000Y-87907500D01*
X108625000Y-92625000D02*
X107845000Y-91845000D01*
X93012500Y-49807500D02*
X93012500Y-63655000D01*
X99924438Y-106725688D02*
X100156250Y-106957500D01*
X93012500Y-63655000D02*
X97775000Y-68417500D01*
X97775000Y-68857500D02*
X97775000Y-78044500D01*
X107300000Y-87907500D02*
X107300000Y-92950000D01*
X107300000Y-92950000D02*
X96524312Y-103725688D01*
X166625000Y-63625000D02*
X156625000Y-73625000D01*
X174748812Y-48441188D02*
X174748812Y-50625000D01*
X96725688Y-106725688D02*
X99924438Y-106725688D01*
X93012500Y-45387500D02*
X93012500Y-49807500D01*
X83487500Y-35862500D02*
X93012500Y-45387500D01*
X116867500Y-26382500D02*
X117625000Y-25625000D01*
X118625000Y-77828750D02*
X124421250Y-83625000D01*
X102537500Y-30757500D02*
X102537500Y-39842500D01*
X102537500Y-39842500D02*
X112062500Y-49367500D01*
X116825000Y-72825000D02*
X118625000Y-74625000D01*
X116625000Y-66625000D02*
X116625000Y-68657500D01*
X126034438Y-87591938D02*
X126350000Y-87907500D01*
X106912500Y-26382500D02*
X116867500Y-26382500D01*
X112062500Y-62062500D02*
X114625000Y-64625000D01*
X126350000Y-87907500D02*
X126350000Y-104576250D01*
X116625000Y-68657500D02*
X116825000Y-68857500D01*
X124421250Y-83625000D02*
X124625000Y-83625000D01*
X102537500Y-30757500D02*
X106912500Y-26382500D01*
X126350000Y-104576250D02*
X123968750Y-106957500D01*
X126034438Y-85034438D02*
X126034438Y-87591938D01*
X116825000Y-68857500D02*
X116825000Y-72825000D01*
X170625000Y-45625000D02*
X171625000Y-46625000D01*
X170625000Y-44513500D02*
X170625000Y-45625000D01*
X112062500Y-49807500D02*
X112062500Y-62062500D01*
X112062500Y-49367500D02*
X112062500Y-49807500D01*
X118625000Y-77625000D02*
X118625000Y-77828750D01*
X134625000Y-46295000D02*
X131112500Y-49807500D01*
X127922500Y-28922500D02*
X131625000Y-32625000D01*
X131112500Y-49807500D02*
X131112500Y-53110103D01*
X134625000Y-39908750D02*
X134625000Y-46295000D01*
X145400000Y-87907500D02*
X145400000Y-106957500D01*
X135875000Y-68857500D02*
X135875000Y-77942500D01*
X131625000Y-32625000D02*
X131625000Y-36908750D01*
X145400000Y-87467500D02*
X145400000Y-87907500D01*
X133596500Y-66579000D02*
X135875000Y-68857500D01*
X131625000Y-36908750D02*
X134625000Y-39908750D01*
X121625000Y-30720000D02*
X121625000Y-25625000D01*
X172693049Y-42556951D02*
X172625000Y-42625000D01*
X131112500Y-53110103D02*
X133596500Y-55594103D01*
X123422500Y-28922500D02*
X127922500Y-28922500D01*
X172625000Y-42625000D02*
X172625000Y-47625000D01*
X121587500Y-30757500D02*
X123422500Y-28922500D01*
X135875000Y-77942500D02*
X145400000Y-87467500D01*
X121587500Y-30757500D02*
X121625000Y-30720000D01*
X133596500Y-55594103D02*
X133596500Y-66579000D01*
X174024312Y-44912812D02*
X174024312Y-51104312D01*
X174024312Y-51104312D02*
X176865000Y-53945000D01*
X162625000Y-105132500D02*
X164450000Y-106957500D01*
X140625000Y-30745000D02*
X140625000Y-27625000D01*
X151625000Y-78592500D02*
X156575000Y-83542500D01*
X173625000Y-44513500D02*
X174024312Y-44912812D01*
X156575000Y-83542500D02*
X160525000Y-83542500D01*
X140637500Y-33362044D02*
X146900456Y-39625000D01*
X140637500Y-30757500D02*
X140637500Y-33362044D01*
X160525000Y-83542500D02*
X162625000Y-85642500D01*
X162625000Y-85642500D02*
X162625000Y-105132500D01*
X140637500Y-30757500D02*
X140625000Y-30745000D01*
X147098750Y-39625000D02*
X151625000Y-44151250D01*
X146900456Y-39625000D02*
X147098750Y-39625000D01*
X151625000Y-44151250D02*
X151625000Y-78592500D01*
X179625000Y-36385000D02*
X176865000Y-33625000D01*
X179625000Y-44625000D02*
X179625000Y-36385000D01*
M02*
