G04 #@! TF.GenerationSoftware,KiCad,Pcbnew,7.0.7*
G04 #@! TF.CreationDate,2023-09-30T17:43:00+09:00*
G04 #@! TF.ProjectId,ind-assemble_L,696e642d-6173-4736-956d-626c655f4c2e,rev?*
G04 #@! TF.SameCoordinates,Original*
G04 #@! TF.FileFunction,Profile,NP*
%FSLAX46Y46*%
G04 Gerber Fmt 4.6, Leading zero omitted, Abs format (unit mm)*
G04 Created by KiCad (PCBNEW 7.0.7) date 2023-09-30 17:43:00*
%MOMM*%
%LPD*%
G01*
G04 APERTURE LIST*
G04 #@! TA.AperFunction,Profile*
%ADD10C,0.100000*%
G04 #@! TD*
G04 #@! TA.AperFunction,Profile*
%ADD11C,0.120000*%
G04 #@! TD*
G04 APERTURE END LIST*
D10*
X180975000Y-26193750D02*
X180975000Y-116681250D01*
X180975000Y-26193750D02*
G75*
G03*
X178593750Y-23812500I-2381300J-50D01*
G01*
X178593750Y-119062500D02*
G75*
G03*
X180975000Y-116681250I-50J2381300D01*
G01*
X23812500Y-116681250D02*
G75*
G03*
X26193750Y-119062500I2381250J0D01*
G01*
X23812500Y-116681250D02*
X23812500Y-26193750D01*
X26193750Y-23812500D02*
X178593750Y-23812500D01*
X178593750Y-119062500D02*
X26193750Y-119062500D01*
X26193750Y-23812500D02*
G75*
G03*
X23812500Y-26193750I0J-2381250D01*
G01*
D11*
X69687500Y-36500000D02*
X73187500Y-36500000D01*
X69687500Y-39700000D02*
X69687500Y-36500000D01*
X73187500Y-36500000D02*
X73187500Y-39700000D01*
X73187500Y-39700000D02*
X69687500Y-39700000D01*
X121856250Y-75350000D02*
X125356250Y-75350000D01*
X121856250Y-78550000D02*
X121856250Y-75350000D01*
X125356250Y-75350000D02*
X125356250Y-78550000D01*
X125356250Y-78550000D02*
X121856250Y-78550000D01*
X57880000Y-88137500D02*
X61380000Y-88137500D01*
X57880000Y-91337500D02*
X57880000Y-88137500D01*
X61380000Y-88137500D02*
X61380000Y-91337500D01*
X61380000Y-91337500D02*
X57880000Y-91337500D01*
X126837500Y-38131250D02*
X130337500Y-38131250D01*
X126837500Y-41331250D02*
X126837500Y-38131250D01*
X130337500Y-38131250D02*
X130337500Y-41331250D01*
X130337500Y-41331250D02*
X126837500Y-41331250D01*
X36131250Y-57931250D02*
X39631250Y-57931250D01*
X36131250Y-61131250D02*
X36131250Y-57931250D01*
X39631250Y-57931250D02*
X39631250Y-61131250D01*
X39631250Y-61131250D02*
X36131250Y-61131250D01*
X81375000Y-112700000D02*
X84875000Y-112700000D01*
X81375000Y-115900000D02*
X81375000Y-112700000D01*
X84875000Y-112700000D02*
X84875000Y-115900000D01*
X84875000Y-115900000D02*
X81375000Y-115900000D01*
M02*
