<?xml version="1.0" standalone="no"?>
 <!DOCTYPE svg PUBLIC "-//W3C//DTD SVG 1.1//EN" 
 "http://www.w3.org/Graphics/SVG/1.1/DTD/svg11.dtd"> 
<svg
  xmlns:svg="http://www.w3.org/2000/svg"
  xmlns="http://www.w3.org/2000/svg"
  xmlns:xlink="http://www.w3.org/1999/xlink"
  version="1.1"
  width="34.4170mm" height="76.2762mm" viewBox="0.0000 0.0000 34.4170 76.2762">
<title>SVG Image created as ind-assemble_L-Edge_Cuts.svg date 2023/12/06 13:39:29 </title>
  <desc>Image generated by PCBNEW </desc>
<g style="fill:#000000; fill-opacity:1.0000;stroke:#000000; stroke-opacity:1.0000;
stroke-linecap:round; stroke-linejoin:round;"
 transform="translate(0 0) scale(1 1)">
</g>
<g style="fill:#000000; fill-opacity:0.0; 
stroke:#000000; stroke-width:0.0000; stroke-opacity:1; 
stroke-linecap:round; stroke-linejoin:round;">
</g>
<g style="fill:#000000; fill-opacity:0.0; 
stroke:#000000; stroke-width:0.1000; stroke-opacity:1; 
stroke-linecap:round; stroke-linejoin:round;">
<path d="M14.3375 57.2000
L14.3375 73.8687
" />
<path d="M0.0500 35.7687 A2.3813 2.3813 0.0 0 0 2.4313 38.1500" />
<path d="M33.3875 2.4312
L33.3875 73.8687
" />
<path d="M11.9563 0.0500 A2.3813 2.3813 0.0 0 0 9.5750 2.4313" />
<path d="M9.5750 19.1000
L2.4312 19.1000
" />
<path d="M4.8125 38.1500
L4.8125 54.8188
" />
<path d="M2.4312 38.1500
L4.8125 38.1500
" />
<path d="M4.8125 54.8188 A2.3813 2.3813 0.0 0 0 7.1937 57.2000" />
<path d="M7.1937 57.2000
L14.3375 57.2000
" />
<path d="M16.7188 76.2500
L31.0062 76.2500
" />
<path d="M9.5750 2.4312
L9.5750 19.1000
" />
<path d="M33.3875 2.4313 A2.3813 2.3813 0.0 0 0 31.0062 0.0500" />
<path d="M2.4313 19.1000 A2.3813 2.3813 0.0 0 0 0.0500 21.4813" />
<path d="M31.0062 76.2500 A2.3813 2.3813 0.0 0 0 33.3875 73.8687" />
<path d="M11.9562 0.0500
L31.0062 0.0500
" />
<path d="M0.0500 21.4812
L0.0500 35.7687
" />
<path d="M14.3375 73.8687 A2.3813 2.3813 0.0 0 0 16.7188 76.2500" />
</g>
<g style="fill:#000000; fill-opacity:0.0; 
stroke:#000000; stroke-width:0.0100; stroke-opacity:1; 
stroke-linecap:round; stroke-linejoin:round;">
<circle cx="31.0375" cy="73.8625" r="1.1000" /> 
<circle cx="2.0375" cy="20.8625" r="1.1000" /> 
<circle cx="32.0375" cy="2.6625" r="1.1000" /> 
<circle cx="17.0375" cy="73.8625" r="1.1000" /> 
<circle cx="7.0375" cy="54.8625" r="1.1000" /> 
<circle cx="11.2375" cy="2.0625" r="1.1000" /> 
<circle cx="2.0375" cy="35.8625" r="1.1000" /> 
<g >
</g>
<g >
</g>
<g >
</g>
<g >
</g>
<g >
</g>
<g >
</g>
<g >
</g>
<g >
</g>
<g >
</g>
<g >
</g>
</g> 
</svg>
