<?xml version="1.0" standalone="no"?>
 <!DOCTYPE svg PUBLIC "-//W3C//DTD SVG 1.1//EN" 
 "http://www.w3.org/Graphics/SVG/1.1/DTD/svg11.dtd"> 
<svg
  xmlns:svg="http://www.w3.org/2000/svg"
  xmlns="http://www.w3.org/2000/svg"
  xmlns:xlink="http://www.w3.org/1999/xlink"
  version="1.1"
  width="157.3022mm" height="95.3770mm" viewBox="0.0000 0.0000 157.3022 95.3770">
<title>SVG Image created as ind-assemble_L-F_Fab.svg date 2023/12/06 13:35:37 </title>
  <desc>Image generated by PCBNEW </desc>
<g style="fill:#000000; fill-opacity:1.0000;stroke:#000000; stroke-opacity:1.0000;
stroke-linecap:round; stroke-linejoin:round;"
 transform="translate(0 0) scale(1 1)">
</g>
<g style="fill:#000000; fill-opacity:0.0; 
stroke:#000000; stroke-width:0.0000; stroke-opacity:1; 
stroke-linecap:round; stroke-linejoin:round;">
</g>
<g style="fill:#000000; fill-opacity:0.0; 
stroke:#000000; stroke-width:0.1500; stroke-opacity:1; 
stroke-linecap:round; stroke-linejoin:round;">
<path d="M47.7000 19.1250
L47.7000 38.1750
" />
<path d="M47.7000 38.1750
L66.7500 38.1750
" />
<path d="M66.7500 19.1250
L47.7000 19.1250
" />
<path d="M66.7500 38.1750
L66.7500 19.1250
" />
<path d="M38.1750 0.0750
L38.1750 19.1250
" />
<path d="M38.1750 19.1250
L57.2250 19.1250
" />
<path d="M57.2250 0.0750
L38.1750 0.0750
" />
<path d="M57.2250 19.1250
L57.2250 0.0750
" />
<path d="M28.6500 19.1250
L28.6500 38.1750
" />
<path d="M28.6500 38.1750
L47.7000 38.1750
" />
<path d="M47.7000 19.1250
L28.6500 19.1250
" />
<path d="M47.7000 38.1750
L47.7000 19.1250
" />
<path d="M95.3250 76.2750
L95.3250 95.3250
" />
<path d="M95.3250 95.3250
L119.1375 95.3250
" />
<path d="M119.1375 76.2750
L95.3250 76.2750
" />
<path d="M119.1375 95.3250
L119.1375 76.2750
" />
<path d="M52.4625 38.1750
L52.4625 57.2250
" />
<path d="M52.4625 57.2250
L71.5125 57.2250
" />
<path d="M71.5125 38.1750
L52.4625 38.1750
" />
<path d="M71.5125 57.2250
L71.5125 38.1750
" />
<path d="M109.6125 38.1750
L109.6125 57.2250
" />
<path d="M109.6125 57.2250
L128.6625 57.2250
" />
<path d="M128.6625 38.1750
L109.6125 38.1750
" />
<path d="M128.6625 57.2250
L128.6625 38.1750
" />
<path d="M0.0750 0.0750
L0.0750 19.1250
" />
<path d="M0.0750 19.1250
L19.1250 19.1250
" />
<path d="M19.1250 0.0750
L0.0750 0.0750
" />
<path d="M19.1250 19.1250
L19.1250 0.0750
" />
<path d="M47.7000 76.2750
L47.7000 95.3250
" />
<path d="M47.7000 95.3250
L71.5125 95.3250
" />
<path d="M71.5125 76.2750
L47.7000 76.2750
" />
<path d="M71.5125 95.3250
L71.5125 76.2750
" />
<path d="M104.8500 19.1250
L104.8500 38.1750
" />
<path d="M104.8500 38.1750
L123.9000 38.1750
" />
<path d="M123.9000 19.1250
L104.8500 19.1250
" />
<path d="M123.9000 38.1750
L123.9000 19.1250
" />
<path d="M90.5625 38.1750
L90.5625 57.2250
" />
<path d="M90.5625 57.2250
L109.6125 57.2250
" />
<path d="M109.6125 38.1750
L90.5625 38.1750
" />
<path d="M109.6125 57.2250
L109.6125 38.1750
" />
<path d="M42.9375 57.2250
L42.9375 76.2750
" />
<path d="M42.9375 76.2750
L61.9875 76.2750
" />
<path d="M61.9875 57.2250
L42.9375 57.2250
" />
<path d="M61.9875 76.2750
L61.9875 57.2250
" />
<path d="M57.2250 0.0750
L57.2250 19.1250
" />
<path d="M57.2250 19.1250
L76.2750 19.1250
" />
<path d="M76.2750 0.0750
L57.2250 0.0750
" />
<path d="M76.2750 19.1250
L76.2750 0.0750
" />
<path d="M19.1250 0.0750
L19.1250 19.1250
" />
<path d="M19.1250 19.1250
L38.1750 19.1250
" />
<path d="M38.1750 0.0750
L19.1250 0.0750
" />
<path d="M38.1750 19.1250
L38.1750 0.0750
" />
<path d="M85.8000 19.1250
L85.8000 38.1750
" />
<path d="M85.8000 38.1750
L104.8500 38.1750
" />
<path d="M104.8500 19.1250
L85.8000 19.1250
" />
<path d="M104.8500 38.1750
L104.8500 19.1250
" />
<path d="M81.0375 57.2250
L81.0375 76.2750
" />
<path d="M81.0375 76.2750
L100.0875 76.2750
" />
<path d="M100.0875 57.2250
L81.0375 57.2250
" />
<path d="M100.0875 76.2750
L100.0875 57.2250
" />
<path d="M33.4125 38.1750
L33.4125 57.2250
" />
<path d="M33.4125 57.2250
L52.4625 57.2250
" />
<path d="M52.4625 38.1750
L33.4125 38.1750
" />
<path d="M52.4625 57.2250
L52.4625 38.1750
" />
<path d="M119.1375 76.2750
L119.1375 95.3250
" />
<path d="M119.1375 95.3250
L138.1875 95.3250
" />
<path d="M138.1875 76.2750
L119.1375 76.2750
" />
<path d="M138.1875 95.3250
L138.1875 76.2750
" />
<path d="M95.3250 0.0750
L95.3250 19.1250
" />
<path d="M95.3250 19.1250
L114.3750 19.1250
" />
<path d="M114.3750 0.0750
L95.3250 0.0750
" />
<path d="M114.3750 19.1250
L114.3750 0.0750
" />
<path d="M138.1875 76.2750
L138.1875 95.3250
" />
<path d="M138.1875 95.3250
L157.2375 95.3250
" />
<path d="M157.2375 76.2750
L138.1875 76.2750
" />
<path d="M157.2375 95.3250
L157.2375 76.2750
" />
<path d="M0.0750 76.2750
L0.0750 95.3250
" />
<path d="M0.0750 95.3250
L23.8875 95.3250
" />
<path d="M23.8875 76.2750
L0.0750 76.2750
" />
<path d="M23.8875 95.3250
L23.8875 76.2750
" />
<path d="M76.2750 0.0750
L76.2750 19.1250
" />
<path d="M76.2750 19.1250
L95.3250 19.1250
" />
<path d="M95.3250 0.0750
L76.2750 0.0750
" />
<path d="M95.3250 19.1250
L95.3250 0.0750
" />
<path d="M66.7500 19.1250
L66.7500 38.1750
" />
<path d="M66.7500 38.1750
L85.8000 38.1750
" />
<path d="M85.8000 19.1250
L66.7500 19.1250
" />
<path d="M85.8000 38.1750
L85.8000 19.1250
" />
<path d="M0.0750 19.1250
L0.0750 38.1750
" />
<path d="M0.0750 38.1750
L28.6500 38.1750
" />
<path d="M28.6500 19.1250
L0.0750 19.1250
" />
<path d="M28.6500 38.1750
L28.6500 19.1250
" />
<path d="M0.0750 38.1750
L0.0750 57.2250
" />
<path d="M0.0750 57.2250
L33.4125 57.2250
" />
<path d="M33.4125 38.1750
L0.0750 38.1750
" />
<path d="M33.4125 57.2250
L33.4125 38.1750
" />
<path d="M0.0750 57.2250
L0.0750 76.2750
" />
<path d="M0.0750 76.2750
L42.9375 76.2750
" />
<path d="M42.9375 57.2250
L0.0750 57.2250
" />
<path d="M42.9375 76.2750
L42.9375 57.2250
" />
<path d="M119.1375 57.2250
L119.1375 76.2750
" />
<path d="M119.1375 76.2750
L138.1875 76.2750
" />
<path d="M138.1875 57.2250
L119.1375 57.2250
" />
<path d="M138.1875 76.2750
L138.1875 57.2250
" />
<path d="M114.3750 0.0750
L114.3750 19.1250
" />
<path d="M114.3750 19.1250
L133.4250 19.1250
" />
<path d="M133.4250 0.0750
L114.3750 0.0750
" />
<path d="M133.4250 19.1250
L133.4250 0.0750
" />
<path d="M23.8875 76.2750
L23.8875 95.3250
" />
<path d="M23.8875 95.3250
L47.7000 95.3250
" />
<path d="M47.7000 76.2750
L23.8875 76.2750
" />
<path d="M47.7000 95.3250
L47.7000 76.2750
" />
<path d="M61.9875 57.2250
L61.9875 76.2750
" />
<path d="M61.9875 76.2750
L81.0375 76.2750
" />
<path d="M81.0375 57.2250
L61.9875 57.2250
" />
<path d="M81.0375 76.2750
L81.0375 57.2250
" />
<path d="M71.5125 38.1750
L71.5125 57.2250
" />
<path d="M71.5125 57.2250
L90.5625 57.2250
" />
<path d="M90.5625 38.1750
L71.5125 38.1750
" />
<path d="M90.5625 57.2250
L90.5625 38.1750
" />
<path d="M100.0875 57.2250
L100.0875 76.2750
" />
<path d="M100.0875 76.2750
L119.1375 76.2750
" />
<path d="M119.1375 57.2250
L100.0875 57.2250
" />
<path d="M119.1375 76.2750
L119.1375 57.2250
" />
<path d="M71.5125 76.2750
L71.5125 95.3250
" />
<path d="M71.5125 95.3250
L95.3250 95.3250
" />
<path d="M95.3250 76.2750
L71.5125 76.2750
" />
<path d="M95.3250 95.3250
L95.3250 76.2750
" />
<g >
</g>
<g >
</g>
<g >
</g>
<g >
</g>
<g >
</g>
<g >
</g>
<g >
</g>
<g >
</g>
<g >
</g>
<g >
</g>
<g >
</g>
<g >
</g>
<g >
</g>
<g >
</g>
<g >
</g>
<g >
</g>
<g >
</g>
<g >
</g>
<g >
</g>
<g >
</g>
<g >
</g>
<g >
</g>
<g >
</g>
<g >
</g>
<g >
</g>
<g >
</g>
<g >
</g>
<g >
</g>
<g >
</g>
<g >
</g>
<g >
</g>
<g >
</g>
<g >
</g>
<g >
</g>
<g >
</g>
<g >
</g>
<g >
</g>
<g >
</g>
<g >
</g>
<g >
</g>
<g >
</g>
<g >
</g>
<g >
</g>
<g >
</g>
<g >
</g>
<g >
</g>
<g >
</g>
<g >
</g>
</g>
<g style="fill:#000000; fill-opacity:0.0; 
stroke:#000000; stroke-width:0.1500; stroke-opacity:1; 
stroke-linecap:round; stroke-linejoin:round;">
</g>
<g style="fill:#000000; fill-opacity:0.0; 
stroke:#000000; stroke-width:0.1000; stroke-opacity:1; 
stroke-linecap:round; stroke-linejoin:round;">
<path d="M138.1876 59.6062 A2.3814 2.3814 0.0 0 0 135.8063 57.2249" />
<path d="M126.2812 19.1250 A2.3813 2.3813 0.0 0 0 123.9000 21.5063" />
<path d="M131.0437 57.2250
L135.8063 57.2249
" />
<path d="M157.2375 78.6562
L157.2375 92.9437
" />
<path d="M123.9000 21.5062
L123.9000 35.7937
" />
</g>
<g style="fill:#000000; fill-opacity:1.0000; 
stroke:#000000; stroke-width:0.0000; stroke-opacity:1; 
stroke-linecap:round; stroke-linejoin:round;">
<circle cx="126.2812" cy="38.1750" r="0.0500" /> 
</g>
<g style="fill:#000000; fill-opacity:0.0; 
stroke:#000000; stroke-width:0.1000; stroke-opacity:1; 
stroke-linecap:round; stroke-linejoin:round;">
<path d="M128.6625 54.8437 A2.3813 2.3813 0.0 0 0 131.0438 57.2250" />
<path d="M133.4250 2.4563 A2.3813 2.3813 0.0 0 0 131.0437 0.0750" />
<path d="M157.2375 78.6563 A2.3813 2.3813 0.0 0 0 154.8562 76.2750" />
<path d="M154.8562 95.3250 A2.3813 2.3813 0.0 0 0 157.2375 92.9437" />
<path d="M0.0750 92.9437 A2.3813 2.3813 0.0 0 0 2.4562 95.3250" />
<path d="M0.0750 92.9437
L0.0750 2.4562
" />
<path d="M128.6625 40.5562
L128.6625 54.8438
" />
<path d="M138.1874 73.8938 A2.3814 2.3814 0.0 0 0 140.5687 76.2751" />
<path d="M133.4250 2.4562
L133.4250 16.7437
" />
<path d="M2.4562 0.0750
L131.0437 0.0750
" />
<path d="M140.5687 76.2751
L154.8562 76.2750
" />
<path d="M128.6625 40.5563 A2.3813 2.3813 0.0 0 0 126.2812 38.1750" />
<path d="M138.1876 59.6062
L138.1874 73.8938
" />
<path d="M154.8562 95.3250
L2.4562 95.3250
" />
<path d="M131.0437 19.1250
L126.2812 19.1250
" />
<path d="M123.9000 35.7937 A2.3813 2.3813 0.0 0 0 126.2812 38.1750" />
<path d="M2.4562 0.0750 A2.3813 2.3813 0.0 0 0 0.0750 2.4562" />
<path d="M131.0437 19.1250 A2.3813 2.3813 0.0 0 0 133.4250 16.7437" />
</g>
<g style="fill:#000000; fill-opacity:0.0; 
stroke:#000000; stroke-width:0.1500; stroke-opacity:1; 
stroke-linecap:round; stroke-linejoin:round;">
<path d="M50.1750 21.6000
L64.2750 21.6000
" />
<path d="M50.1750 35.7000
L50.1750 21.6000
" />
<path d="M64.2750 21.6000
L64.2750 35.7000
" />
<path d="M64.2750 35.7000
L50.1750 35.7000
" />
</g>
<g style="fill:#000000; fill-opacity:0.0; 
stroke:#000000; stroke-width:0.0100; stroke-opacity:1; 
stroke-linecap:round; stroke-linejoin:round;">
<circle cx="2.4562" cy="23.8875" r="1.1000" /> 
</g>
<g style="fill:#000000; fill-opacity:0.0; 
stroke:#000000; stroke-width:0.1500; stroke-opacity:1; 
stroke-linecap:round; stroke-linejoin:round;">
<path d="M40.6500 2.5500
L54.7500 2.5500
" />
<path d="M40.6500 16.6500
L40.6500 2.5500
" />
<path d="M54.7500 2.5500
L54.7500 16.6500
" />
<path d="M54.7500 16.6500
L40.6500 16.6500
" />
<path d="M31.1250 21.6000
L45.2250 21.6000
" />
<path d="M31.1250 35.7000
L31.1250 21.6000
" />
<path d="M45.2250 21.6000
L45.2250 35.7000
" />
<path d="M45.2250 35.7000
L31.1250 35.7000
" />
</g>
<g style="fill:#000000; fill-opacity:0.0; 
stroke:#000000; stroke-width:0.0100; stroke-opacity:1; 
stroke-linecap:round; stroke-linejoin:round;">
<circle cx="66.7500" cy="21.5062" r="1.1000" /> 
</g>
<g style="fill:#000000; fill-opacity:0.0; 
stroke:#000000; stroke-width:0.1500; stroke-opacity:1; 
stroke-linecap:round; stroke-linejoin:round;">
<path d="M100.1812 78.7500
L114.2812 78.7500
" />
<path d="M100.1812 92.8500
L100.1812 78.7500
" />
<path d="M114.2812 78.7500
L114.2812 92.8500
" />
<path d="M114.2812 92.8500
L100.1812 92.8500
" />
<path d="M54.9375 40.6500
L69.0375 40.6500
" />
<path d="M54.9375 54.7500
L54.9375 40.6500
" />
<path d="M69.0375 40.6500
L69.0375 54.7500
" />
<path d="M69.0375 54.7500
L54.9375 54.7500
" />
<path d="M112.0875 40.6500
L126.1875 40.6500
" />
<path d="M112.0875 54.7500
L112.0875 40.6500
" />
<path d="M126.1875 40.6500
L126.1875 54.7500
" />
<path d="M126.1875 54.7500
L112.0875 54.7500
" />
</g>
<g style="fill:#000000; fill-opacity:0.0; 
stroke:#000000; stroke-width:0.0100; stroke-opacity:1; 
stroke-linecap:round; stroke-linejoin:round;">
<circle cx="2.4562" cy="59.6062" r="1.1000" /> 
<circle cx="2.4562" cy="92.9437" r="1.1000" /> 
</g>
<g style="fill:#000000; fill-opacity:0.0; 
stroke:#000000; stroke-width:0.1500; stroke-opacity:1; 
stroke-linecap:round; stroke-linejoin:round;">
<path d="M2.5500 2.5500
L16.6500 2.5500
" />
<path d="M2.5500 16.6500
L2.5500 2.5500
" />
<path d="M16.6500 2.5500
L16.6500 16.6500
" />
<path d="M16.6500 16.6500
L2.5500 16.6500
" />
<path d="M52.5562 78.7500
L66.6562 78.7500
" />
<path d="M52.5562 92.8500
L52.5562 78.7500
" />
<path d="M66.6562 78.7500
L66.6562 92.8500
" />
<path d="M66.6562 92.8500
L52.5562 92.8500
" />
<path d="M107.3250 21.6000
L121.4250 21.6000
" />
<path d="M107.3250 35.7000
L107.3250 21.6000
" />
<path d="M121.4250 21.6000
L121.4250 35.7000
" />
<path d="M121.4250 35.7000
L107.3250 35.7000
" />
</g>
<g style="fill:#000000; fill-opacity:0.0; 
stroke:#000000; stroke-width:0.0100; stroke-opacity:1; 
stroke-linecap:round; stroke-linejoin:round;">
<circle cx="47.7000" cy="92.9437" r="1.1000" /> 
<circle cx="19.1250" cy="2.4562" r="1.1000" /> 
<circle cx="90.5625" cy="52.4625" r="1.1000" /> 
<circle cx="57.2250" cy="2.4562" r="1.1000" /> 
</g>
<g style="fill:#000000; fill-opacity:0.0; 
stroke:#000000; stroke-width:0.1500; stroke-opacity:1; 
stroke-linecap:round; stroke-linejoin:round;">
<path d="M93.0375 40.6500
L107.1375 40.6500
" />
<path d="M93.0375 54.7500
L93.0375 40.6500
" />
<path d="M107.1375 40.6500
L107.1375 54.7500
" />
<path d="M107.1375 54.7500
L93.0375 54.7500
" />
<path d="M45.4125 59.7000
L59.5125 59.7000
" />
<path d="M45.4125 73.8000
L45.4125 59.7000
" />
<path d="M59.5125 59.7000
L59.5125 73.8000
" />
<path d="M59.5125 73.8000
L45.4125 73.8000
" />
<path d="M59.7000 2.5500
L73.8000 2.5500
" />
<path d="M59.7000 16.6500
L59.7000 2.5500
" />
<path d="M73.8000 2.5500
L73.8000 16.6500
" />
<path d="M73.8000 16.6500
L59.7000 16.6500
" />
<path d="M21.6000 2.5500
L35.7000 2.5500
" />
<path d="M21.6000 16.6500
L21.6000 2.5500
" />
<path d="M35.7000 2.5500
L35.7000 16.6500
" />
<path d="M35.7000 16.6500
L21.6000 16.6500
" />
<path d="M88.2750 21.6000
L102.3750 21.6000
" />
<path d="M88.2750 35.7000
L88.2750 21.6000
" />
<path d="M102.3750 21.6000
L102.3750 35.7000
" />
<path d="M102.3750 35.7000
L88.2750 35.7000
" />
<path d="M83.5125 59.7000
L97.6125 59.7000
" />
<path d="M83.5125 73.8000
L83.5125 59.7000
" />
<path d="M97.6125 59.7000
L97.6125 73.8000
" />
<path d="M97.6125 73.8000
L83.5125 73.8000
" />
<path d="M35.8875 40.6500
L49.9875 40.6500
" />
<path d="M35.8875 54.7500
L35.8875 40.6500
" />
<path d="M49.9875 40.6500
L49.9875 54.7500
" />
<path d="M49.9875 54.7500
L35.8875 54.7500
" />
<path d="M121.6125 78.7500
L135.7125 78.7500
" />
<path d="M121.6125 92.8500
L121.6125 78.7500
" />
<path d="M135.7125 78.7500
L135.7125 92.8500
" />
<path d="M135.7125 92.8500
L121.6125 92.8500
" />
<path d="M97.8000 2.5500
L111.9000 2.5500
" />
<path d="M97.8000 16.6500
L97.8000 2.5500
" />
<path d="M111.9000 2.5500
L111.9000 16.6500
" />
<path d="M111.9000 16.6500
L97.8000 16.6500
" />
<path d="M140.6625 78.7500
L154.7625 78.7500
" />
<path d="M140.6625 92.8500
L140.6625 78.7500
" />
<path d="M154.7625 78.7500
L154.7625 92.8500
" />
<path d="M154.7625 92.8500
L140.6625 92.8500
" />
<path d="M4.9312 78.7500
L19.0312 78.7500
" />
<path d="M4.9312 92.8500
L4.9312 78.7500
" />
<path d="M19.0312 78.7500
L19.0312 92.8500
" />
<path d="M19.0312 92.8500
L4.9312 92.8500
" />
</g>
<g style="fill:#000000; fill-opacity:0.0; 
stroke:#000000; stroke-width:0.0100; stroke-opacity:1; 
stroke-linecap:round; stroke-linejoin:round;">
<circle cx="135.8063" cy="76.2750" r="1.1000" /> 
</g>
<g style="fill:#000000; fill-opacity:0.0; 
stroke:#000000; stroke-width:0.1500; stroke-opacity:1; 
stroke-linecap:round; stroke-linejoin:round;">
<path d="M78.7500 2.5500
L92.8500 2.5500
" />
<path d="M78.7500 16.6500
L78.7500 2.5500
" />
<path d="M92.8500 2.5500
L92.8500 16.6500
" />
<path d="M92.8500 16.6500
L78.7500 16.6500
" />
<path d="M69.2250 21.6000
L83.3250 21.6000
" />
<path d="M69.2250 35.7000
L69.2250 21.6000
" />
<path d="M83.3250 21.6000
L83.3250 35.7000
" />
<path d="M83.3250 35.7000
L69.2250 35.7000
" />
</g>
<g style="fill:#000000; fill-opacity:0.0; 
stroke:#000000; stroke-width:0.0100; stroke-opacity:1; 
stroke-linecap:round; stroke-linejoin:round;">
<circle cx="114.3750" cy="2.4562" r="1.1000" /> 
</g>
<g style="fill:#000000; fill-opacity:0.0; 
stroke:#000000; stroke-width:0.1500; stroke-opacity:1; 
stroke-linecap:round; stroke-linejoin:round;">
<path d="M7.3125 21.6000
L21.4125 21.6000
" />
<path d="M7.3125 35.7000
L7.3125 21.6000
" />
<path d="M21.4125 21.6000
L21.4125 35.7000
" />
<path d="M21.4125 35.7000
L7.3125 35.7000
" />
</g>
<g style="fill:#000000; fill-opacity:0.0; 
stroke:#000000; stroke-width:0.0100; stroke-opacity:1; 
stroke-linecap:round; stroke-linejoin:round;">
<circle cx="52.4625" cy="52.4625" r="1.1000" /> 
</g>
<g style="fill:#000000; fill-opacity:0.0; 
stroke:#000000; stroke-width:0.1500; stroke-opacity:1; 
stroke-linecap:round; stroke-linejoin:round;">
<path d="M9.6937 40.6500
L23.7937 40.6500
" />
<path d="M9.6937 54.7500
L9.6937 40.6500
" />
<path d="M23.7937 40.6500
L23.7937 54.7500
" />
<path d="M23.7937 54.7500
L9.6937 54.7500
" />
</g>
<g style="fill:#000000; fill-opacity:0.0; 
stroke:#000000; stroke-width:0.1200; stroke-opacity:1; 
stroke-linecap:round; stroke-linejoin:round;">
<path d="M6.1062 60.7500
L13.1062 60.7500
" />
<path d="M6.1062 75.5500
L6.1062 60.7500
" />
<path d="M13.1062 60.7500
L13.1062 75.5500
" />
<path d="M13.1062 75.5500
L6.1062 75.5500
" />
</g>
<g style="fill:#000000; fill-opacity:0.0; 
stroke:#000000; stroke-width:0.1500; stroke-opacity:1; 
stroke-linecap:round; stroke-linejoin:round;">
<path d="M14.4562 59.7000
L28.5562 59.7000
" />
<path d="M14.4562 73.8000
L14.4562 59.7000
" />
<path d="M28.5562 59.7000
L28.5562 73.8000
" />
<path d="M28.5562 73.8000
L14.4562 73.8000
" />
</g>
<g style="fill:#000000; fill-opacity:0.0; 
stroke:#000000; stroke-width:0.1200; stroke-opacity:1; 
stroke-linecap:round; stroke-linejoin:round;">
<path d="M29.9062 60.7500
L29.9062 75.5500
" />
<path d="M29.9062 75.5500
L36.9062 75.5500
" />
<path d="M36.9062 60.7500
L29.9062 60.7500
" />
<path d="M36.9062 75.5500
L36.9062 60.7500
" />
</g>
<g style="fill:#000000; fill-opacity:0.0; 
stroke:#000000; stroke-width:0.1500; stroke-opacity:1; 
stroke-linecap:round; stroke-linejoin:round;">
<path d="M121.6125 59.7000
L135.7125 59.7000
" />
<path d="M121.6125 73.8000
L121.6125 59.7000
" />
<path d="M135.7125 59.7000
L135.7125 73.8000
" />
<path d="M135.7125 73.8000
L121.6125 73.8000
" />
<path d="M116.8500 2.5500
L130.9500 2.5500
" />
<path d="M116.8500 16.6500
L116.8500 2.5500
" />
<path d="M130.9500 2.5500
L130.9500 16.6500
" />
<path d="M130.9500 16.6500
L116.8500 16.6500
" />
<path d="M28.7437 78.7500
L42.8438 78.7500
" />
<path d="M28.7437 92.8500
L28.7437 78.7500
" />
<path d="M42.8438 78.7500
L42.8438 92.8500
" />
<path d="M42.8438 92.8500
L28.7437 92.8500
" />
</g>
<g style="fill:#000000; fill-opacity:0.0; 
stroke:#000000; stroke-width:0.0100; stroke-opacity:1; 
stroke-linecap:round; stroke-linejoin:round;">
<circle cx="121.5187" cy="38.1750" r="1.1000" /> 
</g>
<g style="fill:#000000; fill-opacity:0.0; 
stroke:#000000; stroke-width:0.1500; stroke-opacity:1; 
stroke-linecap:round; stroke-linejoin:round;">
<path d="M64.4625 59.7000
L78.5625 59.7000
" />
<path d="M64.4625 73.8000
L64.4625 59.7000
" />
<path d="M78.5625 59.7000
L78.5625 73.8000
" />
<path d="M78.5625 73.8000
L64.4625 73.8000
" />
<path d="M73.9875 40.6500
L88.0875 40.6500
" />
<path d="M73.9875 54.7500
L73.9875 40.6500
" />
<path d="M88.0875 40.6500
L88.0875 54.7500
" />
<path d="M88.0875 54.7500
L73.9875 54.7500
" />
<path d="M102.5625 59.7000
L116.6625 59.7000
" />
<path d="M102.5625 73.8000
L102.5625 59.7000
" />
<path d="M116.6625 59.7000
L116.6625 73.8000
" />
<path d="M116.6625 73.8000
L102.5625 73.8000
" />
</g>
<g style="fill:#000000; fill-opacity:0.0; 
stroke:#000000; stroke-width:0.0100; stroke-opacity:1; 
stroke-linecap:round; stroke-linejoin:round;">
<circle cx="95.3250" cy="92.9437" r="1.1000" /> 
</g>
<g style="fill:#000000; fill-opacity:0.0; 
stroke:#000000; stroke-width:0.1500; stroke-opacity:1; 
stroke-linecap:round; stroke-linejoin:round;">
<path d="M76.3687 78.7500
L90.4688 78.7500
" />
<path d="M76.3687 92.8500
L76.3687 78.7500
" />
<path d="M90.4688 78.7500
L90.4688 92.8500
" />
<path d="M90.4688 92.8500
L76.3687 92.8500
" />
<g >
</g>
<g >
</g>
<g >
</g>
<g >
</g>
<g >
</g>
<g >
</g>
<g >
</g>
<g >
</g>
<g >
</g>
<g >
</g>
<g >
</g>
<g >
</g>
<g >
</g>
<g >
</g>
<g >
</g>
<g >
</g>
<g >
</g>
<g >
</g>
<g >
</g>
<g >
</g>
<g >
</g>
<g >
</g>
<g >
</g>
<g >
</g>
<g >
</g>
<g >
</g>
<g >
</g>
<g >
</g>
<g >
</g>
<g >
</g>
<g >
</g>
<g >
</g>
<g >
</g>
<g >
</g>
<g >
</g>
<g >
</g>
<g >
</g>
<g >
</g>
<g >
</g>
<g >
</g>
<g >
</g>
<g >
</g>
<g >
</g>
<g >
</g>
<g >
</g>
<g >
</g>
<g >
</g>
<g >
</g>
</g> 
</svg>
