<?xml version="1.0" standalone="no"?>
 <!DOCTYPE svg PUBLIC "-//W3C//DTD SVG 1.1//EN" 
 "http://www.w3.org/Graphics/SVG/1.1/DTD/svg11.dtd"> 
<svg
  xmlns:svg="http://www.w3.org/2000/svg"
  xmlns="http://www.w3.org/2000/svg"
  xmlns:xlink="http://www.w3.org/1999/xlink"
  version="1.1"
  width="181.1782mm" height="95.3770mm" viewBox="0.0000 0.0000 181.1782 95.3770">
<title>SVG Image created as ind-assemble_R-F_Fab.svg date 2023/12/06 13:20:50 </title>
  <desc>Image generated by PCBNEW </desc>
<g style="fill:#000000; fill-opacity:1.0000;stroke:#000000; stroke-opacity:1.0000;
stroke-linecap:round; stroke-linejoin:round;"
 transform="translate(0 0) scale(1 1)">
</g>
<g style="fill:#000000; fill-opacity:0.0; 
stroke:#000000; stroke-width:0.0000; stroke-opacity:1; 
stroke-linecap:round; stroke-linejoin:round;">
<g >
</g>
<g >
</g>
<g >
</g>
<g >
</g>
<g >
</g>
<g >
</g>
<g >
</g>
<g >
</g>
<g >
</g>
<g >
</g>
<g >
</g>
<g >
</g>
<g >
</g>
<g >
</g>
<g >
</g>
<g >
</g>
<g >
</g>
<g >
</g>
<g >
</g>
<g >
</g>
<g >
</g>
<g >
</g>
</g>
<g style="fill:#000000; fill-opacity:0.0; 
stroke:#000000; stroke-width:0.0000; stroke-opacity:1; 
stroke-linecap:round; stroke-linejoin:round;">
</g>
<g style="fill:#000000; fill-opacity:0.0; 
stroke:#000000; stroke-width:0.1000; stroke-opacity:1; 
stroke-linecap:round; stroke-linejoin:round;">
<path d="M2.4312 0.0775 A2.3813 2.3813 0.0 0 0 0.0500 2.4587" />
<path d="M178.6537 0.0500
L2.4312 0.0775
" />
<path d="M181.0349 2.4312
L181.0149 92.9437
" />
<path d="M0.0500 2.4587
L0.0562 93.1724
" />
<path d="M0.0563 93.1724 A2.3860 2.3860 0.0 0 0 2.4312 95.3296" />
<path d="M178.6337 95.3249 A2.3813 2.3813 0.0 0 0 181.0149 92.9437" />
<path d="M2.4312 95.3249
L178.6337 95.3249
" />
<path d="M181.0349 2.4312 A2.3813 2.3813 0.0 0 0 178.6537 0.0500" />
</g>
<g style="fill:#000000; fill-opacity:0.0; 
stroke:#000000; stroke-width:0.0100; stroke-opacity:1; 
stroke-linecap:round; stroke-linejoin:round;">
<circle cx="109.7375" cy="92.6175" r="1.1000" /> 
<circle cx="19.2500" cy="92.6175" r="1.1000" /> 
<circle cx="31.0575" cy="73.9975" r="1.1000" /> 
<circle cx="76.4000" cy="37.8487" r="1.1000" /> 
<circle cx="2.3775" cy="73.9575" r="1.1000" /> 
<circle cx="35.9187" cy="75.9487" r="1.1000" /> 
<circle cx="85.9250" cy="2.1300" r="1.1000" /> 
<circle cx="178.7937" cy="75.9487" r="1.1000" /> 
<circle cx="26.3937" cy="37.8487" r="1.1000" /> 
<circle cx="21.4875" cy="40.4175" r="1.1000" /> 
<circle cx="178.7937" cy="37.8487" r="1.1000" /> 
<circle cx="124.0250" cy="2.1300" r="1.1000" /> 
<circle cx="47.8250" cy="2.1300" r="1.1000" /> 
<circle cx="178.7937" cy="2.1300" r="1.1000" /> 
<circle cx="26.3075" cy="1.7875" r="1.1000" /> 
<circle cx="2.2975" cy="1.8375" r="1.1000" /> 
<circle cx="62.1125" cy="92.6175" r="1.1000" /> 
<circle cx="90.6875" cy="68.8050" r="1.1000" /> 
<circle cx="119.2625" cy="37.8487" r="1.1000" /> 
<g >
</g>
<g >
</g>
<g >
</g>
<g >
</g>
<g >
</g>
<g >
</g>
<g >
</g>
<g >
</g>
<g >
</g>
<g >
</g>
<g >
</g>
<g >
</g>
<g >
</g>
<g >
</g>
<g >
</g>
<g >
</g>
<g >
</g>
<g >
</g>
<g >
</g>
<g >
</g>
<g >
</g>
<g >
</g>
</g> 
</svg>
