G04 #@! TF.GenerationSoftware,KiCad,Pcbnew,7.0.7*
G04 #@! TF.CreationDate,2023-09-30T18:17:31+09:00*
G04 #@! TF.ProjectId,ind-assemble_R,696e642d-6173-4736-956d-626c655f522e,rev?*
G04 #@! TF.SameCoordinates,Original*
G04 #@! TF.FileFunction,Soldermask,Top*
G04 #@! TF.FilePolarity,Negative*
%FSLAX46Y46*%
G04 Gerber Fmt 4.6, Leading zero omitted, Abs format (unit mm)*
G04 Created by KiCad (PCBNEW 7.0.7) date 2023-09-30 18:17:31*
%MOMM*%
%LPD*%
G01*
G04 APERTURE LIST*
%ADD10R,1.397000X1.397000*%
%ADD11C,1.397000*%
%ADD12C,2.200000*%
%ADD13C,2.000000*%
%ADD14C,3.000000*%
%ADD15C,4.000000*%
%ADD16C,1.524000*%
%ADD17C,3.050000*%
%ADD18C,1.800000*%
%ADD19C,1.210000*%
%ADD20O,2.200000X1.300000*%
G04 APERTURE END LIST*
D10*
X191452500Y-47625000D03*
D11*
X199072500Y-47625000D03*
D12*
X142875000Y-123825000D03*
D13*
X104313750Y-40798750D03*
D14*
X105583750Y-38258750D03*
D15*
X109393750Y-40798750D03*
D14*
X111933750Y-35718750D03*
D13*
X114473750Y-40798750D03*
X101917500Y-116998750D03*
D14*
X103187500Y-114458750D03*
D15*
X106997500Y-116998750D03*
D14*
X109537500Y-111918750D03*
D13*
X112077500Y-116998750D03*
X66228750Y-40798750D03*
D14*
X67498750Y-38258750D03*
D15*
X71308750Y-40798750D03*
D14*
X73848750Y-35718750D03*
D13*
X76388750Y-40798750D03*
D12*
X52387500Y-123825000D03*
D13*
X142428750Y-40798750D03*
D14*
X143698750Y-38258750D03*
D15*
X147508750Y-40798750D03*
D14*
X150048750Y-35718750D03*
D13*
X152588750Y-40798750D03*
D10*
X127158750Y-123825000D03*
D11*
X134778750Y-123825000D03*
D10*
X119062500Y-125253750D03*
D11*
X119062500Y-117633750D03*
D13*
X94773750Y-59848750D03*
D14*
X96043750Y-57308750D03*
D15*
X99853750Y-59848750D03*
D14*
X102393750Y-54768750D03*
D13*
X104933750Y-59848750D03*
D10*
X71437500Y-125253750D03*
D11*
X71437500Y-117633750D03*
D10*
X39052500Y-123825000D03*
D11*
X46672500Y-123825000D03*
D10*
X166687500Y-125253750D03*
D11*
X166687500Y-117633750D03*
D10*
X157162500Y-49053750D03*
D11*
X157162500Y-41433750D03*
D10*
X161925000Y-106203750D03*
D11*
X161925000Y-98583750D03*
D13*
X156686250Y-78898750D03*
D14*
X157956250Y-76358750D03*
D15*
X161766250Y-78898750D03*
D14*
X164306250Y-73818750D03*
D13*
X166846250Y-78898750D03*
D12*
X64195000Y-105205000D03*
D13*
X128111250Y-97948750D03*
D14*
X129381250Y-95408750D03*
D15*
X133191250Y-97948750D03*
D14*
X135731250Y-92868750D03*
D13*
X138271250Y-97948750D03*
D10*
X114300000Y-87153750D03*
D11*
X114300000Y-79533750D03*
D13*
X137636250Y-78898750D03*
D14*
X138906250Y-76358750D03*
D15*
X142716250Y-78898750D03*
D14*
X145256250Y-73818750D03*
D13*
X147796250Y-78898750D03*
X57150000Y-38743750D03*
X57150000Y-45243750D03*
D12*
X109537500Y-69056250D03*
X35515000Y-105165000D03*
D13*
X90011250Y-97948750D03*
D14*
X91281250Y-95408750D03*
D15*
X95091250Y-97948750D03*
D14*
X97631250Y-92868750D03*
D13*
X100171250Y-97948750D03*
D10*
X76200000Y-87153750D03*
D11*
X76200000Y-79533750D03*
D13*
X85263750Y-40798750D03*
D14*
X86533750Y-38258750D03*
D15*
X90343750Y-40798750D03*
D14*
X92883750Y-35718750D03*
D13*
X95423750Y-40798750D03*
D16*
X35245000Y-38765000D03*
X35245000Y-41305000D03*
X35245000Y-43845000D03*
X35245000Y-46385000D03*
X35245000Y-48925000D03*
X35245000Y-51465000D03*
X35245000Y-54005000D03*
X35245000Y-56545000D03*
X35245000Y-59085000D03*
X35245000Y-61625000D03*
X35245000Y-64165000D03*
X35245000Y-66705000D03*
X50485000Y-66705000D03*
X50485000Y-64165000D03*
X50485000Y-61625000D03*
X50485000Y-59085000D03*
X50485000Y-56545000D03*
X50485000Y-54005000D03*
X50485000Y-51465000D03*
X50485000Y-48925000D03*
X50485000Y-46385000D03*
X50485000Y-43845000D03*
X50485000Y-41305000D03*
X50485000Y-38765000D03*
D12*
X69056250Y-107156250D03*
D13*
X37623750Y-116998750D03*
D14*
X38893750Y-114458750D03*
D15*
X42703750Y-116998750D03*
D14*
X45243750Y-111918750D03*
D13*
X47783750Y-116998750D03*
X61436250Y-78898750D03*
D14*
X62706250Y-76358750D03*
D15*
X66516250Y-78898750D03*
D14*
X69056250Y-73818750D03*
D13*
X71596250Y-78898750D03*
D10*
X119062500Y-49053750D03*
D11*
X119062500Y-41433750D03*
D12*
X119062500Y-33337500D03*
X211931250Y-107156250D03*
D10*
X152400000Y-87153750D03*
D11*
X152400000Y-79533750D03*
D10*
X176212500Y-49053750D03*
D11*
X176212500Y-41433750D03*
D13*
X194786250Y-59848750D03*
D14*
X196056250Y-57308750D03*
D15*
X199866250Y-59848750D03*
D14*
X202406250Y-54768750D03*
D13*
X204946250Y-59848750D03*
D10*
X185737500Y-68103750D03*
D11*
X185737500Y-60483750D03*
D12*
X59531250Y-69056250D03*
X54625000Y-71625000D03*
X211931250Y-69056250D03*
D13*
X197167500Y-116998750D03*
D14*
X198437500Y-114458750D03*
D15*
X202247500Y-116998750D03*
D14*
X204787500Y-111918750D03*
D13*
X207327500Y-116998750D03*
D12*
X157162500Y-33337500D03*
D13*
X109061250Y-97948750D03*
D14*
X110331250Y-95408750D03*
D15*
X114141250Y-97948750D03*
D14*
X116681250Y-92868750D03*
D13*
X119221250Y-97948750D03*
X99536250Y-78898750D03*
D14*
X100806250Y-76358750D03*
D15*
X104616250Y-78898750D03*
D14*
X107156250Y-73818750D03*
D13*
X109696250Y-78898750D03*
D10*
X96202500Y-66675000D03*
D11*
X103822500Y-66675000D03*
D10*
X95250000Y-87153750D03*
D11*
X95250000Y-79533750D03*
D10*
X85725000Y-106203750D03*
D11*
X85725000Y-98583750D03*
D13*
X56673750Y-59848750D03*
D14*
X57943750Y-57308750D03*
D15*
X61753750Y-59848750D03*
D14*
X64293750Y-54768750D03*
D13*
X66833750Y-59848750D03*
D12*
X80962500Y-33337500D03*
X211931250Y-33337500D03*
D13*
X113823750Y-59848750D03*
D14*
X115093750Y-57308750D03*
D15*
X118903750Y-59848750D03*
D14*
X121443750Y-54768750D03*
D13*
X123983750Y-59848750D03*
D10*
X133350000Y-87153750D03*
D11*
X133350000Y-79533750D03*
D12*
X59445000Y-32995000D03*
D17*
X180822500Y-71898750D03*
D15*
X180822500Y-87138750D03*
D18*
X187642500Y-78898750D03*
D14*
X188912500Y-76358750D03*
D15*
X192722500Y-78898750D03*
D14*
X195262500Y-73818750D03*
D18*
X197802500Y-78898750D03*
D17*
X204622500Y-71898750D03*
D15*
X204622500Y-87138750D03*
D13*
X170973750Y-59848750D03*
D14*
X172243750Y-57308750D03*
D15*
X176053750Y-59848750D03*
D14*
X178593750Y-54768750D03*
D13*
X181133750Y-59848750D03*
D17*
X183203750Y-33798750D03*
D15*
X183203750Y-49038750D03*
D18*
X190023750Y-40798750D03*
D14*
X191293750Y-38258750D03*
D15*
X195103750Y-40798750D03*
D14*
X197643750Y-35718750D03*
D18*
X200183750Y-40798750D03*
D17*
X207003750Y-33798750D03*
D15*
X207003750Y-49038750D03*
D13*
X161463750Y-40798750D03*
D14*
X162733750Y-38258750D03*
D15*
X166543750Y-40798750D03*
D14*
X169083750Y-35718750D03*
D13*
X171623750Y-40798750D03*
D10*
X184308750Y-104775000D03*
D11*
X191928750Y-104775000D03*
D13*
X125730000Y-116998750D03*
D14*
X127000000Y-114458750D03*
D15*
X130810000Y-116998750D03*
D14*
X133350000Y-111918750D03*
D13*
X135890000Y-116998750D03*
D12*
X35435000Y-33045000D03*
D13*
X123363750Y-40798750D03*
D14*
X124633750Y-38258750D03*
D15*
X128443750Y-40798750D03*
D14*
X130983750Y-35718750D03*
D13*
X133523750Y-40798750D03*
D17*
X176060000Y-90948750D03*
D15*
X176060000Y-106188750D03*
D18*
X182880000Y-97948750D03*
D14*
X184150000Y-95408750D03*
D15*
X187960000Y-97948750D03*
D14*
X190500000Y-92868750D03*
D18*
X193040000Y-97948750D03*
D17*
X199860000Y-90948750D03*
D15*
X199860000Y-106188750D03*
D13*
X78105000Y-116998750D03*
D14*
X79375000Y-114458750D03*
D15*
X83185000Y-116998750D03*
D14*
X85725000Y-111918750D03*
D13*
X88265000Y-116998750D03*
X75723750Y-59848750D03*
D14*
X76993750Y-57308750D03*
D15*
X80803750Y-59848750D03*
D14*
X83343750Y-54768750D03*
D13*
X85883750Y-59848750D03*
D10*
X166687500Y-68103750D03*
D11*
X166687500Y-60483750D03*
D10*
X100012500Y-49053750D03*
D11*
X100012500Y-41433750D03*
D10*
X71437500Y-68103750D03*
D11*
X71437500Y-60483750D03*
D10*
X138112500Y-49053750D03*
D11*
X138112500Y-41433750D03*
D13*
X56673750Y-116998750D03*
D14*
X57943750Y-114458750D03*
D15*
X61753750Y-116998750D03*
D14*
X64293750Y-111918750D03*
D13*
X66833750Y-116998750D03*
X147161250Y-97948750D03*
D14*
X148431250Y-95408750D03*
D15*
X152241250Y-97948750D03*
D14*
X154781250Y-92868750D03*
D13*
X157321250Y-97948750D03*
D10*
X147637500Y-68103750D03*
D11*
X147637500Y-60483750D03*
D13*
X118586250Y-78898750D03*
D14*
X119856250Y-76358750D03*
D15*
X123666250Y-78898750D03*
D14*
X126206250Y-73818750D03*
D13*
X128746250Y-78898750D03*
D10*
X171450000Y-87153750D03*
D11*
X171450000Y-79533750D03*
D12*
X95250000Y-123825000D03*
D10*
X190500000Y-125253750D03*
D11*
X190500000Y-117633750D03*
D10*
X104775000Y-106203750D03*
D11*
X104775000Y-98583750D03*
D10*
X128587500Y-68103750D03*
D11*
X128587500Y-60483750D03*
D10*
X90487500Y-68103750D03*
D11*
X90487500Y-60483750D03*
D10*
X142875000Y-106203750D03*
D11*
X142875000Y-98583750D03*
D12*
X123825000Y-100012500D03*
D10*
X189071250Y-85725000D03*
D11*
X196691250Y-85725000D03*
D13*
X173355000Y-116998750D03*
D14*
X174625000Y-114458750D03*
D15*
X178435000Y-116998750D03*
D14*
X180975000Y-111918750D03*
D13*
X183515000Y-116998750D03*
X70961250Y-97948750D03*
D14*
X72231250Y-95408750D03*
D15*
X76041250Y-97948750D03*
D14*
X78581250Y-92868750D03*
D13*
X81121250Y-97948750D03*
D10*
X198596250Y-123825000D03*
D11*
X206216250Y-123825000D03*
D12*
X152400000Y-69056250D03*
D13*
X132873750Y-59848750D03*
D14*
X134143750Y-57308750D03*
D15*
X137953750Y-59848750D03*
D14*
X140493750Y-54768750D03*
D13*
X143033750Y-59848750D03*
D10*
X110490000Y-104775000D03*
D11*
X118110000Y-104775000D03*
D13*
X151923750Y-59848750D03*
D14*
X153193750Y-57308750D03*
D15*
X157003750Y-59848750D03*
D14*
X159543750Y-54768750D03*
D13*
X162083750Y-59848750D03*
X149542500Y-116998750D03*
D14*
X150812500Y-114458750D03*
D15*
X154622500Y-116998750D03*
D14*
X157162500Y-111918750D03*
D13*
X159702500Y-116998750D03*
D10*
X80962500Y-49053750D03*
D11*
X80962500Y-41433750D03*
D10*
X196215000Y-66675000D03*
D11*
X203835000Y-66675000D03*
D13*
X80486250Y-78898750D03*
D14*
X81756250Y-76358750D03*
D15*
X85566250Y-78898750D03*
D14*
X88106250Y-73818750D03*
D13*
X90646250Y-78898750D03*
D10*
X79533750Y-123825000D03*
D11*
X87153750Y-123825000D03*
D19*
X43125000Y-74345000D03*
X36125000Y-74345000D03*
D20*
X46425000Y-76345000D03*
X37925000Y-72345000D03*
X40925000Y-72345000D03*
X44925000Y-72345000D03*
M02*
