G04 #@! TF.GenerationSoftware,KiCad,Pcbnew,7.0.7*
G04 #@! TF.CreationDate,2023-09-30T18:17:31+09:00*
G04 #@! TF.ProjectId,ind-assemble_R,696e642d-6173-4736-956d-626c655f522e,rev?*
G04 #@! TF.SameCoordinates,Original*
G04 #@! TF.FileFunction,Copper,L1,Top*
G04 #@! TF.FilePolarity,Positive*
%FSLAX46Y46*%
G04 Gerber Fmt 4.6, Leading zero omitted, Abs format (unit mm)*
G04 Created by KiCad (PCBNEW 7.0.7) date 2023-09-30 18:17:31*
%MOMM*%
%LPD*%
G01*
G04 APERTURE LIST*
G04 #@! TA.AperFunction,ComponentPad*
%ADD10R,1.397000X1.397000*%
G04 #@! TD*
G04 #@! TA.AperFunction,ComponentPad*
%ADD11C,1.397000*%
G04 #@! TD*
G04 #@! TA.AperFunction,ComponentPad*
%ADD12C,2.000000*%
G04 #@! TD*
G04 #@! TA.AperFunction,ComponentPad*
%ADD13C,1.524000*%
G04 #@! TD*
G04 #@! TA.AperFunction,WasherPad*
%ADD14C,1.210000*%
G04 #@! TD*
G04 #@! TA.AperFunction,ComponentPad*
%ADD15O,2.200000X1.300000*%
G04 #@! TD*
G04 #@! TA.AperFunction,ViaPad*
%ADD16C,0.800000*%
G04 #@! TD*
G04 #@! TA.AperFunction,Conductor*
%ADD17C,0.250000*%
G04 #@! TD*
G04 #@! TA.AperFunction,Conductor*
%ADD18C,0.500000*%
G04 #@! TD*
G04 APERTURE END LIST*
D10*
X191452500Y-47625000D03*
D11*
X199072500Y-47625000D03*
D10*
X127158750Y-123825000D03*
D11*
X134778750Y-123825000D03*
D10*
X119062500Y-125253750D03*
D11*
X119062500Y-117633750D03*
D10*
X71437500Y-125253750D03*
D11*
X71437500Y-117633750D03*
D10*
X39052500Y-123825000D03*
D11*
X46672500Y-123825000D03*
D10*
X166687500Y-125253750D03*
D11*
X166687500Y-117633750D03*
D10*
X157162500Y-49053750D03*
D11*
X157162500Y-41433750D03*
D10*
X161925000Y-106203750D03*
D11*
X161925000Y-98583750D03*
D10*
X114300000Y-87153750D03*
D11*
X114300000Y-79533750D03*
D12*
X57150000Y-38743750D03*
X57150000Y-45243750D03*
D10*
X76200000Y-87153750D03*
D11*
X76200000Y-79533750D03*
D13*
X35245000Y-38765000D03*
X35245000Y-41305000D03*
X35245000Y-43845000D03*
X35245000Y-46385000D03*
X35245000Y-48925000D03*
X35245000Y-51465000D03*
X35245000Y-54005000D03*
X35245000Y-56545000D03*
X35245000Y-59085000D03*
X35245000Y-61625000D03*
X35245000Y-64165000D03*
X35245000Y-66705000D03*
X50485000Y-66705000D03*
X50485000Y-64165000D03*
X50485000Y-61625000D03*
X50485000Y-59085000D03*
X50485000Y-56545000D03*
X50485000Y-54005000D03*
X50485000Y-51465000D03*
X50485000Y-48925000D03*
X50485000Y-46385000D03*
X50485000Y-43845000D03*
X50485000Y-41305000D03*
X50485000Y-38765000D03*
D10*
X119062500Y-49053750D03*
D11*
X119062500Y-41433750D03*
D10*
X152400000Y-87153750D03*
D11*
X152400000Y-79533750D03*
D10*
X176212500Y-49053750D03*
D11*
X176212500Y-41433750D03*
D10*
X185737500Y-68103750D03*
D11*
X185737500Y-60483750D03*
D10*
X96202500Y-66675000D03*
D11*
X103822500Y-66675000D03*
D10*
X95250000Y-87153750D03*
D11*
X95250000Y-79533750D03*
D10*
X85725000Y-106203750D03*
D11*
X85725000Y-98583750D03*
D10*
X133350000Y-87153750D03*
D11*
X133350000Y-79533750D03*
D10*
X184308750Y-104775000D03*
D11*
X191928750Y-104775000D03*
D10*
X166687500Y-68103750D03*
D11*
X166687500Y-60483750D03*
D10*
X100012500Y-49053750D03*
D11*
X100012500Y-41433750D03*
D10*
X71437500Y-68103750D03*
D11*
X71437500Y-60483750D03*
D10*
X138112500Y-49053750D03*
D11*
X138112500Y-41433750D03*
D10*
X147637500Y-68103750D03*
D11*
X147637500Y-60483750D03*
D10*
X171450000Y-87153750D03*
D11*
X171450000Y-79533750D03*
D10*
X190500000Y-125253750D03*
D11*
X190500000Y-117633750D03*
D10*
X104775000Y-106203750D03*
D11*
X104775000Y-98583750D03*
D10*
X128587500Y-68103750D03*
D11*
X128587500Y-60483750D03*
D10*
X90487500Y-68103750D03*
D11*
X90487500Y-60483750D03*
D10*
X142875000Y-106203750D03*
D11*
X142875000Y-98583750D03*
D10*
X189071250Y-85725000D03*
D11*
X196691250Y-85725000D03*
D10*
X198596250Y-123825000D03*
D11*
X206216250Y-123825000D03*
D10*
X110490000Y-104775000D03*
D11*
X118110000Y-104775000D03*
D10*
X80962500Y-49053750D03*
D11*
X80962500Y-41433750D03*
D10*
X196215000Y-66675000D03*
D11*
X203835000Y-66675000D03*
D10*
X79533750Y-123825000D03*
D11*
X87153750Y-123825000D03*
D14*
X43125000Y-74345000D03*
X36125000Y-74345000D03*
D15*
X46425000Y-76345000D03*
X37925000Y-72345000D03*
X40925000Y-72345000D03*
X44925000Y-72345000D03*
D16*
X170625000Y-70625000D03*
X191625000Y-108625000D03*
X170625000Y-111625000D03*
X180625000Y-78625000D03*
X181625000Y-76625000D03*
X147625000Y-52625000D03*
X53625000Y-63802500D03*
X64625000Y-61625000D03*
X167625000Y-92625000D03*
X179625000Y-92625000D03*
X55625000Y-63802500D03*
X64625000Y-99625000D03*
X35625000Y-111625000D03*
X54625000Y-109625000D03*
X85625000Y-108625000D03*
X57611101Y-51007198D03*
X92625000Y-52625000D03*
X54027299Y-54027299D03*
X125625000Y-97625000D03*
X112625000Y-102625000D03*
X100637299Y-51637299D03*
X135625000Y-51625000D03*
X135625000Y-49625000D03*
X129625000Y-59625000D03*
X167625000Y-76625000D03*
X169625000Y-77625000D03*
X145354250Y-57625000D03*
X147053250Y-57625000D03*
X125625000Y-57625000D03*
X128625000Y-54625000D03*
X171625000Y-108625000D03*
X48625000Y-101625000D03*
X44612701Y-69637299D03*
X77625000Y-49625000D03*
X91625000Y-88625000D03*
X178625000Y-62625000D03*
X138625000Y-107625000D03*
X139625000Y-106625000D03*
X145625000Y-62625000D03*
X176625000Y-100625000D03*
X92625000Y-87625000D03*
X50112700Y-75137300D03*
X44625000Y-53625000D03*
X39637299Y-50637299D03*
X45625000Y-80625000D03*
X80625000Y-85625000D03*
X123625000Y-83625000D03*
X83625000Y-83625000D03*
X131625000Y-102625000D03*
X50625000Y-78625000D03*
X127625000Y-64625000D03*
X47625000Y-78625000D03*
X166625000Y-97625000D03*
X173625000Y-64625000D03*
X55625000Y-47996499D03*
X44637299Y-45656500D03*
X44625000Y-66625000D03*
X45625000Y-69625000D03*
X42625000Y-98625000D03*
X169625000Y-95625000D03*
X182625000Y-64625000D03*
X175625000Y-83625000D03*
X164625000Y-97625000D03*
X179524312Y-64725688D03*
X179625000Y-83625000D03*
X134625000Y-49005750D03*
X169778250Y-61625000D03*
X170637299Y-69612701D03*
X173625000Y-69625000D03*
X171625000Y-95625000D03*
X127625000Y-106625000D03*
X127625000Y-88625000D03*
X94725688Y-88524312D03*
X122625000Y-46625000D03*
X122625000Y-51625000D03*
X125625000Y-51711803D03*
X79590826Y-45590826D03*
D17*
X170625000Y-70625000D02*
X175625000Y-70625000D01*
X50945000Y-64625000D02*
X50485000Y-64165000D01*
X173625000Y-108625000D02*
X170625000Y-111625000D01*
X57185965Y-64625000D02*
X50945000Y-64625000D01*
X191625000Y-108625000D02*
X173625000Y-108625000D01*
X63092215Y-70531250D02*
X57185965Y-64625000D01*
X180625000Y-78625000D02*
X172531250Y-70531250D01*
X175625000Y-70625000D02*
X181625000Y-76625000D01*
X172531250Y-70531250D02*
X63092215Y-70531250D01*
X167848750Y-92848750D02*
X179401250Y-92848750D01*
X89631555Y-56643750D02*
X79643750Y-56643750D01*
X78433750Y-55433750D02*
X69304206Y-55433750D01*
X147625000Y-52625000D02*
X93650305Y-52625000D01*
X69304206Y-55433750D02*
X64625000Y-60112956D01*
X93650305Y-52625000D02*
X89631555Y-56643750D01*
X55625000Y-63802500D02*
X53625000Y-63802500D01*
X79643750Y-56643750D02*
X78433750Y-55433750D01*
X167625000Y-92625000D02*
X167848750Y-92848750D01*
X179401250Y-92848750D02*
X179625000Y-92625000D01*
X64625000Y-60112956D02*
X64625000Y-61625000D01*
X47625000Y-99625000D02*
X35625000Y-111625000D01*
X64625000Y-99625000D02*
X47625000Y-99625000D01*
X85625000Y-108625000D02*
X84625000Y-109625000D01*
X84625000Y-109625000D02*
X54625000Y-109625000D01*
X50485000Y-51465000D02*
X50942802Y-51007198D01*
X50942802Y-51007198D02*
X57611101Y-51007198D01*
X92625000Y-52625000D02*
X55429598Y-52625000D01*
X55429598Y-52625000D02*
X54027299Y-54027299D01*
X92049695Y-52175000D02*
X54855000Y-52175000D01*
X125625000Y-97625000D02*
X124126535Y-97625000D01*
X124126535Y-97625000D02*
X119126535Y-102625000D01*
X54855000Y-52175000D02*
X50485000Y-56545000D01*
X100637299Y-51637299D02*
X92587396Y-51637299D01*
X119126535Y-102625000D02*
X112625000Y-102625000D01*
X92587396Y-51637299D02*
X92049695Y-52175000D01*
X129460250Y-59460250D02*
X126316794Y-59460250D01*
X135625000Y-49625000D02*
X135625000Y-51625000D01*
X129625000Y-59625000D02*
X129460250Y-59460250D01*
X123152044Y-62625000D02*
X54025000Y-62625000D01*
X54025000Y-62625000D02*
X50485000Y-59085000D01*
X126316794Y-59460250D02*
X123152044Y-62625000D01*
X169625000Y-77625000D02*
X168625000Y-77625000D01*
X168625000Y-77625000D02*
X167625000Y-76625000D01*
X147053250Y-57625000D02*
X145354250Y-57625000D01*
X128625000Y-54625000D02*
X125625000Y-57625000D01*
X85650305Y-107625000D02*
X70673465Y-107625000D01*
X43625000Y-70625000D02*
X41625000Y-70625000D01*
X39625000Y-68625000D02*
X37165000Y-68625000D01*
X170206250Y-110043750D02*
X88069055Y-110043750D01*
X44612701Y-69637299D02*
X43625000Y-70625000D01*
X69667215Y-108631250D02*
X55631250Y-108631250D01*
X70673465Y-107625000D02*
X69667215Y-108631250D01*
X88069055Y-110043750D02*
X85650305Y-107625000D01*
X39625000Y-68625000D02*
X41625000Y-70625000D01*
X171625000Y-108625000D02*
X170206250Y-110043750D01*
X55631250Y-108631250D02*
X48625000Y-101625000D01*
X37165000Y-68625000D02*
X35245000Y-66705000D01*
D18*
X91625000Y-88625000D02*
X55500076Y-88625000D01*
X98868750Y-90868750D02*
X115625000Y-107625000D01*
X43655000Y-76779924D02*
X43655000Y-75370635D01*
X50485000Y-46385000D02*
X51246999Y-47146999D01*
X92625000Y-87625000D02*
X95868750Y-90868750D01*
X55500076Y-88625000D02*
X43655000Y-76779924D01*
X178625000Y-62625000D02*
X145625000Y-62625000D01*
X75146999Y-47146999D02*
X77625000Y-49625000D01*
X115625000Y-107625000D02*
X138625000Y-107625000D01*
X142925000Y-103325000D02*
X173925000Y-103325000D01*
X95868750Y-90868750D02*
X98868750Y-90868750D01*
X51246999Y-47146999D02*
X75146999Y-47146999D01*
X43655000Y-75370635D02*
X44925000Y-74100635D01*
X139625000Y-106625000D02*
X142925000Y-103325000D01*
X44925000Y-74100635D02*
X44925000Y-72345000D01*
X173925000Y-103325000D02*
X176625000Y-100625000D01*
D17*
X44625000Y-53625000D02*
X42625000Y-53625000D01*
X48905000Y-76345000D02*
X46425000Y-76345000D01*
X42625000Y-53625000D02*
X39637299Y-50637299D01*
X50112700Y-75137300D02*
X48905000Y-76345000D01*
D18*
X54224073Y-66705000D02*
X61877823Y-74358750D01*
X61877823Y-74358750D02*
X65511784Y-74358750D01*
X47625000Y-78625000D02*
X50625000Y-78625000D01*
X37785000Y-41305000D02*
X35245000Y-43845000D01*
X72440775Y-77398750D02*
X80667025Y-85625000D01*
X68551784Y-77398750D02*
X72440775Y-77398750D01*
X80667025Y-85625000D02*
X80625000Y-85625000D01*
X161625000Y-102625000D02*
X166625000Y-97625000D01*
X50485000Y-41305000D02*
X37785000Y-41305000D01*
X173625000Y-64625000D02*
X127625000Y-64625000D01*
X53211250Y-41305000D02*
X57150000Y-45243750D01*
X83625000Y-83625000D02*
X123625000Y-83625000D01*
X50485000Y-66705000D02*
X54224073Y-66705000D01*
X50485000Y-41305000D02*
X53211250Y-41305000D01*
X131625000Y-102625000D02*
X161625000Y-102625000D01*
X45625000Y-80045000D02*
X45625000Y-80625000D01*
X65511784Y-74358750D02*
X68551784Y-77398750D01*
X37925000Y-72345000D02*
X45625000Y-80045000D01*
D17*
X33625000Y-66622251D02*
X33625000Y-53085000D01*
X33625000Y-53085000D02*
X35245000Y-51465000D01*
X38372749Y-71370000D02*
X33625000Y-66622251D01*
X39950000Y-71370000D02*
X38372749Y-71370000D01*
X40925000Y-72345000D02*
X39950000Y-71370000D01*
X55466501Y-47838000D02*
X46818799Y-47838000D01*
X46818799Y-47838000D02*
X44637299Y-45656500D01*
X55625000Y-47996499D02*
X55466501Y-47838000D01*
X78480749Y-46571999D02*
X53571999Y-46571999D01*
X190491250Y-46663750D02*
X191452500Y-47625000D01*
X157162500Y-49053750D02*
X176212500Y-49053750D01*
X100012500Y-49053750D02*
X119062500Y-49053750D01*
X51932000Y-44932000D02*
X44318000Y-44932000D01*
X44318000Y-44932000D02*
X35245000Y-54005000D01*
X80962500Y-49053750D02*
X78480749Y-46571999D01*
X119062500Y-49053750D02*
X119835000Y-48281250D01*
X138112500Y-49053750D02*
X157162500Y-49053750D01*
X178602500Y-46663750D02*
X190491250Y-46663750D01*
X119835000Y-48281250D02*
X137340000Y-48281250D01*
X137340000Y-48281250D02*
X138112500Y-49053750D01*
X176212500Y-49053750D02*
X178602500Y-46663750D01*
X53571999Y-46571999D02*
X51932000Y-44932000D01*
X80962500Y-49053750D02*
X100012500Y-49053750D01*
X126135250Y-65651500D02*
X128587500Y-68103750D01*
X173575305Y-65700000D02*
X183333750Y-65700000D01*
X147637500Y-68103750D02*
X148160000Y-67581250D01*
X71437500Y-68103750D02*
X90487500Y-68103750D01*
X128587500Y-68103750D02*
X147637500Y-68103750D01*
X194786250Y-68103750D02*
X196215000Y-66675000D01*
X96202500Y-66675000D02*
X97226000Y-65651500D01*
X94773750Y-68103750D02*
X96202500Y-66675000D01*
X171171555Y-68103750D02*
X173575305Y-65700000D01*
X90487500Y-68103750D02*
X94773750Y-68103750D01*
X66411750Y-63078000D02*
X41778000Y-63078000D01*
X166687500Y-68103750D02*
X171171555Y-68103750D01*
X183333750Y-65700000D02*
X185737500Y-68103750D01*
X148160000Y-67581250D02*
X166165000Y-67581250D01*
X97226000Y-65651500D02*
X126135250Y-65651500D01*
X71437500Y-68103750D02*
X66411750Y-63078000D01*
X185737500Y-68103750D02*
X194786250Y-68103750D01*
X166165000Y-67581250D02*
X166687500Y-68103750D01*
X41778000Y-63078000D02*
X35245000Y-56545000D01*
X152400000Y-87153750D02*
X171450000Y-87153750D01*
X114300000Y-87153750D02*
X133350000Y-87153750D01*
X76200000Y-87153750D02*
X63153750Y-87153750D01*
X76200000Y-87153750D02*
X81738223Y-87153750D01*
X81738223Y-87153750D02*
X84141973Y-84750000D01*
X63153750Y-87153750D02*
X45625000Y-69625000D01*
X37085000Y-59085000D02*
X35245000Y-59085000D01*
X173840000Y-84763750D02*
X188110000Y-84763750D01*
X92846250Y-84750000D02*
X95250000Y-87153750D01*
X188110000Y-84763750D02*
X189071250Y-85725000D01*
X133350000Y-87153750D02*
X152400000Y-87153750D01*
X171450000Y-87153750D02*
X173840000Y-84763750D01*
X95250000Y-87153750D02*
X114300000Y-87153750D01*
X44625000Y-66625000D02*
X37085000Y-59085000D01*
X84141973Y-84750000D02*
X92846250Y-84750000D01*
X183158750Y-103625000D02*
X184308750Y-104775000D01*
X172686243Y-106203750D02*
X175264993Y-103625000D01*
X109061250Y-106203750D02*
X110490000Y-104775000D01*
X69692956Y-98625000D02*
X42625000Y-98625000D01*
X114065000Y-108350000D02*
X140728750Y-108350000D01*
X85725000Y-106203750D02*
X104775000Y-106203750D01*
X175264993Y-103625000D02*
X183158750Y-103625000D01*
X110490000Y-104775000D02*
X114065000Y-108350000D01*
X140728750Y-108350000D02*
X142875000Y-106203750D01*
X161925000Y-106203750D02*
X172686243Y-106203750D01*
X142875000Y-106203750D02*
X161925000Y-106203750D01*
X77271706Y-106203750D02*
X69692956Y-98625000D01*
X85725000Y-106203750D02*
X77271706Y-106203750D01*
X104775000Y-106203750D02*
X109061250Y-106203750D01*
X119016250Y-125300000D02*
X119062500Y-125253750D01*
X190500000Y-125253750D02*
X197167500Y-125253750D01*
X39052500Y-123825000D02*
X40527500Y-125300000D01*
X127158750Y-123825000D02*
X128633750Y-125300000D01*
X79533750Y-123825000D02*
X81008750Y-125300000D01*
X40527500Y-125300000D02*
X71391250Y-125300000D01*
X197167500Y-125253750D02*
X198596250Y-123825000D01*
X166641250Y-125300000D02*
X166687500Y-125253750D01*
X119062500Y-125253750D02*
X125730000Y-125253750D01*
X81008750Y-125300000D02*
X119016250Y-125300000D01*
X78105000Y-125253750D02*
X79533750Y-123825000D01*
X128633750Y-125300000D02*
X166641250Y-125300000D01*
X166687500Y-125253750D02*
X190500000Y-125253750D01*
X125730000Y-125253750D02*
X127158750Y-123825000D01*
X71437500Y-125253750D02*
X78105000Y-125253750D01*
X71391250Y-125300000D02*
X71437500Y-125253750D01*
X169625000Y-95625000D02*
X166625000Y-95625000D01*
X179625000Y-83625000D02*
X175625000Y-83625000D01*
X166625000Y-95625000D02*
X164625000Y-97625000D01*
X179524312Y-64725688D02*
X179625000Y-64625000D01*
X179625000Y-64625000D02*
X182625000Y-64625000D01*
X173612701Y-69612701D02*
X173625000Y-69625000D01*
X159778250Y-51625000D02*
X169778250Y-61625000D01*
X135925305Y-48900000D02*
X138650305Y-51625000D01*
X138650305Y-51625000D02*
X159778250Y-51625000D01*
X134730750Y-48900000D02*
X135925305Y-48900000D01*
X170637299Y-69612701D02*
X173612701Y-69612701D01*
X134625000Y-49005750D02*
X134730750Y-48900000D01*
X131324695Y-101900000D02*
X127625000Y-105599695D01*
X155350000Y-101900000D02*
X131324695Y-101900000D01*
X171625000Y-95625000D02*
X170900000Y-94900000D01*
X170900000Y-94900000D02*
X162350000Y-94900000D01*
X127625000Y-105599695D02*
X127625000Y-106625000D01*
X162350000Y-94900000D02*
X155350000Y-101900000D01*
X127625000Y-88625000D02*
X94826376Y-88625000D01*
X94826376Y-88625000D02*
X94725688Y-88524312D01*
X125538197Y-51625000D02*
X125625000Y-51711803D01*
X80625000Y-46625000D02*
X122625000Y-46625000D01*
X122625000Y-51625000D02*
X125538197Y-51625000D01*
X79590826Y-45590826D02*
X80625000Y-46625000D01*
M02*
