M48
; DRILL file {KiCad 7.0.7} date 2023 September 30, Saturday 18:17:49
; FORMAT={-:-/ absolute / metric / decimal}
; #@! TF.CreationDate,2023-09-30T18:17:49+09:00
; #@! TF.GenerationSoftware,Kicad,Pcbnew,7.0.7
; #@! TF.FileFunction,Plated,1,2,PTH
FMAT,2
METRIC
; #@! TA.AperFunction,Plated,PTH,ViaDrill
T1C0.400
; #@! TA.AperFunction,Plated,PTH,ComponentDrill
T2C0.600
; #@! TA.AperFunction,Plated,PTH,ComponentDrill
T3C0.813
; #@! TA.AperFunction,Plated,PTH,ComponentDrill
T4C1.300
%
G90
G05
T1
X35.625Y-111.625
X39.637Y-50.637
X42.625Y-98.625
X44.613Y-69.637
X44.625Y-53.625
X44.625Y-66.625
X44.637Y-45.657
X45.625Y-69.625
X45.625Y-80.625
X47.625Y-78.625
X48.625Y-101.625
X50.113Y-75.137
X50.625Y-78.625
X53.625Y-63.802
X54.027Y-54.027
X54.625Y-109.625
X55.625Y-47.996
X55.625Y-63.802
X57.611Y-51.007
X64.625Y-61.625
X64.625Y-99.625
X77.625Y-49.625
X79.591Y-45.591
X80.625Y-85.625
X83.625Y-83.625
X85.625Y-108.625
X91.625Y-88.625
X92.625Y-52.625
X92.625Y-87.625
X94.726Y-88.524
X100.637Y-51.637
X112.625Y-102.625
X122.625Y-46.625
X122.625Y-51.625
X123.625Y-83.625
X125.625Y-51.712
X125.625Y-57.625
X125.625Y-97.625
X127.625Y-64.625
X127.625Y-88.625
X127.625Y-106.625
X128.625Y-54.625
X129.625Y-59.625
X131.625Y-102.625
X134.625Y-49.006
X135.625Y-49.625
X135.625Y-51.625
X138.625Y-107.625
X139.625Y-106.625
X145.354Y-57.625
X145.625Y-62.625
X147.053Y-57.625
X147.625Y-52.625
X164.625Y-97.625
X166.625Y-97.625
X167.625Y-76.625
X167.625Y-92.625
X169.625Y-77.625
X169.625Y-95.625
X169.778Y-61.625
X170.625Y-70.625
X170.625Y-111.625
X170.637Y-69.613
X171.625Y-95.625
X171.625Y-108.625
X173.625Y-64.625
X173.625Y-69.625
X175.625Y-83.625
X176.625Y-100.625
X178.625Y-62.625
X179.524Y-64.726
X179.625Y-83.625
X179.625Y-92.625
X180.625Y-78.625
X181.625Y-76.625
X182.625Y-64.625
X191.625Y-108.625
T3
X35.245Y-38.765
X35.245Y-41.305
X35.245Y-43.845
X35.245Y-46.385
X35.245Y-48.925
X35.245Y-51.465
X35.245Y-54.005
X35.245Y-56.545
X35.245Y-59.085
X35.245Y-61.625
X35.245Y-64.165
X35.245Y-66.705
X39.052Y-123.825
X46.672Y-123.825
X50.485Y-38.765
X50.485Y-41.305
X50.485Y-43.845
X50.485Y-46.385
X50.485Y-48.925
X50.485Y-51.465
X50.485Y-54.005
X50.485Y-56.545
X50.485Y-59.085
X50.485Y-61.625
X50.485Y-64.165
X50.485Y-66.705
X71.438Y-60.484
X71.438Y-68.104
X71.438Y-117.634
X71.438Y-125.254
X76.2Y-79.534
X76.2Y-87.154
X79.534Y-123.825
X80.962Y-41.434
X80.962Y-49.054
X85.725Y-98.584
X85.725Y-106.204
X87.154Y-123.825
X90.487Y-60.484
X90.487Y-68.104
X95.25Y-79.534
X95.25Y-87.154
X96.203Y-66.675
X100.012Y-41.434
X100.012Y-49.054
X103.822Y-66.675
X104.775Y-98.584
X104.775Y-106.204
X110.49Y-104.775
X114.3Y-79.534
X114.3Y-87.154
X118.11Y-104.775
X119.062Y-41.434
X119.062Y-49.054
X119.062Y-117.634
X119.062Y-125.254
X127.159Y-123.825
X128.588Y-60.484
X128.588Y-68.104
X133.35Y-79.534
X133.35Y-87.154
X134.779Y-123.825
X138.112Y-41.434
X138.112Y-49.054
X142.875Y-98.584
X142.875Y-106.204
X147.637Y-60.484
X147.637Y-68.104
X152.4Y-79.534
X152.4Y-87.154
X157.162Y-41.434
X157.162Y-49.054
X161.925Y-98.584
X161.925Y-106.204
X166.688Y-60.484
X166.688Y-68.104
X166.688Y-117.634
X166.688Y-125.254
X171.45Y-79.534
X171.45Y-87.154
X176.213Y-41.434
X176.213Y-49.054
X184.309Y-104.775
X185.737Y-60.484
X185.737Y-68.104
X189.071Y-85.725
X190.5Y-117.634
X190.5Y-125.254
X191.452Y-47.625
X191.929Y-104.775
X196.215Y-66.675
X196.691Y-85.725
X198.596Y-123.825
X199.072Y-47.625
X203.835Y-66.675
X206.216Y-123.825
T4
X57.15Y-38.744
X57.15Y-45.244
T2
G00X38.375Y-72.345
M15
G01X37.475Y-72.345
M16
G05
G00X41.375Y-72.345
M15
G01X40.475Y-72.345
M16
G05
G00X45.375Y-72.345
M15
G01X44.475Y-72.345
M16
G05
G00X46.875Y-76.345
M15
G01X45.975Y-76.345
M16
G05
T0
M30
