G04 #@! TF.GenerationSoftware,KiCad,Pcbnew,7.0.7*
G04 #@! TF.CreationDate,2023-09-30T18:17:31+09:00*
G04 #@! TF.ProjectId,ind-assemble_R,696e642d-6173-4736-956d-626c655f522e,rev?*
G04 #@! TF.SameCoordinates,Original*
G04 #@! TF.FileFunction,Legend,Top*
G04 #@! TF.FilePolarity,Positive*
%FSLAX46Y46*%
G04 Gerber Fmt 4.6, Leading zero omitted, Abs format (unit mm)*
G04 Created by KiCad (PCBNEW 7.0.7) date 2023-09-30 18:17:31*
%MOMM*%
%LPD*%
G01*
G04 APERTURE LIST*
%ADD10C,0.300000*%
%ADD11C,0.170000*%
%ADD12C,0.150000*%
%ADD13C,0.125000*%
%ADD14R,1.397000X1.397000*%
%ADD15C,1.397000*%
%ADD16C,2.000000*%
%ADD17C,4.000000*%
%ADD18C,1.524000*%
G04 APERTURE END LIST*
D10*
X44179510Y-105425828D02*
X44179510Y-104425828D01*
X44179510Y-103925828D02*
X44108082Y-103997257D01*
X44108082Y-103997257D02*
X44179510Y-104068685D01*
X44179510Y-104068685D02*
X44250939Y-103997257D01*
X44250939Y-103997257D02*
X44179510Y-103925828D01*
X44179510Y-103925828D02*
X44179510Y-104068685D01*
X44893796Y-104425828D02*
X44893796Y-105425828D01*
X44893796Y-104568685D02*
X44965225Y-104497257D01*
X44965225Y-104497257D02*
X45108082Y-104425828D01*
X45108082Y-104425828D02*
X45322368Y-104425828D01*
X45322368Y-104425828D02*
X45465225Y-104497257D01*
X45465225Y-104497257D02*
X45536654Y-104640114D01*
X45536654Y-104640114D02*
X45536654Y-105425828D01*
X46893797Y-105425828D02*
X46893797Y-103925828D01*
X46893797Y-105354400D02*
X46750939Y-105425828D01*
X46750939Y-105425828D02*
X46465225Y-105425828D01*
X46465225Y-105425828D02*
X46322368Y-105354400D01*
X46322368Y-105354400D02*
X46250939Y-105282971D01*
X46250939Y-105282971D02*
X46179511Y-105140114D01*
X46179511Y-105140114D02*
X46179511Y-104711542D01*
X46179511Y-104711542D02*
X46250939Y-104568685D01*
X46250939Y-104568685D02*
X46322368Y-104497257D01*
X46322368Y-104497257D02*
X46465225Y-104425828D01*
X46465225Y-104425828D02*
X46750939Y-104425828D01*
X46750939Y-104425828D02*
X46893797Y-104497257D01*
X47465225Y-103925828D02*
X48393797Y-103925828D01*
X48393797Y-103925828D02*
X47893797Y-104497257D01*
X47893797Y-104497257D02*
X48108082Y-104497257D01*
X48108082Y-104497257D02*
X48250940Y-104568685D01*
X48250940Y-104568685D02*
X48322368Y-104640114D01*
X48322368Y-104640114D02*
X48393797Y-104782971D01*
X48393797Y-104782971D02*
X48393797Y-105140114D01*
X48393797Y-105140114D02*
X48322368Y-105282971D01*
X48322368Y-105282971D02*
X48250940Y-105354400D01*
X48250940Y-105354400D02*
X48108082Y-105425828D01*
X48108082Y-105425828D02*
X47679511Y-105425828D01*
X47679511Y-105425828D02*
X47536654Y-105354400D01*
X47536654Y-105354400D02*
X47465225Y-105282971D01*
X49679511Y-103925828D02*
X49393796Y-103925828D01*
X49393796Y-103925828D02*
X49250939Y-103997257D01*
X49250939Y-103997257D02*
X49179511Y-104068685D01*
X49179511Y-104068685D02*
X49036653Y-104282971D01*
X49036653Y-104282971D02*
X48965225Y-104568685D01*
X48965225Y-104568685D02*
X48965225Y-105140114D01*
X48965225Y-105140114D02*
X49036653Y-105282971D01*
X49036653Y-105282971D02*
X49108082Y-105354400D01*
X49108082Y-105354400D02*
X49250939Y-105425828D01*
X49250939Y-105425828D02*
X49536653Y-105425828D01*
X49536653Y-105425828D02*
X49679511Y-105354400D01*
X49679511Y-105354400D02*
X49750939Y-105282971D01*
X49750939Y-105282971D02*
X49822368Y-105140114D01*
X49822368Y-105140114D02*
X49822368Y-104782971D01*
X49822368Y-104782971D02*
X49750939Y-104640114D01*
X49750939Y-104640114D02*
X49679511Y-104568685D01*
X49679511Y-104568685D02*
X49536653Y-104497257D01*
X49536653Y-104497257D02*
X49250939Y-104497257D01*
X49250939Y-104497257D02*
X49108082Y-104568685D01*
X49108082Y-104568685D02*
X49036653Y-104640114D01*
X49036653Y-104640114D02*
X48965225Y-104782971D01*
X50322367Y-103925828D02*
X51250939Y-103925828D01*
X51250939Y-103925828D02*
X50750939Y-104497257D01*
X50750939Y-104497257D02*
X50965224Y-104497257D01*
X50965224Y-104497257D02*
X51108082Y-104568685D01*
X51108082Y-104568685D02*
X51179510Y-104640114D01*
X51179510Y-104640114D02*
X51250939Y-104782971D01*
X51250939Y-104782971D02*
X51250939Y-105140114D01*
X51250939Y-105140114D02*
X51179510Y-105282971D01*
X51179510Y-105282971D02*
X51108082Y-105354400D01*
X51108082Y-105354400D02*
X50965224Y-105425828D01*
X50965224Y-105425828D02*
X50536653Y-105425828D01*
X50536653Y-105425828D02*
X50393796Y-105354400D01*
X50393796Y-105354400D02*
X50322367Y-105282971D01*
X52108081Y-104568685D02*
X51965224Y-104497257D01*
X51965224Y-104497257D02*
X51893795Y-104425828D01*
X51893795Y-104425828D02*
X51822367Y-104282971D01*
X51822367Y-104282971D02*
X51822367Y-104211542D01*
X51822367Y-104211542D02*
X51893795Y-104068685D01*
X51893795Y-104068685D02*
X51965224Y-103997257D01*
X51965224Y-103997257D02*
X52108081Y-103925828D01*
X52108081Y-103925828D02*
X52393795Y-103925828D01*
X52393795Y-103925828D02*
X52536653Y-103997257D01*
X52536653Y-103997257D02*
X52608081Y-104068685D01*
X52608081Y-104068685D02*
X52679510Y-104211542D01*
X52679510Y-104211542D02*
X52679510Y-104282971D01*
X52679510Y-104282971D02*
X52608081Y-104425828D01*
X52608081Y-104425828D02*
X52536653Y-104497257D01*
X52536653Y-104497257D02*
X52393795Y-104568685D01*
X52393795Y-104568685D02*
X52108081Y-104568685D01*
X52108081Y-104568685D02*
X51965224Y-104640114D01*
X51965224Y-104640114D02*
X51893795Y-104711542D01*
X51893795Y-104711542D02*
X51822367Y-104854400D01*
X51822367Y-104854400D02*
X51822367Y-105140114D01*
X51822367Y-105140114D02*
X51893795Y-105282971D01*
X51893795Y-105282971D02*
X51965224Y-105354400D01*
X51965224Y-105354400D02*
X52108081Y-105425828D01*
X52108081Y-105425828D02*
X52393795Y-105425828D01*
X52393795Y-105425828D02*
X52536653Y-105354400D01*
X52536653Y-105354400D02*
X52608081Y-105282971D01*
X52608081Y-105282971D02*
X52679510Y-105140114D01*
X52679510Y-105140114D02*
X52679510Y-104854400D01*
X52679510Y-104854400D02*
X52608081Y-104711542D01*
X52608081Y-104711542D02*
X52536653Y-104640114D01*
X52536653Y-104640114D02*
X52393795Y-104568685D01*
D11*
X53879699Y-104827112D02*
X54117794Y-105493779D01*
X54117794Y-105493779D02*
X54355889Y-104827112D01*
X55260651Y-105493779D02*
X54689223Y-105493779D01*
X54974937Y-105493779D02*
X54974937Y-104493779D01*
X54974937Y-104493779D02*
X54879699Y-104636636D01*
X54879699Y-104636636D02*
X54784461Y-104731874D01*
X54784461Y-104731874D02*
X54689223Y-104779493D01*
X55689223Y-105398540D02*
X55736842Y-105446160D01*
X55736842Y-105446160D02*
X55689223Y-105493779D01*
X55689223Y-105493779D02*
X55641604Y-105446160D01*
X55641604Y-105446160D02*
X55689223Y-105398540D01*
X55689223Y-105398540D02*
X55689223Y-105493779D01*
X56355889Y-104493779D02*
X56451127Y-104493779D01*
X56451127Y-104493779D02*
X56546365Y-104541398D01*
X56546365Y-104541398D02*
X56593984Y-104589017D01*
X56593984Y-104589017D02*
X56641603Y-104684255D01*
X56641603Y-104684255D02*
X56689222Y-104874731D01*
X56689222Y-104874731D02*
X56689222Y-105112826D01*
X56689222Y-105112826D02*
X56641603Y-105303302D01*
X56641603Y-105303302D02*
X56593984Y-105398540D01*
X56593984Y-105398540D02*
X56546365Y-105446160D01*
X56546365Y-105446160D02*
X56451127Y-105493779D01*
X56451127Y-105493779D02*
X56355889Y-105493779D01*
X56355889Y-105493779D02*
X56260651Y-105446160D01*
X56260651Y-105446160D02*
X56213032Y-105398540D01*
X56213032Y-105398540D02*
X56165413Y-105303302D01*
X56165413Y-105303302D02*
X56117794Y-105112826D01*
X56117794Y-105112826D02*
X56117794Y-104874731D01*
X56117794Y-104874731D02*
X56165413Y-104684255D01*
X56165413Y-104684255D02*
X56213032Y-104589017D01*
X56213032Y-104589017D02*
X56260651Y-104541398D01*
X56260651Y-104541398D02*
X56355889Y-104493779D01*
D12*
X173336011Y-70229819D02*
X172859821Y-70229819D01*
X172859821Y-70229819D02*
X172859821Y-69229819D01*
X173669345Y-70229819D02*
X173669345Y-69563152D01*
X173669345Y-69229819D02*
X173621726Y-69277438D01*
X173621726Y-69277438D02*
X173669345Y-69325057D01*
X173669345Y-69325057D02*
X173716964Y-69277438D01*
X173716964Y-69277438D02*
X173669345Y-69229819D01*
X173669345Y-69229819D02*
X173669345Y-69325057D01*
X174574106Y-69563152D02*
X174574106Y-70372676D01*
X174574106Y-70372676D02*
X174526487Y-70467914D01*
X174526487Y-70467914D02*
X174478868Y-70515533D01*
X174478868Y-70515533D02*
X174383630Y-70563152D01*
X174383630Y-70563152D02*
X174240773Y-70563152D01*
X174240773Y-70563152D02*
X174145535Y-70515533D01*
X174574106Y-70182200D02*
X174478868Y-70229819D01*
X174478868Y-70229819D02*
X174288392Y-70229819D01*
X174288392Y-70229819D02*
X174193154Y-70182200D01*
X174193154Y-70182200D02*
X174145535Y-70134580D01*
X174145535Y-70134580D02*
X174097916Y-70039342D01*
X174097916Y-70039342D02*
X174097916Y-69753628D01*
X174097916Y-69753628D02*
X174145535Y-69658390D01*
X174145535Y-69658390D02*
X174193154Y-69610771D01*
X174193154Y-69610771D02*
X174288392Y-69563152D01*
X174288392Y-69563152D02*
X174478868Y-69563152D01*
X174478868Y-69563152D02*
X174574106Y-69610771D01*
X175050297Y-70229819D02*
X175050297Y-69229819D01*
X175478868Y-70229819D02*
X175478868Y-69706009D01*
X175478868Y-69706009D02*
X175431249Y-69610771D01*
X175431249Y-69610771D02*
X175336011Y-69563152D01*
X175336011Y-69563152D02*
X175193154Y-69563152D01*
X175193154Y-69563152D02*
X175097916Y-69610771D01*
X175097916Y-69610771D02*
X175050297Y-69658390D01*
X175812202Y-69563152D02*
X176193154Y-69563152D01*
X175955059Y-69229819D02*
X175955059Y-70086961D01*
X175955059Y-70086961D02*
X176002678Y-70182200D01*
X176002678Y-70182200D02*
X176097916Y-70229819D01*
X176097916Y-70229819D02*
X176193154Y-70229819D01*
X177240774Y-70182200D02*
X177383631Y-70229819D01*
X177383631Y-70229819D02*
X177621726Y-70229819D01*
X177621726Y-70229819D02*
X177716964Y-70182200D01*
X177716964Y-70182200D02*
X177764583Y-70134580D01*
X177764583Y-70134580D02*
X177812202Y-70039342D01*
X177812202Y-70039342D02*
X177812202Y-69944104D01*
X177812202Y-69944104D02*
X177764583Y-69848866D01*
X177764583Y-69848866D02*
X177716964Y-69801247D01*
X177716964Y-69801247D02*
X177621726Y-69753628D01*
X177621726Y-69753628D02*
X177431250Y-69706009D01*
X177431250Y-69706009D02*
X177336012Y-69658390D01*
X177336012Y-69658390D02*
X177288393Y-69610771D01*
X177288393Y-69610771D02*
X177240774Y-69515533D01*
X177240774Y-69515533D02*
X177240774Y-69420295D01*
X177240774Y-69420295D02*
X177288393Y-69325057D01*
X177288393Y-69325057D02*
X177336012Y-69277438D01*
X177336012Y-69277438D02*
X177431250Y-69229819D01*
X177431250Y-69229819D02*
X177669345Y-69229819D01*
X177669345Y-69229819D02*
X177812202Y-69277438D01*
X178240774Y-70229819D02*
X178240774Y-69563152D01*
X178240774Y-69229819D02*
X178193155Y-69277438D01*
X178193155Y-69277438D02*
X178240774Y-69325057D01*
X178240774Y-69325057D02*
X178288393Y-69277438D01*
X178288393Y-69277438D02*
X178240774Y-69229819D01*
X178240774Y-69229819D02*
X178240774Y-69325057D01*
X179145535Y-70229819D02*
X179145535Y-69229819D01*
X179145535Y-70182200D02*
X179050297Y-70229819D01*
X179050297Y-70229819D02*
X178859821Y-70229819D01*
X178859821Y-70229819D02*
X178764583Y-70182200D01*
X178764583Y-70182200D02*
X178716964Y-70134580D01*
X178716964Y-70134580D02*
X178669345Y-70039342D01*
X178669345Y-70039342D02*
X178669345Y-69753628D01*
X178669345Y-69753628D02*
X178716964Y-69658390D01*
X178716964Y-69658390D02*
X178764583Y-69610771D01*
X178764583Y-69610771D02*
X178859821Y-69563152D01*
X178859821Y-69563152D02*
X179050297Y-69563152D01*
X179050297Y-69563152D02*
X179145535Y-69610771D01*
X180002678Y-70182200D02*
X179907440Y-70229819D01*
X179907440Y-70229819D02*
X179716964Y-70229819D01*
X179716964Y-70229819D02*
X179621726Y-70182200D01*
X179621726Y-70182200D02*
X179574107Y-70086961D01*
X179574107Y-70086961D02*
X179574107Y-69706009D01*
X179574107Y-69706009D02*
X179621726Y-69610771D01*
X179621726Y-69610771D02*
X179716964Y-69563152D01*
X179716964Y-69563152D02*
X179907440Y-69563152D01*
X179907440Y-69563152D02*
X180002678Y-69610771D01*
X180002678Y-69610771D02*
X180050297Y-69706009D01*
X180050297Y-69706009D02*
X180050297Y-69801247D01*
X180050297Y-69801247D02*
X179574107Y-69896485D01*
D13*
X36864047Y-43599178D02*
X36816428Y-43563464D01*
X36816428Y-43563464D02*
X36744999Y-43563464D01*
X36744999Y-43563464D02*
X36673571Y-43599178D01*
X36673571Y-43599178D02*
X36625952Y-43670607D01*
X36625952Y-43670607D02*
X36602142Y-43742035D01*
X36602142Y-43742035D02*
X36578333Y-43884892D01*
X36578333Y-43884892D02*
X36578333Y-43992035D01*
X36578333Y-43992035D02*
X36602142Y-44134892D01*
X36602142Y-44134892D02*
X36625952Y-44206321D01*
X36625952Y-44206321D02*
X36673571Y-44277750D01*
X36673571Y-44277750D02*
X36744999Y-44313464D01*
X36744999Y-44313464D02*
X36792618Y-44313464D01*
X36792618Y-44313464D02*
X36864047Y-44277750D01*
X36864047Y-44277750D02*
X36887856Y-44242035D01*
X36887856Y-44242035D02*
X36887856Y-43992035D01*
X36887856Y-43992035D02*
X36792618Y-43992035D01*
X37102142Y-44313464D02*
X37102142Y-43563464D01*
X37102142Y-43563464D02*
X37387856Y-44313464D01*
X37387856Y-44313464D02*
X37387856Y-43563464D01*
X37625952Y-44313464D02*
X37625952Y-43563464D01*
X37625952Y-43563464D02*
X37745000Y-43563464D01*
X37745000Y-43563464D02*
X37816428Y-43599178D01*
X37816428Y-43599178D02*
X37864047Y-43670607D01*
X37864047Y-43670607D02*
X37887857Y-43742035D01*
X37887857Y-43742035D02*
X37911666Y-43884892D01*
X37911666Y-43884892D02*
X37911666Y-43992035D01*
X37911666Y-43992035D02*
X37887857Y-44134892D01*
X37887857Y-44134892D02*
X37864047Y-44206321D01*
X37864047Y-44206321D02*
X37816428Y-44277750D01*
X37816428Y-44277750D02*
X37745000Y-44313464D01*
X37745000Y-44313464D02*
X37625952Y-44313464D01*
X36864047Y-46074678D02*
X36816428Y-46038964D01*
X36816428Y-46038964D02*
X36744999Y-46038964D01*
X36744999Y-46038964D02*
X36673571Y-46074678D01*
X36673571Y-46074678D02*
X36625952Y-46146107D01*
X36625952Y-46146107D02*
X36602142Y-46217535D01*
X36602142Y-46217535D02*
X36578333Y-46360392D01*
X36578333Y-46360392D02*
X36578333Y-46467535D01*
X36578333Y-46467535D02*
X36602142Y-46610392D01*
X36602142Y-46610392D02*
X36625952Y-46681821D01*
X36625952Y-46681821D02*
X36673571Y-46753250D01*
X36673571Y-46753250D02*
X36744999Y-46788964D01*
X36744999Y-46788964D02*
X36792618Y-46788964D01*
X36792618Y-46788964D02*
X36864047Y-46753250D01*
X36864047Y-46753250D02*
X36887856Y-46717535D01*
X36887856Y-46717535D02*
X36887856Y-46467535D01*
X36887856Y-46467535D02*
X36792618Y-46467535D01*
X37102142Y-46788964D02*
X37102142Y-46038964D01*
X37102142Y-46038964D02*
X37387856Y-46788964D01*
X37387856Y-46788964D02*
X37387856Y-46038964D01*
X37625952Y-46788964D02*
X37625952Y-46038964D01*
X37625952Y-46038964D02*
X37745000Y-46038964D01*
X37745000Y-46038964D02*
X37816428Y-46074678D01*
X37816428Y-46074678D02*
X37864047Y-46146107D01*
X37864047Y-46146107D02*
X37887857Y-46217535D01*
X37887857Y-46217535D02*
X37911666Y-46360392D01*
X37911666Y-46360392D02*
X37911666Y-46467535D01*
X37911666Y-46467535D02*
X37887857Y-46610392D01*
X37887857Y-46610392D02*
X37864047Y-46681821D01*
X37864047Y-46681821D02*
X37816428Y-46753250D01*
X37816428Y-46753250D02*
X37745000Y-46788964D01*
X37745000Y-46788964D02*
X37625952Y-46788964D01*
D12*
X130254761Y-108329819D02*
X129778571Y-108329819D01*
X129778571Y-108329819D02*
X129778571Y-107329819D01*
X130588095Y-108329819D02*
X130588095Y-107663152D01*
X130588095Y-107329819D02*
X130540476Y-107377438D01*
X130540476Y-107377438D02*
X130588095Y-107425057D01*
X130588095Y-107425057D02*
X130635714Y-107377438D01*
X130635714Y-107377438D02*
X130588095Y-107329819D01*
X130588095Y-107329819D02*
X130588095Y-107425057D01*
X131492856Y-107663152D02*
X131492856Y-108472676D01*
X131492856Y-108472676D02*
X131445237Y-108567914D01*
X131445237Y-108567914D02*
X131397618Y-108615533D01*
X131397618Y-108615533D02*
X131302380Y-108663152D01*
X131302380Y-108663152D02*
X131159523Y-108663152D01*
X131159523Y-108663152D02*
X131064285Y-108615533D01*
X131492856Y-108282200D02*
X131397618Y-108329819D01*
X131397618Y-108329819D02*
X131207142Y-108329819D01*
X131207142Y-108329819D02*
X131111904Y-108282200D01*
X131111904Y-108282200D02*
X131064285Y-108234580D01*
X131064285Y-108234580D02*
X131016666Y-108139342D01*
X131016666Y-108139342D02*
X131016666Y-107853628D01*
X131016666Y-107853628D02*
X131064285Y-107758390D01*
X131064285Y-107758390D02*
X131111904Y-107710771D01*
X131111904Y-107710771D02*
X131207142Y-107663152D01*
X131207142Y-107663152D02*
X131397618Y-107663152D01*
X131397618Y-107663152D02*
X131492856Y-107710771D01*
X131969047Y-108329819D02*
X131969047Y-107329819D01*
X132397618Y-108329819D02*
X132397618Y-107806009D01*
X132397618Y-107806009D02*
X132349999Y-107710771D01*
X132349999Y-107710771D02*
X132254761Y-107663152D01*
X132254761Y-107663152D02*
X132111904Y-107663152D01*
X132111904Y-107663152D02*
X132016666Y-107710771D01*
X132016666Y-107710771D02*
X131969047Y-107758390D01*
X132730952Y-107663152D02*
X133111904Y-107663152D01*
X132873809Y-107329819D02*
X132873809Y-108186961D01*
X132873809Y-108186961D02*
X132921428Y-108282200D01*
X132921428Y-108282200D02*
X133016666Y-108329819D01*
X133016666Y-108329819D02*
X133111904Y-108329819D01*
X134159524Y-108282200D02*
X134302381Y-108329819D01*
X134302381Y-108329819D02*
X134540476Y-108329819D01*
X134540476Y-108329819D02*
X134635714Y-108282200D01*
X134635714Y-108282200D02*
X134683333Y-108234580D01*
X134683333Y-108234580D02*
X134730952Y-108139342D01*
X134730952Y-108139342D02*
X134730952Y-108044104D01*
X134730952Y-108044104D02*
X134683333Y-107948866D01*
X134683333Y-107948866D02*
X134635714Y-107901247D01*
X134635714Y-107901247D02*
X134540476Y-107853628D01*
X134540476Y-107853628D02*
X134350000Y-107806009D01*
X134350000Y-107806009D02*
X134254762Y-107758390D01*
X134254762Y-107758390D02*
X134207143Y-107710771D01*
X134207143Y-107710771D02*
X134159524Y-107615533D01*
X134159524Y-107615533D02*
X134159524Y-107520295D01*
X134159524Y-107520295D02*
X134207143Y-107425057D01*
X134207143Y-107425057D02*
X134254762Y-107377438D01*
X134254762Y-107377438D02*
X134350000Y-107329819D01*
X134350000Y-107329819D02*
X134588095Y-107329819D01*
X134588095Y-107329819D02*
X134730952Y-107377438D01*
X135159524Y-108329819D02*
X135159524Y-107663152D01*
X135159524Y-107329819D02*
X135111905Y-107377438D01*
X135111905Y-107377438D02*
X135159524Y-107425057D01*
X135159524Y-107425057D02*
X135207143Y-107377438D01*
X135207143Y-107377438D02*
X135159524Y-107329819D01*
X135159524Y-107329819D02*
X135159524Y-107425057D01*
X136064285Y-108329819D02*
X136064285Y-107329819D01*
X136064285Y-108282200D02*
X135969047Y-108329819D01*
X135969047Y-108329819D02*
X135778571Y-108329819D01*
X135778571Y-108329819D02*
X135683333Y-108282200D01*
X135683333Y-108282200D02*
X135635714Y-108234580D01*
X135635714Y-108234580D02*
X135588095Y-108139342D01*
X135588095Y-108139342D02*
X135588095Y-107853628D01*
X135588095Y-107853628D02*
X135635714Y-107758390D01*
X135635714Y-107758390D02*
X135683333Y-107710771D01*
X135683333Y-107710771D02*
X135778571Y-107663152D01*
X135778571Y-107663152D02*
X135969047Y-107663152D01*
X135969047Y-107663152D02*
X136064285Y-107710771D01*
X136921428Y-108282200D02*
X136826190Y-108329819D01*
X136826190Y-108329819D02*
X136635714Y-108329819D01*
X136635714Y-108329819D02*
X136540476Y-108282200D01*
X136540476Y-108282200D02*
X136492857Y-108186961D01*
X136492857Y-108186961D02*
X136492857Y-107806009D01*
X136492857Y-107806009D02*
X136540476Y-107710771D01*
X136540476Y-107710771D02*
X136635714Y-107663152D01*
X136635714Y-107663152D02*
X136826190Y-107663152D01*
X136826190Y-107663152D02*
X136921428Y-107710771D01*
X136921428Y-107710771D02*
X136969047Y-107806009D01*
X136969047Y-107806009D02*
X136969047Y-107901247D01*
X136969047Y-107901247D02*
X136492857Y-107996485D01*
D10*
X44303572Y-88874757D02*
X44160715Y-88803328D01*
X44160715Y-88803328D02*
X43946429Y-88803328D01*
X43946429Y-88803328D02*
X43732143Y-88874757D01*
X43732143Y-88874757D02*
X43589286Y-89017614D01*
X43589286Y-89017614D02*
X43517857Y-89160471D01*
X43517857Y-89160471D02*
X43446429Y-89446185D01*
X43446429Y-89446185D02*
X43446429Y-89660471D01*
X43446429Y-89660471D02*
X43517857Y-89946185D01*
X43517857Y-89946185D02*
X43589286Y-90089042D01*
X43589286Y-90089042D02*
X43732143Y-90231900D01*
X43732143Y-90231900D02*
X43946429Y-90303328D01*
X43946429Y-90303328D02*
X44089286Y-90303328D01*
X44089286Y-90303328D02*
X44303572Y-90231900D01*
X44303572Y-90231900D02*
X44375000Y-90160471D01*
X44375000Y-90160471D02*
X44375000Y-89660471D01*
X44375000Y-89660471D02*
X44089286Y-89660471D01*
X45232143Y-88803328D02*
X45232143Y-89160471D01*
X44875000Y-89017614D02*
X45232143Y-89160471D01*
X45232143Y-89160471D02*
X45589286Y-89017614D01*
X45017857Y-89446185D02*
X45232143Y-89160471D01*
X45232143Y-89160471D02*
X45446429Y-89446185D01*
X46375000Y-88803328D02*
X46375000Y-89160471D01*
X46017857Y-89017614D02*
X46375000Y-89160471D01*
X46375000Y-89160471D02*
X46732143Y-89017614D01*
X46160714Y-89446185D02*
X46375000Y-89160471D01*
X46375000Y-89160471D02*
X46589286Y-89446185D01*
X47517857Y-88803328D02*
X47517857Y-89160471D01*
X47160714Y-89017614D02*
X47517857Y-89160471D01*
X47517857Y-89160471D02*
X47875000Y-89017614D01*
X47303571Y-89446185D02*
X47517857Y-89160471D01*
X47517857Y-89160471D02*
X47732143Y-89446185D01*
D12*
X125492261Y-52811069D02*
X125016071Y-52811069D01*
X125016071Y-52811069D02*
X125016071Y-51811069D01*
X125825595Y-52811069D02*
X125825595Y-52144402D01*
X125825595Y-51811069D02*
X125777976Y-51858688D01*
X125777976Y-51858688D02*
X125825595Y-51906307D01*
X125825595Y-51906307D02*
X125873214Y-51858688D01*
X125873214Y-51858688D02*
X125825595Y-51811069D01*
X125825595Y-51811069D02*
X125825595Y-51906307D01*
X126730356Y-52144402D02*
X126730356Y-52953926D01*
X126730356Y-52953926D02*
X126682737Y-53049164D01*
X126682737Y-53049164D02*
X126635118Y-53096783D01*
X126635118Y-53096783D02*
X126539880Y-53144402D01*
X126539880Y-53144402D02*
X126397023Y-53144402D01*
X126397023Y-53144402D02*
X126301785Y-53096783D01*
X126730356Y-52763450D02*
X126635118Y-52811069D01*
X126635118Y-52811069D02*
X126444642Y-52811069D01*
X126444642Y-52811069D02*
X126349404Y-52763450D01*
X126349404Y-52763450D02*
X126301785Y-52715830D01*
X126301785Y-52715830D02*
X126254166Y-52620592D01*
X126254166Y-52620592D02*
X126254166Y-52334878D01*
X126254166Y-52334878D02*
X126301785Y-52239640D01*
X126301785Y-52239640D02*
X126349404Y-52192021D01*
X126349404Y-52192021D02*
X126444642Y-52144402D01*
X126444642Y-52144402D02*
X126635118Y-52144402D01*
X126635118Y-52144402D02*
X126730356Y-52192021D01*
X127206547Y-52811069D02*
X127206547Y-51811069D01*
X127635118Y-52811069D02*
X127635118Y-52287259D01*
X127635118Y-52287259D02*
X127587499Y-52192021D01*
X127587499Y-52192021D02*
X127492261Y-52144402D01*
X127492261Y-52144402D02*
X127349404Y-52144402D01*
X127349404Y-52144402D02*
X127254166Y-52192021D01*
X127254166Y-52192021D02*
X127206547Y-52239640D01*
X127968452Y-52144402D02*
X128349404Y-52144402D01*
X128111309Y-51811069D02*
X128111309Y-52668211D01*
X128111309Y-52668211D02*
X128158928Y-52763450D01*
X128158928Y-52763450D02*
X128254166Y-52811069D01*
X128254166Y-52811069D02*
X128349404Y-52811069D01*
X129397024Y-52763450D02*
X129539881Y-52811069D01*
X129539881Y-52811069D02*
X129777976Y-52811069D01*
X129777976Y-52811069D02*
X129873214Y-52763450D01*
X129873214Y-52763450D02*
X129920833Y-52715830D01*
X129920833Y-52715830D02*
X129968452Y-52620592D01*
X129968452Y-52620592D02*
X129968452Y-52525354D01*
X129968452Y-52525354D02*
X129920833Y-52430116D01*
X129920833Y-52430116D02*
X129873214Y-52382497D01*
X129873214Y-52382497D02*
X129777976Y-52334878D01*
X129777976Y-52334878D02*
X129587500Y-52287259D01*
X129587500Y-52287259D02*
X129492262Y-52239640D01*
X129492262Y-52239640D02*
X129444643Y-52192021D01*
X129444643Y-52192021D02*
X129397024Y-52096783D01*
X129397024Y-52096783D02*
X129397024Y-52001545D01*
X129397024Y-52001545D02*
X129444643Y-51906307D01*
X129444643Y-51906307D02*
X129492262Y-51858688D01*
X129492262Y-51858688D02*
X129587500Y-51811069D01*
X129587500Y-51811069D02*
X129825595Y-51811069D01*
X129825595Y-51811069D02*
X129968452Y-51858688D01*
X130397024Y-52811069D02*
X130397024Y-52144402D01*
X130397024Y-51811069D02*
X130349405Y-51858688D01*
X130349405Y-51858688D02*
X130397024Y-51906307D01*
X130397024Y-51906307D02*
X130444643Y-51858688D01*
X130444643Y-51858688D02*
X130397024Y-51811069D01*
X130397024Y-51811069D02*
X130397024Y-51906307D01*
X131301785Y-52811069D02*
X131301785Y-51811069D01*
X131301785Y-52763450D02*
X131206547Y-52811069D01*
X131206547Y-52811069D02*
X131016071Y-52811069D01*
X131016071Y-52811069D02*
X130920833Y-52763450D01*
X130920833Y-52763450D02*
X130873214Y-52715830D01*
X130873214Y-52715830D02*
X130825595Y-52620592D01*
X130825595Y-52620592D02*
X130825595Y-52334878D01*
X130825595Y-52334878D02*
X130873214Y-52239640D01*
X130873214Y-52239640D02*
X130920833Y-52192021D01*
X130920833Y-52192021D02*
X131016071Y-52144402D01*
X131016071Y-52144402D02*
X131206547Y-52144402D01*
X131206547Y-52144402D02*
X131301785Y-52192021D01*
X132158928Y-52763450D02*
X132063690Y-52811069D01*
X132063690Y-52811069D02*
X131873214Y-52811069D01*
X131873214Y-52811069D02*
X131777976Y-52763450D01*
X131777976Y-52763450D02*
X131730357Y-52668211D01*
X131730357Y-52668211D02*
X131730357Y-52287259D01*
X131730357Y-52287259D02*
X131777976Y-52192021D01*
X131777976Y-52192021D02*
X131873214Y-52144402D01*
X131873214Y-52144402D02*
X132063690Y-52144402D01*
X132063690Y-52144402D02*
X132158928Y-52192021D01*
X132158928Y-52192021D02*
X132206547Y-52287259D01*
X132206547Y-52287259D02*
X132206547Y-52382497D01*
X132206547Y-52382497D02*
X131730357Y-52477735D01*
X168136011Y-101186069D02*
X167659821Y-101186069D01*
X167659821Y-101186069D02*
X167659821Y-100186069D01*
X168469345Y-101186069D02*
X168469345Y-100519402D01*
X168469345Y-100186069D02*
X168421726Y-100233688D01*
X168421726Y-100233688D02*
X168469345Y-100281307D01*
X168469345Y-100281307D02*
X168516964Y-100233688D01*
X168516964Y-100233688D02*
X168469345Y-100186069D01*
X168469345Y-100186069D02*
X168469345Y-100281307D01*
X169374106Y-100519402D02*
X169374106Y-101328926D01*
X169374106Y-101328926D02*
X169326487Y-101424164D01*
X169326487Y-101424164D02*
X169278868Y-101471783D01*
X169278868Y-101471783D02*
X169183630Y-101519402D01*
X169183630Y-101519402D02*
X169040773Y-101519402D01*
X169040773Y-101519402D02*
X168945535Y-101471783D01*
X169374106Y-101138450D02*
X169278868Y-101186069D01*
X169278868Y-101186069D02*
X169088392Y-101186069D01*
X169088392Y-101186069D02*
X168993154Y-101138450D01*
X168993154Y-101138450D02*
X168945535Y-101090830D01*
X168945535Y-101090830D02*
X168897916Y-100995592D01*
X168897916Y-100995592D02*
X168897916Y-100709878D01*
X168897916Y-100709878D02*
X168945535Y-100614640D01*
X168945535Y-100614640D02*
X168993154Y-100567021D01*
X168993154Y-100567021D02*
X169088392Y-100519402D01*
X169088392Y-100519402D02*
X169278868Y-100519402D01*
X169278868Y-100519402D02*
X169374106Y-100567021D01*
X169850297Y-101186069D02*
X169850297Y-100186069D01*
X170278868Y-101186069D02*
X170278868Y-100662259D01*
X170278868Y-100662259D02*
X170231249Y-100567021D01*
X170231249Y-100567021D02*
X170136011Y-100519402D01*
X170136011Y-100519402D02*
X169993154Y-100519402D01*
X169993154Y-100519402D02*
X169897916Y-100567021D01*
X169897916Y-100567021D02*
X169850297Y-100614640D01*
X170612202Y-100519402D02*
X170993154Y-100519402D01*
X170755059Y-100186069D02*
X170755059Y-101043211D01*
X170755059Y-101043211D02*
X170802678Y-101138450D01*
X170802678Y-101138450D02*
X170897916Y-101186069D01*
X170897916Y-101186069D02*
X170993154Y-101186069D01*
X172040774Y-101138450D02*
X172183631Y-101186069D01*
X172183631Y-101186069D02*
X172421726Y-101186069D01*
X172421726Y-101186069D02*
X172516964Y-101138450D01*
X172516964Y-101138450D02*
X172564583Y-101090830D01*
X172564583Y-101090830D02*
X172612202Y-100995592D01*
X172612202Y-100995592D02*
X172612202Y-100900354D01*
X172612202Y-100900354D02*
X172564583Y-100805116D01*
X172564583Y-100805116D02*
X172516964Y-100757497D01*
X172516964Y-100757497D02*
X172421726Y-100709878D01*
X172421726Y-100709878D02*
X172231250Y-100662259D01*
X172231250Y-100662259D02*
X172136012Y-100614640D01*
X172136012Y-100614640D02*
X172088393Y-100567021D01*
X172088393Y-100567021D02*
X172040774Y-100471783D01*
X172040774Y-100471783D02*
X172040774Y-100376545D01*
X172040774Y-100376545D02*
X172088393Y-100281307D01*
X172088393Y-100281307D02*
X172136012Y-100233688D01*
X172136012Y-100233688D02*
X172231250Y-100186069D01*
X172231250Y-100186069D02*
X172469345Y-100186069D01*
X172469345Y-100186069D02*
X172612202Y-100233688D01*
X173040774Y-101186069D02*
X173040774Y-100519402D01*
X173040774Y-100186069D02*
X172993155Y-100233688D01*
X172993155Y-100233688D02*
X173040774Y-100281307D01*
X173040774Y-100281307D02*
X173088393Y-100233688D01*
X173088393Y-100233688D02*
X173040774Y-100186069D01*
X173040774Y-100186069D02*
X173040774Y-100281307D01*
X173945535Y-101186069D02*
X173945535Y-100186069D01*
X173945535Y-101138450D02*
X173850297Y-101186069D01*
X173850297Y-101186069D02*
X173659821Y-101186069D01*
X173659821Y-101186069D02*
X173564583Y-101138450D01*
X173564583Y-101138450D02*
X173516964Y-101090830D01*
X173516964Y-101090830D02*
X173469345Y-100995592D01*
X173469345Y-100995592D02*
X173469345Y-100709878D01*
X173469345Y-100709878D02*
X173516964Y-100614640D01*
X173516964Y-100614640D02*
X173564583Y-100567021D01*
X173564583Y-100567021D02*
X173659821Y-100519402D01*
X173659821Y-100519402D02*
X173850297Y-100519402D01*
X173850297Y-100519402D02*
X173945535Y-100567021D01*
X174802678Y-101138450D02*
X174707440Y-101186069D01*
X174707440Y-101186069D02*
X174516964Y-101186069D01*
X174516964Y-101186069D02*
X174421726Y-101138450D01*
X174421726Y-101138450D02*
X174374107Y-101043211D01*
X174374107Y-101043211D02*
X174374107Y-100662259D01*
X174374107Y-100662259D02*
X174421726Y-100567021D01*
X174421726Y-100567021D02*
X174516964Y-100519402D01*
X174516964Y-100519402D02*
X174707440Y-100519402D01*
X174707440Y-100519402D02*
X174802678Y-100567021D01*
X174802678Y-100567021D02*
X174850297Y-100662259D01*
X174850297Y-100662259D02*
X174850297Y-100757497D01*
X174850297Y-100757497D02*
X174374107Y-100852735D01*
X82848511Y-89279819D02*
X82372321Y-89279819D01*
X82372321Y-89279819D02*
X82372321Y-88279819D01*
X83181845Y-89279819D02*
X83181845Y-88613152D01*
X83181845Y-88279819D02*
X83134226Y-88327438D01*
X83134226Y-88327438D02*
X83181845Y-88375057D01*
X83181845Y-88375057D02*
X83229464Y-88327438D01*
X83229464Y-88327438D02*
X83181845Y-88279819D01*
X83181845Y-88279819D02*
X83181845Y-88375057D01*
X84086606Y-88613152D02*
X84086606Y-89422676D01*
X84086606Y-89422676D02*
X84038987Y-89517914D01*
X84038987Y-89517914D02*
X83991368Y-89565533D01*
X83991368Y-89565533D02*
X83896130Y-89613152D01*
X83896130Y-89613152D02*
X83753273Y-89613152D01*
X83753273Y-89613152D02*
X83658035Y-89565533D01*
X84086606Y-89232200D02*
X83991368Y-89279819D01*
X83991368Y-89279819D02*
X83800892Y-89279819D01*
X83800892Y-89279819D02*
X83705654Y-89232200D01*
X83705654Y-89232200D02*
X83658035Y-89184580D01*
X83658035Y-89184580D02*
X83610416Y-89089342D01*
X83610416Y-89089342D02*
X83610416Y-88803628D01*
X83610416Y-88803628D02*
X83658035Y-88708390D01*
X83658035Y-88708390D02*
X83705654Y-88660771D01*
X83705654Y-88660771D02*
X83800892Y-88613152D01*
X83800892Y-88613152D02*
X83991368Y-88613152D01*
X83991368Y-88613152D02*
X84086606Y-88660771D01*
X84562797Y-89279819D02*
X84562797Y-88279819D01*
X84991368Y-89279819D02*
X84991368Y-88756009D01*
X84991368Y-88756009D02*
X84943749Y-88660771D01*
X84943749Y-88660771D02*
X84848511Y-88613152D01*
X84848511Y-88613152D02*
X84705654Y-88613152D01*
X84705654Y-88613152D02*
X84610416Y-88660771D01*
X84610416Y-88660771D02*
X84562797Y-88708390D01*
X85324702Y-88613152D02*
X85705654Y-88613152D01*
X85467559Y-88279819D02*
X85467559Y-89136961D01*
X85467559Y-89136961D02*
X85515178Y-89232200D01*
X85515178Y-89232200D02*
X85610416Y-89279819D01*
X85610416Y-89279819D02*
X85705654Y-89279819D01*
X86753274Y-89232200D02*
X86896131Y-89279819D01*
X86896131Y-89279819D02*
X87134226Y-89279819D01*
X87134226Y-89279819D02*
X87229464Y-89232200D01*
X87229464Y-89232200D02*
X87277083Y-89184580D01*
X87277083Y-89184580D02*
X87324702Y-89089342D01*
X87324702Y-89089342D02*
X87324702Y-88994104D01*
X87324702Y-88994104D02*
X87277083Y-88898866D01*
X87277083Y-88898866D02*
X87229464Y-88851247D01*
X87229464Y-88851247D02*
X87134226Y-88803628D01*
X87134226Y-88803628D02*
X86943750Y-88756009D01*
X86943750Y-88756009D02*
X86848512Y-88708390D01*
X86848512Y-88708390D02*
X86800893Y-88660771D01*
X86800893Y-88660771D02*
X86753274Y-88565533D01*
X86753274Y-88565533D02*
X86753274Y-88470295D01*
X86753274Y-88470295D02*
X86800893Y-88375057D01*
X86800893Y-88375057D02*
X86848512Y-88327438D01*
X86848512Y-88327438D02*
X86943750Y-88279819D01*
X86943750Y-88279819D02*
X87181845Y-88279819D01*
X87181845Y-88279819D02*
X87324702Y-88327438D01*
X87753274Y-89279819D02*
X87753274Y-88613152D01*
X87753274Y-88279819D02*
X87705655Y-88327438D01*
X87705655Y-88327438D02*
X87753274Y-88375057D01*
X87753274Y-88375057D02*
X87800893Y-88327438D01*
X87800893Y-88327438D02*
X87753274Y-88279819D01*
X87753274Y-88279819D02*
X87753274Y-88375057D01*
X88658035Y-89279819D02*
X88658035Y-88279819D01*
X88658035Y-89232200D02*
X88562797Y-89279819D01*
X88562797Y-89279819D02*
X88372321Y-89279819D01*
X88372321Y-89279819D02*
X88277083Y-89232200D01*
X88277083Y-89232200D02*
X88229464Y-89184580D01*
X88229464Y-89184580D02*
X88181845Y-89089342D01*
X88181845Y-89089342D02*
X88181845Y-88803628D01*
X88181845Y-88803628D02*
X88229464Y-88708390D01*
X88229464Y-88708390D02*
X88277083Y-88660771D01*
X88277083Y-88660771D02*
X88372321Y-88613152D01*
X88372321Y-88613152D02*
X88562797Y-88613152D01*
X88562797Y-88613152D02*
X88658035Y-88660771D01*
X89515178Y-89232200D02*
X89419940Y-89279819D01*
X89419940Y-89279819D02*
X89229464Y-89279819D01*
X89229464Y-89279819D02*
X89134226Y-89232200D01*
X89134226Y-89232200D02*
X89086607Y-89136961D01*
X89086607Y-89136961D02*
X89086607Y-88756009D01*
X89086607Y-88756009D02*
X89134226Y-88660771D01*
X89134226Y-88660771D02*
X89229464Y-88613152D01*
X89229464Y-88613152D02*
X89419940Y-88613152D01*
X89419940Y-88613152D02*
X89515178Y-88660771D01*
X89515178Y-88660771D02*
X89562797Y-88756009D01*
X89562797Y-88756009D02*
X89562797Y-88851247D01*
X89562797Y-88851247D02*
X89086607Y-88946485D01*
X68342261Y-52811069D02*
X67866071Y-52811069D01*
X67866071Y-52811069D02*
X67866071Y-51811069D01*
X68675595Y-52811069D02*
X68675595Y-52144402D01*
X68675595Y-51811069D02*
X68627976Y-51858688D01*
X68627976Y-51858688D02*
X68675595Y-51906307D01*
X68675595Y-51906307D02*
X68723214Y-51858688D01*
X68723214Y-51858688D02*
X68675595Y-51811069D01*
X68675595Y-51811069D02*
X68675595Y-51906307D01*
X69580356Y-52144402D02*
X69580356Y-52953926D01*
X69580356Y-52953926D02*
X69532737Y-53049164D01*
X69532737Y-53049164D02*
X69485118Y-53096783D01*
X69485118Y-53096783D02*
X69389880Y-53144402D01*
X69389880Y-53144402D02*
X69247023Y-53144402D01*
X69247023Y-53144402D02*
X69151785Y-53096783D01*
X69580356Y-52763450D02*
X69485118Y-52811069D01*
X69485118Y-52811069D02*
X69294642Y-52811069D01*
X69294642Y-52811069D02*
X69199404Y-52763450D01*
X69199404Y-52763450D02*
X69151785Y-52715830D01*
X69151785Y-52715830D02*
X69104166Y-52620592D01*
X69104166Y-52620592D02*
X69104166Y-52334878D01*
X69104166Y-52334878D02*
X69151785Y-52239640D01*
X69151785Y-52239640D02*
X69199404Y-52192021D01*
X69199404Y-52192021D02*
X69294642Y-52144402D01*
X69294642Y-52144402D02*
X69485118Y-52144402D01*
X69485118Y-52144402D02*
X69580356Y-52192021D01*
X70056547Y-52811069D02*
X70056547Y-51811069D01*
X70485118Y-52811069D02*
X70485118Y-52287259D01*
X70485118Y-52287259D02*
X70437499Y-52192021D01*
X70437499Y-52192021D02*
X70342261Y-52144402D01*
X70342261Y-52144402D02*
X70199404Y-52144402D01*
X70199404Y-52144402D02*
X70104166Y-52192021D01*
X70104166Y-52192021D02*
X70056547Y-52239640D01*
X70818452Y-52144402D02*
X71199404Y-52144402D01*
X70961309Y-51811069D02*
X70961309Y-52668211D01*
X70961309Y-52668211D02*
X71008928Y-52763450D01*
X71008928Y-52763450D02*
X71104166Y-52811069D01*
X71104166Y-52811069D02*
X71199404Y-52811069D01*
X72247024Y-52763450D02*
X72389881Y-52811069D01*
X72389881Y-52811069D02*
X72627976Y-52811069D01*
X72627976Y-52811069D02*
X72723214Y-52763450D01*
X72723214Y-52763450D02*
X72770833Y-52715830D01*
X72770833Y-52715830D02*
X72818452Y-52620592D01*
X72818452Y-52620592D02*
X72818452Y-52525354D01*
X72818452Y-52525354D02*
X72770833Y-52430116D01*
X72770833Y-52430116D02*
X72723214Y-52382497D01*
X72723214Y-52382497D02*
X72627976Y-52334878D01*
X72627976Y-52334878D02*
X72437500Y-52287259D01*
X72437500Y-52287259D02*
X72342262Y-52239640D01*
X72342262Y-52239640D02*
X72294643Y-52192021D01*
X72294643Y-52192021D02*
X72247024Y-52096783D01*
X72247024Y-52096783D02*
X72247024Y-52001545D01*
X72247024Y-52001545D02*
X72294643Y-51906307D01*
X72294643Y-51906307D02*
X72342262Y-51858688D01*
X72342262Y-51858688D02*
X72437500Y-51811069D01*
X72437500Y-51811069D02*
X72675595Y-51811069D01*
X72675595Y-51811069D02*
X72818452Y-51858688D01*
X73247024Y-52811069D02*
X73247024Y-52144402D01*
X73247024Y-51811069D02*
X73199405Y-51858688D01*
X73199405Y-51858688D02*
X73247024Y-51906307D01*
X73247024Y-51906307D02*
X73294643Y-51858688D01*
X73294643Y-51858688D02*
X73247024Y-51811069D01*
X73247024Y-51811069D02*
X73247024Y-51906307D01*
X74151785Y-52811069D02*
X74151785Y-51811069D01*
X74151785Y-52763450D02*
X74056547Y-52811069D01*
X74056547Y-52811069D02*
X73866071Y-52811069D01*
X73866071Y-52811069D02*
X73770833Y-52763450D01*
X73770833Y-52763450D02*
X73723214Y-52715830D01*
X73723214Y-52715830D02*
X73675595Y-52620592D01*
X73675595Y-52620592D02*
X73675595Y-52334878D01*
X73675595Y-52334878D02*
X73723214Y-52239640D01*
X73723214Y-52239640D02*
X73770833Y-52192021D01*
X73770833Y-52192021D02*
X73866071Y-52144402D01*
X73866071Y-52144402D02*
X74056547Y-52144402D01*
X74056547Y-52144402D02*
X74151785Y-52192021D01*
X75008928Y-52763450D02*
X74913690Y-52811069D01*
X74913690Y-52811069D02*
X74723214Y-52811069D01*
X74723214Y-52811069D02*
X74627976Y-52763450D01*
X74627976Y-52763450D02*
X74580357Y-52668211D01*
X74580357Y-52668211D02*
X74580357Y-52287259D01*
X74580357Y-52287259D02*
X74627976Y-52192021D01*
X74627976Y-52192021D02*
X74723214Y-52144402D01*
X74723214Y-52144402D02*
X74913690Y-52144402D01*
X74913690Y-52144402D02*
X75008928Y-52192021D01*
X75008928Y-52192021D02*
X75056547Y-52287259D01*
X75056547Y-52287259D02*
X75056547Y-52382497D01*
X75056547Y-52382497D02*
X74580357Y-52477735D01*
X40379819Y-77012654D02*
X40379819Y-76441226D01*
X41379819Y-76726940D02*
X40379819Y-76726940D01*
X41379819Y-75536464D02*
X40903628Y-75869797D01*
X41379819Y-76107892D02*
X40379819Y-76107892D01*
X40379819Y-76107892D02*
X40379819Y-75726940D01*
X40379819Y-75726940D02*
X40427438Y-75631702D01*
X40427438Y-75631702D02*
X40475057Y-75584083D01*
X40475057Y-75584083D02*
X40570295Y-75536464D01*
X40570295Y-75536464D02*
X40713152Y-75536464D01*
X40713152Y-75536464D02*
X40808390Y-75584083D01*
X40808390Y-75584083D02*
X40856009Y-75631702D01*
X40856009Y-75631702D02*
X40903628Y-75726940D01*
X40903628Y-75726940D02*
X40903628Y-76107892D01*
X41379819Y-74536464D02*
X40903628Y-74869797D01*
X41379819Y-75107892D02*
X40379819Y-75107892D01*
X40379819Y-75107892D02*
X40379819Y-74726940D01*
X40379819Y-74726940D02*
X40427438Y-74631702D01*
X40427438Y-74631702D02*
X40475057Y-74584083D01*
X40475057Y-74584083D02*
X40570295Y-74536464D01*
X40570295Y-74536464D02*
X40713152Y-74536464D01*
X40713152Y-74536464D02*
X40808390Y-74584083D01*
X40808390Y-74584083D02*
X40856009Y-74631702D01*
X40856009Y-74631702D02*
X40903628Y-74726940D01*
X40903628Y-74726940D02*
X40903628Y-75107892D01*
X41332200Y-74155511D02*
X41379819Y-74012654D01*
X41379819Y-74012654D02*
X41379819Y-73774559D01*
X41379819Y-73774559D02*
X41332200Y-73679321D01*
X41332200Y-73679321D02*
X41284580Y-73631702D01*
X41284580Y-73631702D02*
X41189342Y-73584083D01*
X41189342Y-73584083D02*
X41094104Y-73584083D01*
X41094104Y-73584083D02*
X40998866Y-73631702D01*
X40998866Y-73631702D02*
X40951247Y-73679321D01*
X40951247Y-73679321D02*
X40903628Y-73774559D01*
X40903628Y-73774559D02*
X40856009Y-73965035D01*
X40856009Y-73965035D02*
X40808390Y-74060273D01*
X40808390Y-74060273D02*
X40760771Y-74107892D01*
X40760771Y-74107892D02*
X40665533Y-74155511D01*
X40665533Y-74155511D02*
X40570295Y-74155511D01*
X40570295Y-74155511D02*
X40475057Y-74107892D01*
X40475057Y-74107892D02*
X40427438Y-74060273D01*
X40427438Y-74060273D02*
X40379819Y-73965035D01*
X40379819Y-73965035D02*
X40379819Y-73726940D01*
X40379819Y-73726940D02*
X40427438Y-73584083D01*
G36*
X37308788Y-91162076D02*
G01*
X37339300Y-91276000D01*
X37371473Y-91491660D01*
X37389621Y-91774540D01*
X37394617Y-92084312D01*
X37387331Y-92380651D01*
X37368637Y-92623229D01*
X37339405Y-92771719D01*
X37306500Y-92793418D01*
X37281098Y-92687003D01*
X37262228Y-92449530D01*
X37252077Y-92119215D01*
X37251505Y-91833389D01*
X37257197Y-91449780D01*
X37267036Y-91220214D01*
X37283431Y-91129406D01*
X37308788Y-91162076D01*
G37*
G36*
X47959417Y-82411602D02*
G01*
X48066703Y-82592380D01*
X48073987Y-82851460D01*
X47972955Y-83154300D01*
X47961068Y-83177270D01*
X47871864Y-83379407D01*
X47753555Y-83694756D01*
X47617567Y-84087181D01*
X47475332Y-84520546D01*
X47338278Y-84958714D01*
X47217833Y-85365550D01*
X47125426Y-85704918D01*
X47072487Y-85940680D01*
X47064333Y-86012583D01*
X47097114Y-85986334D01*
X47184589Y-85835443D01*
X47310461Y-85589002D01*
X47366118Y-85473945D01*
X47567351Y-85079040D01*
X47803123Y-84655344D01*
X48019099Y-84299832D01*
X48227130Y-83946936D01*
X48331125Y-83681829D01*
X48347635Y-83495319D01*
X48388788Y-83237981D01*
X48528417Y-83011826D01*
X48724988Y-82871988D01*
X48832509Y-82851667D01*
X49037484Y-82924583D01*
X49184767Y-83107366D01*
X49259544Y-83346071D01*
X49247001Y-83586751D01*
X49132327Y-83775458D01*
X49093860Y-83803449D01*
X48951408Y-83944982D01*
X48754469Y-84216905D01*
X48518097Y-84595210D01*
X48257347Y-85055894D01*
X48004592Y-85540355D01*
X47844450Y-85902118D01*
X47783260Y-86160264D01*
X47792823Y-86285677D01*
X47846943Y-86501311D01*
X48037194Y-86221332D01*
X48151368Y-86030792D01*
X48313627Y-85731025D01*
X48500578Y-85366313D01*
X48654537Y-85052677D01*
X48842021Y-84678590D01*
X49023314Y-84344804D01*
X49175897Y-84091232D01*
X49266143Y-83968637D01*
X49484006Y-83824747D01*
X49703842Y-83818805D01*
X49877545Y-83951454D01*
X49883321Y-83960395D01*
X49930824Y-84158374D01*
X49887265Y-84381778D01*
X49775105Y-84556171D01*
X49688764Y-84605196D01*
X49551727Y-84713495D01*
X49436031Y-84928454D01*
X49426530Y-84956095D01*
X49345148Y-85173983D01*
X49214606Y-85489140D01*
X49058277Y-85845819D01*
X48997111Y-85980345D01*
X48856867Y-86303866D01*
X48755191Y-86574569D01*
X48706250Y-86752787D01*
X48706107Y-86795154D01*
X48806933Y-86873041D01*
X49009267Y-86941928D01*
X49068407Y-86954405D01*
X49361691Y-87024307D01*
X49785083Y-87146753D01*
X50310960Y-87312677D01*
X50911701Y-87513014D01*
X51559686Y-87738699D01*
X52227293Y-87980666D01*
X52464136Y-88068896D01*
X53072954Y-88286316D01*
X53607782Y-88455358D01*
X54051048Y-88571778D01*
X54385180Y-88631333D01*
X54592604Y-88629779D01*
X54649663Y-88596601D01*
X54778874Y-88521815D01*
X54963401Y-88570091D01*
X55160659Y-88726323D01*
X55221670Y-88799500D01*
X55330797Y-88972262D01*
X55419316Y-89184399D01*
X55490145Y-89456169D01*
X55546198Y-89807833D01*
X55590393Y-90259652D01*
X55625645Y-90831885D01*
X55654870Y-91544794D01*
X55665892Y-91885868D01*
X55723153Y-93765737D01*
X55352460Y-94154687D01*
X55212825Y-94287397D01*
X55037670Y-94423740D01*
X54807765Y-94574851D01*
X54503879Y-94751864D01*
X54106783Y-94965912D01*
X53597244Y-95228131D01*
X52956033Y-95549653D01*
X52864550Y-95595121D01*
X52130848Y-95955197D01*
X51527729Y-96241054D01*
X51037543Y-96460329D01*
X50642636Y-96620658D01*
X50325359Y-96729678D01*
X50112333Y-96785795D01*
X49763236Y-96840119D01*
X49273951Y-96884779D01*
X48673368Y-96919448D01*
X47990373Y-96943799D01*
X47253857Y-96957504D01*
X46492706Y-96960236D01*
X45735810Y-96951666D01*
X45012057Y-96931468D01*
X44350335Y-96899314D01*
X43804667Y-96857318D01*
X43245171Y-96798123D01*
X42638160Y-96724910D01*
X42053642Y-96646625D01*
X41561628Y-96572209D01*
X41524449Y-96566036D01*
X41340776Y-96528852D01*
X47849711Y-96528852D01*
X47956085Y-96542137D01*
X48080333Y-96544606D01*
X48263454Y-96538001D01*
X48313724Y-96521115D01*
X48270833Y-96507914D01*
X48024116Y-96493907D01*
X47889833Y-96507914D01*
X47849711Y-96528852D01*
X41340776Y-96528852D01*
X40950308Y-96449803D01*
X48659956Y-96449803D01*
X48723500Y-96464315D01*
X48842333Y-96470357D01*
X49059980Y-96457560D01*
X49384774Y-96414436D01*
X49758961Y-96349159D01*
X49900667Y-96320545D01*
X50265729Y-96232729D01*
X50636854Y-96125022D01*
X50977977Y-96010240D01*
X51253036Y-95901197D01*
X51425969Y-95810710D01*
X51467000Y-95763931D01*
X51394814Y-95770495D01*
X51208094Y-95822459D01*
X51014911Y-95885662D01*
X50724842Y-95973874D01*
X50323458Y-96081022D01*
X49865701Y-96193918D01*
X49406513Y-96299375D01*
X49000838Y-96384206D01*
X48757667Y-96427454D01*
X48659956Y-96449803D01*
X40950308Y-96449803D01*
X40936793Y-96447067D01*
X40293606Y-96282277D01*
X39635920Y-96085185D01*
X39004767Y-95869312D01*
X38734667Y-95763333D01*
X49350333Y-95763333D01*
X49392667Y-95805667D01*
X49435000Y-95763333D01*
X49392667Y-95721000D01*
X49350333Y-95763333D01*
X38734667Y-95763333D01*
X38482919Y-95664555D01*
X49632555Y-95664555D01*
X49644178Y-95714890D01*
X49689000Y-95721000D01*
X49758690Y-95690022D01*
X49745444Y-95664555D01*
X49644965Y-95654422D01*
X49632555Y-95664555D01*
X38482919Y-95664555D01*
X38441180Y-95648178D01*
X38395768Y-95626931D01*
X49884939Y-95626931D01*
X50008317Y-95608029D01*
X50262723Y-95539934D01*
X50638478Y-95424656D01*
X50923960Y-95331756D01*
X51585692Y-95098355D01*
X52111024Y-94882348D01*
X52374734Y-94747333D01*
X53414333Y-94747333D01*
X53456667Y-94789667D01*
X53499000Y-94747333D01*
X53456667Y-94705000D01*
X53414333Y-94747333D01*
X52374734Y-94747333D01*
X52490292Y-94688169D01*
X52713833Y-94520252D01*
X52728320Y-94503792D01*
X52783085Y-94419272D01*
X52720866Y-94410603D01*
X52596001Y-94442915D01*
X52438052Y-94499555D01*
X52159172Y-94610472D01*
X51793254Y-94761361D01*
X51374188Y-94937917D01*
X50935868Y-95125833D01*
X50512186Y-95310805D01*
X50137034Y-95478526D01*
X50070000Y-95509113D01*
X49902273Y-95594629D01*
X49884939Y-95626931D01*
X38395768Y-95626931D01*
X37986191Y-95435303D01*
X37892069Y-95382333D01*
X46895000Y-95382333D01*
X46925978Y-95452023D01*
X46951444Y-95438778D01*
X46961405Y-95340000D01*
X47064333Y-95340000D01*
X47106667Y-95382333D01*
X47149000Y-95340000D01*
X47106667Y-95297667D01*
X47064333Y-95340000D01*
X46961405Y-95340000D01*
X46961577Y-95338298D01*
X46951444Y-95325889D01*
X46901110Y-95337511D01*
X46895000Y-95382333D01*
X37892069Y-95382333D01*
X37835667Y-95350591D01*
X37518231Y-95165454D01*
X37154063Y-94964238D01*
X36783034Y-94767688D01*
X36445016Y-94596549D01*
X36179879Y-94471566D01*
X36041433Y-94417066D01*
X35927029Y-94370591D01*
X35836110Y-94292501D01*
X35765220Y-94163798D01*
X35710905Y-93965487D01*
X35669712Y-93678568D01*
X35638186Y-93284046D01*
X35636334Y-93245926D01*
X37073666Y-93245926D01*
X37285333Y-93286389D01*
X37497000Y-93326851D01*
X37504293Y-92301426D01*
X37511587Y-91276000D01*
X37845327Y-91982134D01*
X38010054Y-92351318D01*
X38156251Y-92715608D01*
X38259100Y-93012008D01*
X38278949Y-93082801D01*
X38344312Y-93339257D01*
X38397401Y-93478475D01*
X38474407Y-93545466D01*
X38611521Y-93585243D01*
X38699203Y-93605481D01*
X38891187Y-93652310D01*
X38990608Y-93679182D01*
X38993344Y-93680333D01*
X38971217Y-93620829D01*
X38897520Y-93464936D01*
X38893203Y-93456167D01*
X38758696Y-93170567D01*
X38598055Y-92809865D01*
X38424679Y-92406609D01*
X38356977Y-92244610D01*
X39528939Y-92244610D01*
X39530814Y-92764204D01*
X39537711Y-93153464D01*
X39552716Y-93431885D01*
X39578915Y-93618967D01*
X39619395Y-93734206D01*
X39677241Y-93797099D01*
X39755539Y-93827144D01*
X39857376Y-93843838D01*
X39888833Y-93848512D01*
X39905556Y-93770144D01*
X39920630Y-93544136D01*
X39933449Y-93192177D01*
X39943409Y-92735955D01*
X39949904Y-92197160D01*
X39952329Y-91597481D01*
X39952333Y-91572333D01*
X39952114Y-91520941D01*
X40714333Y-91520941D01*
X40714742Y-92237209D01*
X40717610Y-92802111D01*
X40725405Y-93233615D01*
X40740592Y-93549687D01*
X40765637Y-93768295D01*
X40803005Y-93907407D01*
X40855161Y-93984990D01*
X40924573Y-94019011D01*
X41013705Y-94027437D01*
X41058335Y-94027667D01*
X41081269Y-93946875D01*
X41103387Y-93720002D01*
X41123493Y-93370297D01*
X41140395Y-92921012D01*
X41152899Y-92395398D01*
X41157244Y-92101500D01*
X41180000Y-90175333D01*
X41709167Y-91211198D01*
X42238333Y-92247063D01*
X42238333Y-93222031D01*
X42238333Y-94197000D01*
X42450000Y-94197000D01*
X42661667Y-94197000D01*
X42661667Y-91572333D01*
X42661667Y-90875433D01*
X43286238Y-90875433D01*
X43372778Y-91429399D01*
X43541224Y-92023415D01*
X43757012Y-92524167D01*
X44049517Y-92982706D01*
X44448113Y-93450078D01*
X44660805Y-93667833D01*
X44938880Y-93941330D01*
X45171302Y-94164601D01*
X45333174Y-94314093D01*
X45399146Y-94366333D01*
X45409063Y-94285523D01*
X45410996Y-94236456D01*
X53182126Y-94236456D01*
X53197184Y-94272795D01*
X53301557Y-94289632D01*
X53511218Y-94190406D01*
X53589461Y-94140782D01*
X53779284Y-94005710D01*
X53886097Y-93910958D01*
X53895450Y-93887895D01*
X53802079Y-93891396D01*
X53619909Y-93940919D01*
X53415122Y-94014251D01*
X53253897Y-94089181D01*
X53214277Y-94116511D01*
X53182126Y-94236456D01*
X45410996Y-94236456D01*
X45418007Y-94058519D01*
X45425560Y-93708457D01*
X45431306Y-93258477D01*
X45434829Y-92731715D01*
X45435746Y-92334333D01*
X45436716Y-90677147D01*
X47058054Y-90677147D01*
X47108585Y-91253772D01*
X47233017Y-91832904D01*
X47432000Y-92384266D01*
X47506356Y-92539787D01*
X47671054Y-92799273D01*
X47912302Y-93101244D01*
X48199539Y-93415546D01*
X48502203Y-93712025D01*
X48789731Y-93960526D01*
X49031562Y-94130894D01*
X49181000Y-94192092D01*
X49192136Y-94112919D01*
X49200055Y-93888246D01*
X49204532Y-93541878D01*
X49205339Y-93097622D01*
X49202249Y-92579284D01*
X49199075Y-92292074D01*
X49174817Y-90387000D01*
X48966242Y-90387000D01*
X48757667Y-90387000D01*
X48757667Y-91826333D01*
X48753228Y-92330950D01*
X48740745Y-92748730D01*
X48721462Y-93056962D01*
X48696627Y-93232935D01*
X48678668Y-93265667D01*
X48564474Y-93197392D01*
X48395967Y-93016708D01*
X48199989Y-92759823D01*
X48003383Y-92462947D01*
X47832991Y-92162288D01*
X47780432Y-92053995D01*
X47578442Y-91508978D01*
X47464387Y-90968697D01*
X47438581Y-90464262D01*
X47501337Y-90026783D01*
X47652969Y-89687373D01*
X47755402Y-89570236D01*
X47954698Y-89471298D01*
X48218243Y-89432959D01*
X48469181Y-89458624D01*
X48614069Y-89532203D01*
X48737902Y-89617489D01*
X48810501Y-89561600D01*
X48840387Y-89353778D01*
X48842333Y-89244000D01*
X48842333Y-89032333D01*
X49943000Y-89032333D01*
X49943000Y-91581392D01*
X49943719Y-92308374D01*
X49946483Y-92883024D01*
X49952204Y-93322337D01*
X49961792Y-93643309D01*
X49976160Y-93862937D01*
X49996219Y-93998218D01*
X50022880Y-94066147D01*
X50057054Y-94083720D01*
X50076925Y-94079058D01*
X50238228Y-94033372D01*
X50288591Y-94027667D01*
X50312331Y-93946329D01*
X50332737Y-93715598D01*
X50349003Y-93355391D01*
X50360323Y-92885631D01*
X50365892Y-92326236D01*
X50366333Y-92105733D01*
X50369490Y-91418628D01*
X50379112Y-90896005D01*
X50395424Y-90533128D01*
X50418651Y-90325260D01*
X50449017Y-90267665D01*
X50453534Y-90271000D01*
X50525763Y-90377232D01*
X50656635Y-90600518D01*
X50827124Y-90907441D01*
X51005495Y-91240434D01*
X51205028Y-91624759D01*
X51339456Y-91911740D01*
X51424062Y-92153066D01*
X51474130Y-92400427D01*
X51504945Y-92705512D01*
X51524053Y-92994187D01*
X51552309Y-93391236D01*
X51582224Y-93646249D01*
X51619884Y-93786462D01*
X51671373Y-93839115D01*
X51712925Y-93839730D01*
X51753917Y-93815533D01*
X51786327Y-93748171D01*
X51811432Y-93619109D01*
X51830506Y-93409815D01*
X51844826Y-93101757D01*
X51855668Y-92676402D01*
X51864307Y-92115217D01*
X51870549Y-91550043D01*
X51880132Y-90588083D01*
X52567733Y-90588083D01*
X52585127Y-90985439D01*
X52650582Y-91307982D01*
X52784169Y-91647905D01*
X52810921Y-91705239D01*
X53100604Y-92213365D01*
X53439410Y-92635535D01*
X53803937Y-92950193D01*
X54170781Y-93135785D01*
X54409167Y-93177258D01*
X54599667Y-93181000D01*
X54599667Y-91539870D01*
X54599667Y-89898740D01*
X54388000Y-89858278D01*
X54176333Y-89817815D01*
X54176333Y-91203074D01*
X54174169Y-91757067D01*
X54162862Y-92156311D01*
X54135194Y-92415377D01*
X54083946Y-92548838D01*
X54001897Y-92571266D01*
X53881830Y-92497235D01*
X53716524Y-92341317D01*
X53647361Y-92270833D01*
X53322978Y-91848800D01*
X53087422Y-91360417D01*
X52952025Y-90848306D01*
X52928119Y-90355089D01*
X53024721Y-89928886D01*
X53104612Y-89722683D01*
X53141380Y-89597018D01*
X53140278Y-89581577D01*
X53050992Y-89551276D01*
X52895551Y-89510904D01*
X52736781Y-89494356D01*
X52658127Y-89575740D01*
X52620385Y-89721243D01*
X52593422Y-89941605D01*
X52574441Y-90260161D01*
X52567733Y-90588083D01*
X51880132Y-90588083D01*
X51893099Y-89286333D01*
X51682822Y-89286333D01*
X51591257Y-89291387D01*
X51530234Y-89326096D01*
X51492452Y-89419783D01*
X51470606Y-89601770D01*
X51457391Y-89901380D01*
X51448606Y-90226622D01*
X51424667Y-91166912D01*
X51072139Y-90535997D01*
X50890794Y-90189800D01*
X50731130Y-89846770D01*
X50622958Y-89571741D01*
X50610594Y-89532208D01*
X50510234Y-89249343D01*
X50396398Y-89097327D01*
X50233630Y-89039109D01*
X50133500Y-89033630D01*
X49943000Y-89032333D01*
X48842333Y-89032333D01*
X48842333Y-88863000D01*
X48310839Y-88863000D01*
X47875443Y-88895196D01*
X47595976Y-88991875D01*
X47582010Y-89001218D01*
X47343404Y-89265064D01*
X47176111Y-89652517D01*
X47080779Y-90133304D01*
X47058054Y-90677147D01*
X45436716Y-90677147D01*
X45436935Y-90302333D01*
X45234634Y-90302333D01*
X45032333Y-90302333D01*
X45032333Y-91826333D01*
X45028654Y-92313166D01*
X45018433Y-92735655D01*
X45002896Y-93067087D01*
X44983268Y-93280744D01*
X44962425Y-93350333D01*
X44824133Y-93277512D01*
X44641791Y-93080758D01*
X44436023Y-92792630D01*
X44227454Y-92445692D01*
X44036709Y-92072504D01*
X43884414Y-91705627D01*
X43843963Y-91584581D01*
X43739709Y-91145955D01*
X43687383Y-90701600D01*
X43689151Y-90301784D01*
X43747181Y-89996776D01*
X43772913Y-89936934D01*
X44010826Y-89601992D01*
X44294103Y-89410627D01*
X44601356Y-89370871D01*
X44911196Y-89490758D01*
X44928828Y-89502801D01*
X45039664Y-89572685D01*
X45095270Y-89559488D01*
X45114699Y-89433205D01*
X45117000Y-89206467D01*
X45117000Y-88778333D01*
X44620418Y-88778333D01*
X44274728Y-88798603D01*
X44034647Y-88869224D01*
X43898389Y-88955670D01*
X43604072Y-89289533D01*
X43399702Y-89740733D01*
X43291637Y-90279342D01*
X43286238Y-90875433D01*
X42661667Y-90875433D01*
X42661667Y-88947667D01*
X42452457Y-88947667D01*
X42243248Y-88947667D01*
X42219624Y-90069500D01*
X42196000Y-91191333D01*
X41756245Y-90302333D01*
X41578137Y-89937457D01*
X41426484Y-89617797D01*
X41318317Y-89379839D01*
X41272069Y-89265167D01*
X41151839Y-89144164D01*
X40970990Y-89117000D01*
X40714333Y-89117000D01*
X40714333Y-91520941D01*
X39952114Y-91520941D01*
X39949554Y-90921667D01*
X39941615Y-90355602D01*
X39929114Y-89891733D01*
X39912650Y-89547656D01*
X39892822Y-89340964D01*
X39874591Y-89286333D01*
X39771775Y-89289922D01*
X39691687Y-89313224D01*
X39631489Y-89375042D01*
X39588341Y-89494177D01*
X39559405Y-89689432D01*
X39541842Y-89979609D01*
X39532813Y-90383510D01*
X39529478Y-90919938D01*
X39529000Y-91575183D01*
X39528939Y-92244610D01*
X38356977Y-92244610D01*
X38251970Y-91993344D01*
X38093328Y-91602616D01*
X37962154Y-91266971D01*
X37871848Y-91018956D01*
X37835811Y-90891115D01*
X37835667Y-90887735D01*
X37888767Y-90755509D01*
X38028259Y-90544706D01*
X38224431Y-90300013D01*
X38232887Y-90290324D01*
X38458168Y-90033133D01*
X38660645Y-89802148D01*
X38791318Y-89653256D01*
X38952529Y-89469846D01*
X38626931Y-89545403D01*
X38405090Y-89594227D01*
X38260234Y-89621249D01*
X38243539Y-89622980D01*
X38175254Y-89694413D01*
X38130234Y-89799896D01*
X38041377Y-89970981D01*
X37888914Y-90179477D01*
X37714056Y-90377684D01*
X37558013Y-90517900D01*
X37476721Y-90556333D01*
X37428729Y-90479215D01*
X37430651Y-90264507D01*
X37439842Y-90187708D01*
X37465082Y-89960839D01*
X37444513Y-89860538D01*
X37358590Y-89846091D01*
X37282017Y-89858911D01*
X37073667Y-89898740D01*
X37073667Y-91572333D01*
X37073666Y-93245926D01*
X35636334Y-93245926D01*
X35612873Y-92762924D01*
X35604461Y-92514250D01*
X36741441Y-92514250D01*
X36754069Y-92730540D01*
X36799217Y-92954617D01*
X36860834Y-93124792D01*
X36914917Y-93181000D01*
X36979600Y-93114576D01*
X36982559Y-93075167D01*
X36953505Y-92930886D01*
X36893917Y-92754215D01*
X36824734Y-92593867D01*
X36766896Y-92498550D01*
X36741441Y-92514250D01*
X35604461Y-92514250D01*
X35590319Y-92096203D01*
X35584729Y-91905313D01*
X35583794Y-91868667D01*
X36650333Y-91868667D01*
X36692667Y-91911000D01*
X36735000Y-91868667D01*
X36692667Y-91826333D01*
X36650333Y-91868667D01*
X35583794Y-91868667D01*
X35565278Y-91143041D01*
X35556215Y-90533905D01*
X35558765Y-90061953D01*
X35574158Y-89711236D01*
X35603619Y-89465803D01*
X35648376Y-89309704D01*
X35701663Y-89237778D01*
X36396333Y-89237778D01*
X36466424Y-89226837D01*
X36647111Y-89162844D01*
X36819758Y-89092874D01*
X37050047Y-88978078D01*
X37166959Y-88882005D01*
X37168154Y-88838954D01*
X37070050Y-88844036D01*
X36887744Y-88914178D01*
X36677717Y-89020193D01*
X36496450Y-89132897D01*
X36400424Y-89223103D01*
X36396333Y-89237778D01*
X35701663Y-89237778D01*
X35709655Y-89226990D01*
X35788686Y-89201709D01*
X35792744Y-89201667D01*
X35949546Y-89143163D01*
X36130913Y-89000456D01*
X36148741Y-88981943D01*
X36459881Y-88715956D01*
X36854513Y-88482000D01*
X38767000Y-88482000D01*
X38809333Y-88524333D01*
X38851667Y-88482000D01*
X38809333Y-88439667D01*
X38767000Y-88482000D01*
X36854513Y-88482000D01*
X36890728Y-88460530D01*
X36969875Y-88425394D01*
X38978667Y-88425394D01*
X39402000Y-88378466D01*
X39686171Y-88333558D01*
X39921949Y-88273453D01*
X39994441Y-88244416D01*
X40110980Y-88167084D01*
X40085981Y-88134884D01*
X39940877Y-88146972D01*
X39697102Y-88202504D01*
X39486667Y-88264410D01*
X38978667Y-88425394D01*
X36969875Y-88425394D01*
X37451432Y-88211615D01*
X38127011Y-87974000D01*
X50789667Y-87974000D01*
X50832000Y-88016333D01*
X50874333Y-87974000D01*
X50832000Y-87931667D01*
X50789667Y-87974000D01*
X38127011Y-87974000D01*
X38152145Y-87965160D01*
X38412258Y-87889333D01*
X50535667Y-87889333D01*
X50578000Y-87931667D01*
X50620333Y-87889333D01*
X50578000Y-87847000D01*
X50535667Y-87889333D01*
X38412258Y-87889333D01*
X38751100Y-87790555D01*
X50225222Y-87790555D01*
X50236844Y-87840890D01*
X50281667Y-87847000D01*
X50351357Y-87816022D01*
X50338111Y-87790555D01*
X50237631Y-87780422D01*
X50225222Y-87790555D01*
X38751100Y-87790555D01*
X38917348Y-87742091D01*
X49895055Y-87742091D01*
X49978278Y-87755649D01*
X50088092Y-87740082D01*
X50089403Y-87711180D01*
X49976086Y-87690969D01*
X49927125Y-87704496D01*
X49895055Y-87742091D01*
X38917348Y-87742091D01*
X39003017Y-87717117D01*
X39867667Y-87498229D01*
X40227854Y-87410146D01*
X48673000Y-87410146D01*
X48748567Y-87466028D01*
X48942871Y-87530384D01*
X49117500Y-87569969D01*
X49456909Y-87630196D01*
X49653114Y-87653842D01*
X49699719Y-87641167D01*
X49590331Y-87592433D01*
X49477333Y-87555307D01*
X49082733Y-87438844D01*
X48828972Y-87380978D01*
X48699174Y-87378662D01*
X48673000Y-87410146D01*
X40227854Y-87410146D01*
X40342523Y-87382104D01*
X40768922Y-87273258D01*
X41115531Y-87180046D01*
X41342022Y-87113466D01*
X45328667Y-87113466D01*
X45836667Y-87169667D01*
X46304026Y-87215701D01*
X46626760Y-87234881D01*
X46798287Y-87227206D01*
X46812026Y-87192677D01*
X46768000Y-87169667D01*
X46602476Y-87135010D01*
X46325148Y-87111880D01*
X45993401Y-87104877D01*
X45963667Y-87105184D01*
X45328667Y-87113466D01*
X41342022Y-87113466D01*
X41351013Y-87110823D01*
X41434000Y-87080605D01*
X41593814Y-87027906D01*
X41869314Y-86961182D01*
X42208886Y-86892566D01*
X42314154Y-86873668D01*
X42638674Y-86815091D01*
X42891217Y-86765582D01*
X43031830Y-86733132D01*
X43047584Y-86726957D01*
X43033391Y-86641930D01*
X42975122Y-86438444D01*
X42884760Y-86157821D01*
X42869078Y-86111333D01*
X42755888Y-85730863D01*
X42661611Y-85330856D01*
X42612120Y-85036916D01*
X42564378Y-84768270D01*
X42499212Y-84576079D01*
X42448948Y-84513978D01*
X42328740Y-84401513D01*
X42203532Y-84190283D01*
X42106069Y-83946597D01*
X42069000Y-83744592D01*
X42135100Y-83519331D01*
X42298392Y-83387561D01*
X42506365Y-83363636D01*
X42706506Y-83461911D01*
X42780243Y-83550166D01*
X42854476Y-83717054D01*
X42947664Y-83999302D01*
X43043822Y-84346583D01*
X43079594Y-84492673D01*
X43224806Y-85004577D01*
X43418612Y-85468615D01*
X43696038Y-85968495D01*
X43699584Y-85974340D01*
X44142704Y-86704000D01*
X44201890Y-86069000D01*
X44245992Y-85665361D01*
X44307344Y-85190458D01*
X44373523Y-84739738D01*
X44380979Y-84693167D01*
X44500881Y-83952333D01*
X44306988Y-83952333D01*
X44073543Y-83886853D01*
X43910447Y-83723778D01*
X43848753Y-83513156D01*
X43911796Y-83315378D01*
X44050587Y-83186868D01*
X44257981Y-83052650D01*
X44459451Y-82956947D01*
X44550565Y-82936333D01*
X44691387Y-82994459D01*
X44819463Y-83104337D01*
X44884630Y-83201338D01*
X44929845Y-83343849D01*
X44959272Y-83562831D01*
X44977072Y-83889244D01*
X44987398Y-84353170D01*
X45006763Y-84866345D01*
X45046462Y-85335089D01*
X45102130Y-85732458D01*
X45169396Y-86031508D01*
X45243894Y-86205292D01*
X45293001Y-86238333D01*
X45320380Y-86159397D01*
X45352185Y-85945074D01*
X45384275Y-85629096D01*
X45409965Y-85285833D01*
X45441544Y-84856175D01*
X45478863Y-84447815D01*
X45516585Y-84115045D01*
X45541072Y-83952333D01*
X45573831Y-83696346D01*
X45547455Y-83556363D01*
X45492252Y-83504207D01*
X45318355Y-83330710D01*
X45242428Y-83098379D01*
X45264918Y-82863085D01*
X45386270Y-82680700D01*
X45485250Y-82626435D01*
X45783146Y-82584261D01*
X46080450Y-82635517D01*
X46313955Y-82763938D01*
X46391234Y-82859577D01*
X46432983Y-82998722D01*
X46390078Y-83157273D01*
X46266677Y-83364762D01*
X46176246Y-83511192D01*
X46115151Y-83651617D01*
X46077871Y-83822531D01*
X46058888Y-84060429D01*
X46052680Y-84401804D01*
X46053212Y-84776018D01*
X46059894Y-85222019D01*
X46074485Y-85638168D01*
X46094838Y-85978053D01*
X46118806Y-86195265D01*
X46118937Y-86196000D01*
X46179783Y-86534667D01*
X46230212Y-86407667D01*
X46979667Y-86407667D01*
X47010645Y-86477357D01*
X47036111Y-86464111D01*
X47046244Y-86363631D01*
X47036111Y-86351222D01*
X46985777Y-86362844D01*
X46979667Y-86407667D01*
X46230212Y-86407667D01*
X46448736Y-85857333D01*
X46583780Y-85484968D01*
X46697084Y-85114213D01*
X46767655Y-84815038D01*
X46774635Y-84771099D01*
X46829126Y-84524082D01*
X46903610Y-84356086D01*
X46943499Y-84319252D01*
X47038770Y-84214528D01*
X47143236Y-84000371D01*
X47240819Y-83728584D01*
X47315441Y-83450970D01*
X47351025Y-83219334D01*
X47331491Y-83085481D01*
X47327741Y-83081207D01*
X47231865Y-82886595D01*
X47266095Y-82672125D01*
X47404081Y-82482710D01*
X47619473Y-82363265D01*
X47760441Y-82343667D01*
X47959417Y-82411602D01*
G37*
X46511500Y-71326250D02*
X34511500Y-71326250D01*
X34511500Y-71326250D02*
X34511500Y-77326250D01*
X46511500Y-77326250D02*
X46511500Y-71326250D01*
X34511500Y-77326250D02*
X46511500Y-77326250D01*
D14*
X191452500Y-47625000D03*
D15*
X199072500Y-47625000D03*
D16*
X104313750Y-40798750D03*
D17*
X109393750Y-40798750D03*
D16*
X114473750Y-40798750D03*
X101917500Y-116998750D03*
D17*
X106997500Y-116998750D03*
D16*
X112077500Y-116998750D03*
X66228750Y-40798750D03*
D17*
X71308750Y-40798750D03*
D16*
X76388750Y-40798750D03*
X142428750Y-40798750D03*
D17*
X147508750Y-40798750D03*
D16*
X152588750Y-40798750D03*
D14*
X127158750Y-123825000D03*
D15*
X134778750Y-123825000D03*
D14*
X119062500Y-125253750D03*
D15*
X119062500Y-117633750D03*
D16*
X94773750Y-59848750D03*
D17*
X99853750Y-59848750D03*
D16*
X104933750Y-59848750D03*
D14*
X71437500Y-125253750D03*
D15*
X71437500Y-117633750D03*
D14*
X39052500Y-123825000D03*
D15*
X46672500Y-123825000D03*
D14*
X166687500Y-125253750D03*
D15*
X166687500Y-117633750D03*
D14*
X157162500Y-49053750D03*
D15*
X157162500Y-41433750D03*
D14*
X161925000Y-106203750D03*
D15*
X161925000Y-98583750D03*
D16*
X156686250Y-78898750D03*
D17*
X161766250Y-78898750D03*
D16*
X166846250Y-78898750D03*
X128111250Y-97948750D03*
D17*
X133191250Y-97948750D03*
D16*
X138271250Y-97948750D03*
D14*
X114300000Y-87153750D03*
D15*
X114300000Y-79533750D03*
D16*
X137636250Y-78898750D03*
D17*
X142716250Y-78898750D03*
D16*
X147796250Y-78898750D03*
X57150000Y-38743750D03*
X57150000Y-45243750D03*
X90011250Y-97948750D03*
D17*
X95091250Y-97948750D03*
D16*
X100171250Y-97948750D03*
D14*
X76200000Y-87153750D03*
D15*
X76200000Y-79533750D03*
D16*
X85263750Y-40798750D03*
D17*
X90343750Y-40798750D03*
D16*
X95423750Y-40798750D03*
D18*
X35245000Y-38765000D03*
X35245000Y-41305000D03*
X35245000Y-43845000D03*
X35245000Y-46385000D03*
X35245000Y-48925000D03*
X35245000Y-51465000D03*
X35245000Y-54005000D03*
X35245000Y-56545000D03*
X35245000Y-59085000D03*
X35245000Y-61625000D03*
X35245000Y-64165000D03*
X35245000Y-66705000D03*
X50485000Y-66705000D03*
X50485000Y-64165000D03*
X50485000Y-61625000D03*
X50485000Y-59085000D03*
X50485000Y-56545000D03*
X50485000Y-54005000D03*
X50485000Y-51465000D03*
X50485000Y-48925000D03*
X50485000Y-46385000D03*
X50485000Y-43845000D03*
X50485000Y-41305000D03*
X50485000Y-38765000D03*
D16*
X37623750Y-116998750D03*
D17*
X42703750Y-116998750D03*
D16*
X47783750Y-116998750D03*
X61436250Y-78898750D03*
D17*
X66516250Y-78898750D03*
D16*
X71596250Y-78898750D03*
D14*
X119062500Y-49053750D03*
D15*
X119062500Y-41433750D03*
D14*
X152400000Y-87153750D03*
D15*
X152400000Y-79533750D03*
D14*
X176212500Y-49053750D03*
D15*
X176212500Y-41433750D03*
D16*
X194786250Y-59848750D03*
D17*
X199866250Y-59848750D03*
D16*
X204946250Y-59848750D03*
D14*
X185737500Y-68103750D03*
D15*
X185737500Y-60483750D03*
D16*
X197167500Y-116998750D03*
D17*
X202247500Y-116998750D03*
D16*
X207327500Y-116998750D03*
X109061250Y-97948750D03*
D17*
X114141250Y-97948750D03*
D16*
X119221250Y-97948750D03*
X99536250Y-78898750D03*
D17*
X104616250Y-78898750D03*
D16*
X109696250Y-78898750D03*
D14*
X96202500Y-66675000D03*
D15*
X103822500Y-66675000D03*
D14*
X95250000Y-87153750D03*
D15*
X95250000Y-79533750D03*
D14*
X85725000Y-106203750D03*
D15*
X85725000Y-98583750D03*
D16*
X56673750Y-59848750D03*
D17*
X61753750Y-59848750D03*
D16*
X66833750Y-59848750D03*
X113823750Y-59848750D03*
D17*
X118903750Y-59848750D03*
D16*
X123983750Y-59848750D03*
D14*
X133350000Y-87153750D03*
D15*
X133350000Y-79533750D03*
D16*
X170973750Y-59848750D03*
D17*
X176053750Y-59848750D03*
D16*
X181133750Y-59848750D03*
X161463750Y-40798750D03*
D17*
X166543750Y-40798750D03*
D16*
X171623750Y-40798750D03*
D14*
X184308750Y-104775000D03*
D15*
X191928750Y-104775000D03*
D16*
X125730000Y-116998750D03*
D17*
X130810000Y-116998750D03*
D16*
X135890000Y-116998750D03*
X123363750Y-40798750D03*
D17*
X128443750Y-40798750D03*
D16*
X133523750Y-40798750D03*
X78105000Y-116998750D03*
D17*
X83185000Y-116998750D03*
D16*
X88265000Y-116998750D03*
X75723750Y-59848750D03*
D17*
X80803750Y-59848750D03*
D16*
X85883750Y-59848750D03*
D14*
X166687500Y-68103750D03*
D15*
X166687500Y-60483750D03*
D14*
X100012500Y-49053750D03*
D15*
X100012500Y-41433750D03*
D14*
X71437500Y-68103750D03*
D15*
X71437500Y-60483750D03*
D14*
X138112500Y-49053750D03*
D15*
X138112500Y-41433750D03*
D16*
X56673750Y-116998750D03*
D17*
X61753750Y-116998750D03*
D16*
X66833750Y-116998750D03*
X147161250Y-97948750D03*
D17*
X152241250Y-97948750D03*
D16*
X157321250Y-97948750D03*
D14*
X147637500Y-68103750D03*
D15*
X147637500Y-60483750D03*
D16*
X118586250Y-78898750D03*
D17*
X123666250Y-78898750D03*
D16*
X128746250Y-78898750D03*
D14*
X171450000Y-87153750D03*
D15*
X171450000Y-79533750D03*
D14*
X190500000Y-125253750D03*
D15*
X190500000Y-117633750D03*
D14*
X104775000Y-106203750D03*
D15*
X104775000Y-98583750D03*
D14*
X128587500Y-68103750D03*
D15*
X128587500Y-60483750D03*
D14*
X90487500Y-68103750D03*
D15*
X90487500Y-60483750D03*
D14*
X142875000Y-106203750D03*
D15*
X142875000Y-98583750D03*
D14*
X189071250Y-85725000D03*
D15*
X196691250Y-85725000D03*
D16*
X173355000Y-116998750D03*
D17*
X178435000Y-116998750D03*
D16*
X183515000Y-116998750D03*
X70961250Y-97948750D03*
D17*
X76041250Y-97948750D03*
D16*
X81121250Y-97948750D03*
D14*
X198596250Y-123825000D03*
D15*
X206216250Y-123825000D03*
D16*
X132873750Y-59848750D03*
D17*
X137953750Y-59848750D03*
D16*
X143033750Y-59848750D03*
D14*
X110490000Y-104775000D03*
D15*
X118110000Y-104775000D03*
D16*
X151923750Y-59848750D03*
D17*
X157003750Y-59848750D03*
D16*
X162083750Y-59848750D03*
X149542500Y-116998750D03*
D17*
X154622500Y-116998750D03*
D16*
X159702500Y-116998750D03*
D14*
X80962500Y-49053750D03*
D15*
X80962500Y-41433750D03*
D14*
X196215000Y-66675000D03*
D15*
X203835000Y-66675000D03*
D16*
X80486250Y-78898750D03*
D17*
X85566250Y-78898750D03*
D16*
X90646250Y-78898750D03*
D14*
X79533750Y-123825000D03*
D15*
X87153750Y-123825000D03*
M02*
