M48
; DRILL file {KiCad 7.0.7} date 2023 September 30, Saturday 18:17:49
; FORMAT={-:-/ absolute / metric / decimal}
; #@! TF.CreationDate,2023-09-30T18:17:49+09:00
; #@! TF.GenerationSoftware,Kicad,Pcbnew,7.0.7
; #@! TF.FileFunction,NonPlated,1,2,NPTH
FMAT,2
METRIC
; #@! TA.AperFunction,NonPlated,NPTH,ComponentDrill
T1C1.200
; #@! TA.AperFunction,NonPlated,NPTH,ComponentDrill
T2C1.800
; #@! TA.AperFunction,NonPlated,NPTH,ComponentDrill
T3C2.000
; #@! TA.AperFunction,NonPlated,NPTH,ComponentDrill
T4C2.200
; #@! TA.AperFunction,NonPlated,NPTH,ComponentDrill
T5C3.000
; #@! TA.AperFunction,NonPlated,NPTH,ComponentDrill
T6C3.050
; #@! TA.AperFunction,NonPlated,NPTH,ComponentDrill
T7C4.000
%
G90
G05
T1
X36.125Y-74.345
X43.125Y-74.345
T2
X182.88Y-97.949
X187.642Y-78.899
X190.024Y-40.799
X193.04Y-97.949
X197.802Y-78.899
X200.184Y-40.799
T3
X37.624Y-116.999
X47.784Y-116.999
X56.674Y-59.849
X56.674Y-116.999
X61.436Y-78.899
X66.229Y-40.799
X66.834Y-59.849
X66.834Y-116.999
X70.961Y-97.949
X71.596Y-78.899
X75.724Y-59.849
X76.389Y-40.799
X78.105Y-116.999
X80.486Y-78.899
X81.121Y-97.949
X85.264Y-40.799
X85.884Y-59.849
X88.265Y-116.999
X90.011Y-97.949
X90.646Y-78.899
X94.774Y-59.849
X95.424Y-40.799
X99.536Y-78.899
X100.171Y-97.949
X101.917Y-116.999
X104.314Y-40.799
X104.934Y-59.849
X109.061Y-97.949
X109.696Y-78.899
X112.078Y-116.999
X113.824Y-59.849
X114.474Y-40.799
X118.586Y-78.899
X119.221Y-97.949
X123.364Y-40.799
X123.984Y-59.849
X125.73Y-116.999
X128.111Y-97.949
X128.746Y-78.899
X132.874Y-59.849
X133.524Y-40.799
X135.89Y-116.999
X137.636Y-78.899
X138.271Y-97.949
X142.429Y-40.799
X143.034Y-59.849
X147.161Y-97.949
X147.796Y-78.899
X149.542Y-116.999
X151.924Y-59.849
X152.589Y-40.799
X156.686Y-78.899
X157.321Y-97.949
X159.702Y-116.999
X161.464Y-40.799
X162.084Y-59.849
X166.846Y-78.899
X170.974Y-59.849
X171.624Y-40.799
X173.355Y-116.999
X181.134Y-59.849
X183.515Y-116.999
X194.786Y-59.849
X197.167Y-116.999
X204.946Y-59.849
X207.327Y-116.999
T4
X35.435Y-33.045
X35.515Y-105.165
X52.387Y-123.825
X54.625Y-71.625
X59.445Y-32.995
X59.531Y-69.056
X64.195Y-105.205
X69.056Y-107.156
X80.962Y-33.337
X95.25Y-123.825
X109.537Y-69.056
X119.062Y-33.337
X123.825Y-100.012
X142.875Y-123.825
X152.4Y-69.056
X157.162Y-33.337
X211.931Y-33.337
X211.931Y-69.056
X211.931Y-107.156
T5
X38.894Y-114.459
X45.244Y-111.919
X57.944Y-57.309
X57.944Y-114.459
X62.706Y-76.359
X64.294Y-54.769
X64.294Y-111.919
X67.499Y-38.259
X69.056Y-73.819
X72.231Y-95.409
X73.849Y-35.719
X76.994Y-57.309
X78.581Y-92.869
X79.375Y-114.459
X81.756Y-76.359
X83.344Y-54.769
X85.725Y-111.919
X86.534Y-38.259
X88.106Y-73.819
X91.281Y-95.409
X92.884Y-35.719
X96.044Y-57.309
X97.631Y-92.869
X100.806Y-76.359
X102.394Y-54.769
X103.188Y-114.459
X105.584Y-38.259
X107.156Y-73.819
X109.537Y-111.919
X110.331Y-95.409
X111.934Y-35.719
X115.094Y-57.309
X116.681Y-92.869
X119.856Y-76.359
X121.444Y-54.769
X124.634Y-38.259
X126.206Y-73.819
X127.0Y-114.459
X129.381Y-95.409
X130.984Y-35.719
X133.35Y-111.919
X134.144Y-57.309
X135.731Y-92.869
X138.906Y-76.359
X140.494Y-54.769
X143.699Y-38.259
X145.256Y-73.819
X148.431Y-95.409
X150.049Y-35.719
X150.812Y-114.459
X153.194Y-57.309
X154.781Y-92.869
X157.162Y-111.919
X157.956Y-76.359
X159.544Y-54.769
X162.734Y-38.259
X164.306Y-73.819
X169.084Y-35.719
X172.244Y-57.309
X174.625Y-114.459
X178.594Y-54.769
X180.975Y-111.919
X184.15Y-95.409
X188.912Y-76.359
X190.5Y-92.869
X191.294Y-38.259
X195.262Y-73.819
X196.056Y-57.309
X197.644Y-35.719
X198.438Y-114.459
X202.406Y-54.769
X204.787Y-111.919
T6
X176.06Y-90.949
X180.822Y-71.899
X183.204Y-33.799
X199.86Y-90.949
X204.623Y-71.899
X207.004Y-33.799
T7
X42.704Y-116.999
X61.754Y-59.849
X61.754Y-116.999
X66.516Y-78.899
X71.309Y-40.799
X76.041Y-97.949
X80.804Y-59.849
X83.185Y-116.999
X85.566Y-78.899
X90.344Y-40.799
X95.091Y-97.949
X99.854Y-59.849
X104.616Y-78.899
X106.997Y-116.999
X109.394Y-40.799
X114.141Y-97.949
X118.904Y-59.849
X123.666Y-78.899
X128.444Y-40.799
X130.81Y-116.999
X133.191Y-97.949
X137.954Y-59.849
X142.716Y-78.899
X147.509Y-40.799
X152.241Y-97.949
X154.623Y-116.999
X157.004Y-59.849
X161.766Y-78.899
X166.544Y-40.799
X176.054Y-59.849
X176.06Y-106.189
X178.435Y-116.999
X180.822Y-87.139
X183.204Y-49.039
X187.96Y-97.949
X192.722Y-78.899
X195.104Y-40.799
X199.86Y-106.189
X199.866Y-59.849
X202.248Y-116.999
X204.623Y-87.139
X207.004Y-49.039
T0
M30
