G04 #@! TF.GenerationSoftware,KiCad,Pcbnew,7.0.7*
G04 #@! TF.CreationDate,2023-09-30T17:49:13+09:00*
G04 #@! TF.ProjectId,ind-assemble_R,696e642d-6173-4736-956d-626c655f522e,rev?*
G04 #@! TF.SameCoordinates,Original*
G04 #@! TF.FileFunction,Profile,NP*
%FSLAX46Y46*%
G04 Gerber Fmt 4.6, Leading zero omitted, Abs format (unit mm)*
G04 Created by KiCad (PCBNEW 7.0.7) date 2023-09-30 17:49:13*
%MOMM*%
%LPD*%
G01*
G04 APERTURE LIST*
G04 #@! TA.AperFunction,Profile*
%ADD10C,0.100000*%
G04 #@! TD*
G04 #@! TA.AperFunction,Profile*
%ADD11C,0.010000*%
G04 #@! TD*
G04 APERTURE END LIST*
D10*
X35568798Y-31284998D02*
G75*
G03*
X33187548Y-33666250I2J-2381252D01*
G01*
X211791202Y-31257548D02*
X35568798Y-31285000D01*
X214172452Y-33638798D02*
X214152452Y-124151202D01*
X33187548Y-33666250D02*
X33193798Y-124379952D01*
X33193799Y-124379952D02*
G75*
G03*
X35568798Y-126537192I2375001J228752D01*
G01*
X211771202Y-126532452D02*
G75*
G03*
X214152452Y-124151202I-2J2381252D01*
G01*
X35568798Y-126532452D02*
X211771202Y-126532452D01*
X214172452Y-33638798D02*
G75*
G03*
X211791202Y-31257548I-2381252J-2D01*
G01*
D11*
X143975000Y-123825000D02*
G75*
G03*
X143975000Y-123825000I-1100000J0D01*
G01*
X53487500Y-123825000D02*
G75*
G03*
X53487500Y-123825000I-1100000J0D01*
G01*
X65295000Y-105205000D02*
G75*
G03*
X65295000Y-105205000I-1100000J0D01*
G01*
X110637500Y-69056250D02*
G75*
G03*
X110637500Y-69056250I-1100000J0D01*
G01*
X36615000Y-105165000D02*
G75*
G03*
X36615000Y-105165000I-1100000J0D01*
G01*
X70156250Y-107156250D02*
G75*
G03*
X70156250Y-107156250I-1100000J0D01*
G01*
X120162500Y-33337500D02*
G75*
G03*
X120162500Y-33337500I-1100000J0D01*
G01*
X213031250Y-107156250D02*
G75*
G03*
X213031250Y-107156250I-1100000J0D01*
G01*
X60631250Y-69056250D02*
G75*
G03*
X60631250Y-69056250I-1100000J0D01*
G01*
X55725000Y-71625000D02*
G75*
G03*
X55725000Y-71625000I-1100000J0D01*
G01*
X213031250Y-69056250D02*
G75*
G03*
X213031250Y-69056250I-1100000J0D01*
G01*
X158262500Y-33337500D02*
G75*
G03*
X158262500Y-33337500I-1100000J0D01*
G01*
X82062500Y-33337500D02*
G75*
G03*
X82062500Y-33337500I-1100000J0D01*
G01*
X213031250Y-33337500D02*
G75*
G03*
X213031250Y-33337500I-1100000J0D01*
G01*
X60545000Y-32995000D02*
G75*
G03*
X60545000Y-32995000I-1100000J0D01*
G01*
X36535000Y-33045000D02*
G75*
G03*
X36535000Y-33045000I-1100000J0D01*
G01*
X96350000Y-123825000D02*
G75*
G03*
X96350000Y-123825000I-1100000J0D01*
G01*
X124925000Y-100012500D02*
G75*
G03*
X124925000Y-100012500I-1100000J0D01*
G01*
X153500000Y-69056250D02*
G75*
G03*
X153500000Y-69056250I-1100000J0D01*
G01*
M02*
